<svg xmlns="http://www.w3.org/2000/svg" viewBox="0 0 1920 1080" role="img" aria-label="AUCTION HOUSE background">
<defs>
 <linearGradient id="bg" x1="0" y1="0" x2="1" y2="1"><stop stop-color="#02070c"/><stop offset=".48" stop-color="#071827"/><stop offset="1" stop-color="#02060a"/></linearGradient>
 <radialGradient id="glow"><stop stop-color="#21b9d8" stop-opacity=".22"/><stop offset="1" stop-color="#21b9d8" stop-opacity="0"/></radialGradient>
 <pattern id="grid" width="72" height="72" patternUnits="userSpaceOnUse"><path d="M72 0H0V72" fill="none" stroke="#7cecff" stroke-opacity=".035"/></pattern>
</defs>
<rect width="1920" height="1080" fill="url(#bg)"/>
<rect width="1920" height="1080" fill="url(#grid)"/>
<ellipse cx="1320" cy="430" rx="620" ry="520" fill="url(#glow)"/>
<g><circle cx="1582" cy="702" r="1" fill="#dffaff" fill-opacity="0.39"/><circle cx="1516" cy="1022" r="2" fill="#dffaff" fill-opacity="0.15"/><circle cx="405" cy="304" r="1.5" fill="#dffaff" fill-opacity="0.37"/><circle cx="1445" cy="642" r="1.5" fill="#dffaff" fill-opacity="0.34"/><circle cx="1857" cy="49" r="1" fill="#dffaff" fill-opacity="0.14"/><circle cx="607" cy="268" r="1" fill="#dffaff" fill-opacity="0.39"/><circle cx="299" cy="255" r="1.5" fill="#dffaff" fill-opacity="0.54"/><circle cx="275" cy="66" r="1.5" fill="#dffaff" fill-opacity="0.10"/><circle cx="1348" cy="709" r="1" fill="#dffaff" fill-opacity="0.40"/><circle cx="769" cy="96" r="1" fill="#dffaff" fill-opacity="0.49"/><circle cx="596" cy="980" r="2" fill="#dffaff" fill-opacity="0.49"/><circle cx="1010" cy="1040" r="1" fill="#dffaff" fill-opacity="0.44"/><circle cx="1154" cy="675" r="1.5" fill="#dffaff" fill-opacity="0.13"/><circle cx="1749" cy="474" r="1.5" fill="#dffaff" fill-opacity="0.39"/><circle cx="1655" cy="708" r="2" fill="#dffaff" fill-opacity="0.47"/><circle cx="1380" cy="114" r="1" fill="#dffaff" fill-opacity="0.31"/><circle cx="1504" cy="49" r="2" fill="#dffaff" fill-opacity="0.22"/><circle cx="1443" cy="1016" r="1" fill="#dffaff" fill-opacity="0.10"/><circle cx="1347" cy="1016" r="1" fill="#dffaff" fill-opacity="0.20"/><circle cx="1292" cy="17" r="1.5" fill="#dffaff" fill-opacity="0.28"/><circle cx="153" cy="539" r="1" fill="#dffaff" fill-opacity="0.15"/><circle cx="758" cy="818" r="1" fill="#dffaff" fill-opacity="0.16"/><circle cx="1369" cy="55" r="1" fill="#dffaff" fill-opacity="0.10"/><circle cx="378" cy="444" r="2" fill="#dffaff" fill-opacity="0.40"/><circle cx="1007" cy="1004" r="2" fill="#dffaff" fill-opacity="0.54"/><circle cx="1682" cy="628" r="2" fill="#dffaff" fill-opacity="0.53"/><circle cx="856" cy="354" r="1" fill="#dffaff" fill-opacity="0.15"/><circle cx="504" cy="418" r="1" fill="#dffaff" fill-opacity="0.31"/><circle cx="1608" cy="604" r="1" fill="#dffaff" fill-opacity="0.30"/><circle cx="1847" cy="678" r="1" fill="#dffaff" fill-opacity="0.32"/><circle cx="1697" cy="922" r="1" fill="#dffaff" fill-opacity="0.31"/><circle cx="1445" cy="669" r="1" fill="#dffaff" fill-opacity="0.49"/><circle cx="1557" cy="1061" r="1.5" fill="#dffaff" fill-opacity="0.17"/><circle cx="132" cy="617" r="1" fill="#dffaff" fill-opacity="0.33"/><circle cx="1051" cy="720" r="1" fill="#dffaff" fill-opacity="0.38"/><circle cx="1075" cy="910" r="1" fill="#dffaff" fill-opacity="0.21"/><circle cx="1520" cy="371" r="1" fill="#dffaff" fill-opacity="0.39"/><circle cx="300" cy="741" r="1.5" fill="#dffaff" fill-opacity="0.23"/><circle cx="779" cy="183" r="1" fill="#dffaff" fill-opacity="0.36"/><circle cx="907" cy="67" r="1" fill="#dffaff" fill-opacity="0.28"/><circle cx="1218" cy="477" r="2" fill="#dffaff" fill-opacity="0.45"/><circle cx="1851" cy="141" r="1" fill="#dffaff" fill-opacity="0.29"/><circle cx="561" cy="249" r="2" fill="#dffaff" fill-opacity="0.29"/><circle cx="863" cy="457" r="1" fill="#dffaff" fill-opacity="0.47"/><circle cx="1409" cy="47" r="1" fill="#dffaff" fill-opacity="0.53"/><circle cx="427" cy="591" r="1" fill="#dffaff" fill-opacity="0.25"/><circle cx="1497" cy="273" r="1.5" fill="#dffaff" fill-opacity="0.32"/><circle cx="1795" cy="382" r="1" fill="#dffaff" fill-opacity="0.53"/><circle cx="460" cy="270" r="1" fill="#dffaff" fill-opacity="0.28"/><circle cx="1120" cy="310" r="1" fill="#dffaff" fill-opacity="0.40"/><circle cx="223" cy="241" r="1.5" fill="#dffaff" fill-opacity="0.16"/><circle cx="1336" cy="244" r="1.5" fill="#dffaff" fill-opacity="0.11"/><circle cx="712" cy="1017" r="1" fill="#dffaff" fill-opacity="0.42"/><circle cx="1813" cy="929" r="1.5" fill="#dffaff" fill-opacity="0.42"/><circle cx="65" cy="548" r="1" fill="#dffaff" fill-opacity="0.40"/><circle cx="1307" cy="980" r="1.5" fill="#dffaff" fill-opacity="0.39"/><circle cx="1218" cy="208" r="1" fill="#dffaff" fill-opacity="0.19"/><circle cx="1891" cy="1030" r="1.5" fill="#dffaff" fill-opacity="0.16"/><circle cx="1750" cy="86" r="2" fill="#dffaff" fill-opacity="0.48"/><circle cx="636" cy="142" r="2" fill="#dffaff" fill-opacity="0.41"/><circle cx="77" cy="698" r="1.5" fill="#dffaff" fill-opacity="0.55"/><circle cx="518" cy="642" r="1" fill="#dffaff" fill-opacity="0.18"/><circle cx="638" cy="609" r="1" fill="#dffaff" fill-opacity="0.10"/><circle cx="799" cy="887" r="1.5" fill="#dffaff" fill-opacity="0.21"/><circle cx="1757" cy="275" r="1" fill="#dffaff" fill-opacity="0.13"/><circle cx="107" cy="855" r="2" fill="#dffaff" fill-opacity="0.29"/><circle cx="1423" cy="599" r="1" fill="#dffaff" fill-opacity="0.36"/><circle cx="489" cy="349" r="1" fill="#dffaff" fill-opacity="0.43"/><circle cx="1336" cy="565" r="1" fill="#dffaff" fill-opacity="0.29"/><circle cx="743" cy="1021" r="2" fill="#dffaff" fill-opacity="0.21"/><circle cx="1184" cy="948" r="2" fill="#dffaff" fill-opacity="0.42"/><circle cx="1123" cy="973" r="1" fill="#dffaff" fill-opacity="0.36"/><circle cx="1906" cy="468" r="1" fill="#dffaff" fill-opacity="0.10"/><circle cx="1274" cy="454" r="1" fill="#dffaff" fill-opacity="0.41"/><circle cx="180" cy="224" r="1" fill="#dffaff" fill-opacity="0.44"/><circle cx="1177" cy="448" r="2" fill="#dffaff" fill-opacity="0.29"/><circle cx="547" cy="128" r="1" fill="#dffaff" fill-opacity="0.47"/><circle cx="605" cy="649" r="2" fill="#dffaff" fill-opacity="0.18"/><circle cx="1012" cy="461" r="2" fill="#dffaff" fill-opacity="0.37"/><circle cx="190" cy="198" r="2" fill="#dffaff" fill-opacity="0.36"/><circle cx="236" cy="441" r="1" fill="#dffaff" fill-opacity="0.15"/><circle cx="695" cy="273" r="2" fill="#dffaff" fill-opacity="0.10"/><circle cx="1005" cy="779" r="1.5" fill="#dffaff" fill-opacity="0.10"/><circle cx="1887" cy="15" r="1" fill="#dffaff" fill-opacity="0.23"/><circle cx="1460" cy="730" r="1" fill="#dffaff" fill-opacity="0.11"/><circle cx="989" cy="371" r="2" fill="#dffaff" fill-opacity="0.42"/><circle cx="29" cy="930" r="1" fill="#dffaff" fill-opacity="0.32"/><circle cx="54" cy="315" r="1.5" fill="#dffaff" fill-opacity="0.42"/><circle cx="663" cy="471" r="1" fill="#dffaff" fill-opacity="0.26"/><circle cx="1196" cy="673" r="1" fill="#dffaff" fill-opacity="0.46"/><circle cx="1310" cy="372" r="2" fill="#dffaff" fill-opacity="0.15"/><circle cx="730" cy="330" r="2" fill="#dffaff" fill-opacity="0.13"/><circle cx="1155" cy="1010" r="1" fill="#dffaff" fill-opacity="0.39"/><circle cx="133" cy="948" r="1.5" fill="#dffaff" fill-opacity="0.31"/><circle cx="251" cy="828" r="1" fill="#dffaff" fill-opacity="0.25"/><circle cx="1021" cy="288" r="1" fill="#dffaff" fill-opacity="0.47"/><circle cx="281" cy="108" r="1" fill="#dffaff" fill-opacity="0.15"/><circle cx="1672" cy="909" r="1" fill="#dffaff" fill-opacity="0.12"/><circle cx="1809" cy="202" r="2" fill="#dffaff" fill-opacity="0.20"/><circle cx="1502" cy="699" r="1" fill="#dffaff" fill-opacity="0.44"/><circle cx="1565" cy="667" r="1" fill="#dffaff" fill-opacity="0.33"/><circle cx="800" cy="751" r="2" fill="#dffaff" fill-opacity="0.35"/><circle cx="215" cy="646" r="1" fill="#dffaff" fill-opacity="0.13"/><circle cx="771" cy="444" r="1" fill="#dffaff" fill-opacity="0.18"/><circle cx="1437" cy="139" r="1.5" fill="#dffaff" fill-opacity="0.17"/><circle cx="1023" cy="577" r="1" fill="#dffaff" fill-opacity="0.50"/><circle cx="14" cy="648" r="1" fill="#dffaff" fill-opacity="0.42"/><circle cx="722" cy="390" r="1" fill="#dffaff" fill-opacity="0.12"/><circle cx="1428" cy="169" r="2" fill="#dffaff" fill-opacity="0.43"/><circle cx="320" cy="488" r="1" fill="#dffaff" fill-opacity="0.31"/><circle cx="1917" cy="643" r="1" fill="#dffaff" fill-opacity="0.30"/><circle cx="751" cy="633" r="2" fill="#dffaff" fill-opacity="0.13"/><circle cx="58" cy="514" r="2" fill="#dffaff" fill-opacity="0.37"/><circle cx="33" cy="68" r="1" fill="#dffaff" fill-opacity="0.21"/><circle cx="832" cy="159" r="1" fill="#dffaff" fill-opacity="0.43"/><circle cx="1495" cy="459" r="1" fill="#dffaff" fill-opacity="0.10"/><circle cx="859" cy="986" r="1" fill="#dffaff" fill-opacity="0.37"/><circle cx="766" cy="784" r="1" fill="#dffaff" fill-opacity="0.45"/><circle cx="823" cy="23" r="2" fill="#dffaff" fill-opacity="0.21"/><circle cx="1519" cy="892" r="2" fill="#dffaff" fill-opacity="0.28"/></g>
<g fill="none" stroke="#76eaff" stroke-opacity=".24" stroke-width="2"><circle cx="1280" cy="420" r="235"/><circle cx="1280" cy="420" r="185"/><path d="M1280 235v370M1095 420h370M1150 290l260 260M1410 290l-260 260"/><circle cx="1280" cy="420" r="45" stroke="#ffbd61" stroke-opacity=".4"/></g>
<g font-family="Arial, Helvetica, sans-serif" letter-spacing="8" fill="#dffaff">
 <text x="90" y="885" font-size="38" font-weight="700" fill-opacity=".3">AUCTION HOUSE</text>
 <text x="94" y="930" font-size="16" fill="#76eaff" fill-opacity=".32">ORG REWARD VAULT</text>
</g>
<path d="M90 965h560" stroke="#ffbd61" stroke-opacity=".25" stroke-width="3"/>
</svg>