<svg xmlns="http://www.w3.org/2000/svg" viewBox="0 0 1920 1080" role="img" aria-label="BASE PROJECTS background">
<defs>
 <linearGradient id="bg" x1="0" y1="0" x2="1" y2="1"><stop stop-color="#02070c"/><stop offset=".48" stop-color="#071827"/><stop offset="1" stop-color="#02060a"/></linearGradient>
 <radialGradient id="glow"><stop stop-color="#21b9d8" stop-opacity=".22"/><stop offset="1" stop-color="#21b9d8" stop-opacity="0"/></radialGradient>
 <pattern id="grid" width="72" height="72" patternUnits="userSpaceOnUse"><path d="M72 0H0V72" fill="none" stroke="#7cecff" stroke-opacity=".035"/></pattern>
</defs>
<rect width="1920" height="1080" fill="url(#bg)"/>
<rect width="1920" height="1080" fill="url(#grid)"/>
<ellipse cx="1320" cy="430" rx="620" ry="520" fill="url(#glow)"/>
<g><circle cx="1575" cy="367" r="1" fill="#dffaff" fill-opacity="0.24"/><circle cx="248" cy="979" r="1" fill="#dffaff" fill-opacity="0.24"/><circle cx="1288" cy="989" r="1" fill="#dffaff" fill-opacity="0.40"/><circle cx="181" cy="514" r="1" fill="#dffaff" fill-opacity="0.45"/><circle cx="1740" cy="508" r="1" fill="#dffaff" fill-opacity="0.51"/><circle cx="730" cy="630" r="1" fill="#dffaff" fill-opacity="0.21"/><circle cx="1473" cy="286" r="1" fill="#dffaff" fill-opacity="0.23"/><circle cx="1913" cy="1008" r="2" fill="#dffaff" fill-opacity="0.18"/><circle cx="1527" cy="989" r="1" fill="#dffaff" fill-opacity="0.29"/><circle cx="1275" cy="527" r="1" fill="#dffaff" fill-opacity="0.10"/><circle cx="1478" cy="322" r="1" fill="#dffaff" fill-opacity="0.13"/><circle cx="847" cy="322" r="1.5" fill="#dffaff" fill-opacity="0.41"/><circle cx="740" cy="206" r="2" fill="#dffaff" fill-opacity="0.30"/><circle cx="40" cy="110" r="2" fill="#dffaff" fill-opacity="0.08"/><circle cx="1583" cy="126" r="1.5" fill="#dffaff" fill-opacity="0.55"/><circle cx="1613" cy="526" r="1" fill="#dffaff" fill-opacity="0.43"/><circle cx="1336" cy="388" r="1.5" fill="#dffaff" fill-opacity="0.23"/><circle cx="74" cy="974" r="2" fill="#dffaff" fill-opacity="0.48"/><circle cx="759" cy="549" r="2" fill="#dffaff" fill-opacity="0.15"/><circle cx="1160" cy="554" r="1" fill="#dffaff" fill-opacity="0.10"/><circle cx="1671" cy="83" r="1" fill="#dffaff" fill-opacity="0.17"/><circle cx="1655" cy="91" r="1" fill="#dffaff" fill-opacity="0.46"/><circle cx="1091" cy="719" r="1.5" fill="#dffaff" fill-opacity="0.16"/><circle cx="1726" cy="969" r="2" fill="#dffaff" fill-opacity="0.42"/><circle cx="1656" cy="995" r="2" fill="#dffaff" fill-opacity="0.30"/><circle cx="513" cy="201" r="1.5" fill="#dffaff" fill-opacity="0.17"/><circle cx="572" cy="873" r="1.5" fill="#dffaff" fill-opacity="0.16"/><circle cx="723" cy="416" r="1" fill="#dffaff" fill-opacity="0.36"/><circle cx="1598" cy="1065" r="2" fill="#dffaff" fill-opacity="0.23"/><circle cx="1223" cy="227" r="1.5" fill="#dffaff" fill-opacity="0.28"/><circle cx="1758" cy="818" r="2" fill="#dffaff" fill-opacity="0.49"/><circle cx="904" cy="579" r="1.5" fill="#dffaff" fill-opacity="0.20"/><circle cx="1851" cy="366" r="2" fill="#dffaff" fill-opacity="0.45"/><circle cx="1519" cy="1057" r="2" fill="#dffaff" fill-opacity="0.20"/><circle cx="1339" cy="521" r="1" fill="#dffaff" fill-opacity="0.17"/><circle cx="1526" cy="250" r="1" fill="#dffaff" fill-opacity="0.28"/><circle cx="1876" cy="15" r="1.5" fill="#dffaff" fill-opacity="0.43"/><circle cx="1274" cy="647" r="1.5" fill="#dffaff" fill-opacity="0.43"/><circle cx="202" cy="157" r="1.5" fill="#dffaff" fill-opacity="0.32"/><circle cx="1028" cy="674" r="2" fill="#dffaff" fill-opacity="0.50"/><circle cx="485" cy="84" r="1" fill="#dffaff" fill-opacity="0.22"/><circle cx="1655" cy="314" r="1" fill="#dffaff" fill-opacity="0.33"/><circle cx="634" cy="224" r="1.5" fill="#dffaff" fill-opacity="0.09"/><circle cx="450" cy="681" r="1" fill="#dffaff" fill-opacity="0.31"/><circle cx="1029" cy="562" r="1" fill="#dffaff" fill-opacity="0.41"/><circle cx="1181" cy="178" r="1.5" fill="#dffaff" fill-opacity="0.26"/><circle cx="741" cy="210" r="1" fill="#dffaff" fill-opacity="0.40"/><circle cx="381" cy="648" r="1" fill="#dffaff" fill-opacity="0.50"/><circle cx="742" cy="622" r="1.5" fill="#dffaff" fill-opacity="0.37"/><circle cx="428" cy="408" r="1.5" fill="#dffaff" fill-opacity="0.16"/><circle cx="111" cy="362" r="1" fill="#dffaff" fill-opacity="0.30"/><circle cx="965" cy="878" r="1.5" fill="#dffaff" fill-opacity="0.45"/><circle cx="1352" cy="227" r="1.5" fill="#dffaff" fill-opacity="0.13"/><circle cx="91" cy="747" r="1.5" fill="#dffaff" fill-opacity="0.13"/><circle cx="414" cy="351" r="1.5" fill="#dffaff" fill-opacity="0.45"/><circle cx="70" cy="633" r="2" fill="#dffaff" fill-opacity="0.39"/><circle cx="402" cy="773" r="1" fill="#dffaff" fill-opacity="0.13"/><circle cx="286" cy="523" r="2" fill="#dffaff" fill-opacity="0.29"/><circle cx="177" cy="788" r="2" fill="#dffaff" fill-opacity="0.15"/><circle cx="299" cy="663" r="1.5" fill="#dffaff" fill-opacity="0.17"/><circle cx="771" cy="957" r="1" fill="#dffaff" fill-opacity="0.13"/><circle cx="1382" cy="413" r="1" fill="#dffaff" fill-opacity="0.23"/><circle cx="559" cy="629" r="1.5" fill="#dffaff" fill-opacity="0.26"/><circle cx="949" cy="130" r="1" fill="#dffaff" fill-opacity="0.50"/><circle cx="449" cy="68" r="2" fill="#dffaff" fill-opacity="0.51"/><circle cx="77" cy="326" r="1.5" fill="#dffaff" fill-opacity="0.30"/><circle cx="1094" cy="655" r="2" fill="#dffaff" fill-opacity="0.49"/><circle cx="547" cy="459" r="2" fill="#dffaff" fill-opacity="0.33"/><circle cx="651" cy="46" r="1" fill="#dffaff" fill-opacity="0.41"/><circle cx="395" cy="907" r="2" fill="#dffaff" fill-opacity="0.11"/><circle cx="1904" cy="505" r="2" fill="#dffaff" fill-opacity="0.30"/><circle cx="377" cy="636" r="1" fill="#dffaff" fill-opacity="0.36"/><circle cx="136" cy="535" r="1" fill="#dffaff" fill-opacity="0.36"/><circle cx="83" cy="254" r="1" fill="#dffaff" fill-opacity="0.29"/><circle cx="660" cy="529" r="1" fill="#dffaff" fill-opacity="0.28"/><circle cx="1629" cy="385" r="1" fill="#dffaff" fill-opacity="0.50"/><circle cx="728" cy="765" r="2" fill="#dffaff" fill-opacity="0.41"/><circle cx="1699" cy="705" r="1.5" fill="#dffaff" fill-opacity="0.22"/><circle cx="1464" cy="168" r="1" fill="#dffaff" fill-opacity="0.54"/><circle cx="1386" cy="489" r="1" fill="#dffaff" fill-opacity="0.51"/><circle cx="1841" cy="634" r="2" fill="#dffaff" fill-opacity="0.37"/><circle cx="360" cy="496" r="1.5" fill="#dffaff" fill-opacity="0.14"/><circle cx="818" cy="195" r="1" fill="#dffaff" fill-opacity="0.30"/><circle cx="925" cy="1025" r="1.5" fill="#dffaff" fill-opacity="0.40"/><circle cx="1531" cy="339" r="2" fill="#dffaff" fill-opacity="0.53"/><circle cx="1649" cy="83" r="1.5" fill="#dffaff" fill-opacity="0.14"/><circle cx="859" cy="431" r="2" fill="#dffaff" fill-opacity="0.14"/><circle cx="1182" cy="766" r="1" fill="#dffaff" fill-opacity="0.27"/><circle cx="1138" cy="810" r="1" fill="#dffaff" fill-opacity="0.25"/><circle cx="413" cy="807" r="1.5" fill="#dffaff" fill-opacity="0.18"/><circle cx="1198" cy="1042" r="1" fill="#dffaff" fill-opacity="0.40"/><circle cx="1168" cy="947" r="1" fill="#dffaff" fill-opacity="0.17"/><circle cx="389" cy="63" r="1.5" fill="#dffaff" fill-opacity="0.20"/><circle cx="1266" cy="959" r="1" fill="#dffaff" fill-opacity="0.09"/><circle cx="1181" cy="541" r="2" fill="#dffaff" fill-opacity="0.36"/><circle cx="1440" cy="699" r="1" fill="#dffaff" fill-opacity="0.51"/><circle cx="1883" cy="653" r="2" fill="#dffaff" fill-opacity="0.16"/><circle cx="1882" cy="240" r="2" fill="#dffaff" fill-opacity="0.43"/><circle cx="362" cy="62" r="1.5" fill="#dffaff" fill-opacity="0.35"/><circle cx="1827" cy="350" r="1" fill="#dffaff" fill-opacity="0.22"/><circle cx="432" cy="499" r="1" fill="#dffaff" fill-opacity="0.41"/><circle cx="1672" cy="309" r="1" fill="#dffaff" fill-opacity="0.34"/><circle cx="1373" cy="776" r="1" fill="#dffaff" fill-opacity="0.47"/><circle cx="677" cy="721" r="1" fill="#dffaff" fill-opacity="0.35"/><circle cx="497" cy="993" r="1.5" fill="#dffaff" fill-opacity="0.53"/><circle cx="104" cy="451" r="1" fill="#dffaff" fill-opacity="0.52"/><circle cx="270" cy="213" r="2" fill="#dffaff" fill-opacity="0.49"/><circle cx="1667" cy="445" r="1.5" fill="#dffaff" fill-opacity="0.51"/><circle cx="620" cy="436" r="2" fill="#dffaff" fill-opacity="0.19"/><circle cx="335" cy="234" r="2" fill="#dffaff" fill-opacity="0.35"/><circle cx="409" cy="844" r="2" fill="#dffaff" fill-opacity="0.34"/><circle cx="1370" cy="1063" r="2" fill="#dffaff" fill-opacity="0.23"/><circle cx="144" cy="172" r="1" fill="#dffaff" fill-opacity="0.39"/><circle cx="1459" cy="419" r="1" fill="#dffaff" fill-opacity="0.11"/><circle cx="1656" cy="300" r="1" fill="#dffaff" fill-opacity="0.51"/><circle cx="420" cy="780" r="1.5" fill="#dffaff" fill-opacity="0.17"/><circle cx="917" cy="953" r="1" fill="#dffaff" fill-opacity="0.17"/><circle cx="719" cy="146" r="1" fill="#dffaff" fill-opacity="0.16"/><circle cx="1007" cy="628" r="1" fill="#dffaff" fill-opacity="0.20"/><circle cx="535" cy="674" r="2" fill="#dffaff" fill-opacity="0.51"/></g>
<g fill="none" stroke="#76eaff" stroke-opacity=".24" stroke-width="2"><path d="M1025 595h520M1080 595V420l120-95 90 70 105-120 95 85v235M1185 595V470h190v125M1245 470v125"/><path d="M1050 650h470" stroke-dasharray="16 12"/></g>
<g font-family="Arial, Helvetica, sans-serif" letter-spacing="8" fill="#dffaff">
 <text x="90" y="885" font-size="38" font-weight="700" fill-opacity=".3">BASE PROJECTS</text>
 <text x="94" y="930" font-size="16" fill="#76eaff" fill-opacity=".32">CONSTRUCTION GRID</text>
</g>
<path d="M90 965h560" stroke="#ffbd61" stroke-opacity=".25" stroke-width="3"/>
</svg>