<svg xmlns="http://www.w3.org/2000/svg" viewBox="0 0 1920 1080" role="img" aria-label="CRAFTING background">
<defs>
 <linearGradient id="bg" x1="0" y1="0" x2="1" y2="1"><stop stop-color="#02070c"/><stop offset=".48" stop-color="#071827"/><stop offset="1" stop-color="#02060a"/></linearGradient>
 <radialGradient id="glow"><stop stop-color="#21b9d8" stop-opacity=".22"/><stop offset="1" stop-color="#21b9d8" stop-opacity="0"/></radialGradient>
 <pattern id="grid" width="72" height="72" patternUnits="userSpaceOnUse"><path d="M72 0H0V72" fill="none" stroke="#7cecff" stroke-opacity=".035"/></pattern>
</defs>
<rect width="1920" height="1080" fill="url(#bg)"/>
<rect width="1920" height="1080" fill="url(#grid)"/>
<ellipse cx="1320" cy="430" rx="620" ry="520" fill="url(#glow)"/>
<g><circle cx="1672" cy="301" r="1" fill="#dffaff" fill-opacity="0.10"/><circle cx="1817" cy="324" r="1" fill="#dffaff" fill-opacity="0.35"/><circle cx="7" cy="72" r="1" fill="#dffaff" fill-opacity="0.40"/><circle cx="627" cy="243" r="1" fill="#dffaff" fill-opacity="0.22"/><circle cx="1542" cy="189" r="1.5" fill="#dffaff" fill-opacity="0.51"/><circle cx="841" cy="315" r="1.5" fill="#dffaff" fill-opacity="0.40"/><circle cx="1432" cy="868" r="2" fill="#dffaff" fill-opacity="0.28"/><circle cx="183" cy="474" r="1" fill="#dffaff" fill-opacity="0.24"/><circle cx="1123" cy="659" r="1.5" fill="#dffaff" fill-opacity="0.20"/><circle cx="1232" cy="989" r="1" fill="#dffaff" fill-opacity="0.28"/><circle cx="774" cy="854" r="1" fill="#dffaff" fill-opacity="0.26"/><circle cx="502" cy="83" r="2" fill="#dffaff" fill-opacity="0.43"/><circle cx="400" cy="520" r="1" fill="#dffaff" fill-opacity="0.10"/><circle cx="822" cy="945" r="1" fill="#dffaff" fill-opacity="0.12"/><circle cx="1186" cy="569" r="1" fill="#dffaff" fill-opacity="0.15"/><circle cx="1117" cy="571" r="1" fill="#dffaff" fill-opacity="0.09"/><circle cx="210" cy="566" r="1" fill="#dffaff" fill-opacity="0.33"/><circle cx="319" cy="278" r="2" fill="#dffaff" fill-opacity="0.25"/><circle cx="373" cy="666" r="2" fill="#dffaff" fill-opacity="0.41"/><circle cx="1856" cy="290" r="2" fill="#dffaff" fill-opacity="0.29"/><circle cx="1836" cy="511" r="1" fill="#dffaff" fill-opacity="0.09"/><circle cx="325" cy="188" r="1" fill="#dffaff" fill-opacity="0.26"/><circle cx="178" cy="81" r="1" fill="#dffaff" fill-opacity="0.15"/><circle cx="373" cy="598" r="1" fill="#dffaff" fill-opacity="0.48"/><circle cx="1282" cy="662" r="1" fill="#dffaff" fill-opacity="0.29"/><circle cx="451" cy="431" r="2" fill="#dffaff" fill-opacity="0.39"/><circle cx="860" cy="69" r="1" fill="#dffaff" fill-opacity="0.10"/><circle cx="1081" cy="323" r="1" fill="#dffaff" fill-opacity="0.25"/><circle cx="319" cy="142" r="2" fill="#dffaff" fill-opacity="0.39"/><circle cx="180" cy="406" r="1" fill="#dffaff" fill-opacity="0.44"/><circle cx="486" cy="87" r="1" fill="#dffaff" fill-opacity="0.38"/><circle cx="1040" cy="475" r="1" fill="#dffaff" fill-opacity="0.53"/><circle cx="218" cy="531" r="1.5" fill="#dffaff" fill-opacity="0.39"/><circle cx="860" cy="608" r="1.5" fill="#dffaff" fill-opacity="0.51"/><circle cx="1373" cy="824" r="1" fill="#dffaff" fill-opacity="0.27"/><circle cx="186" cy="339" r="1" fill="#dffaff" fill-opacity="0.43"/><circle cx="1157" cy="497" r="2" fill="#dffaff" fill-opacity="0.15"/><circle cx="1661" cy="103" r="1.5" fill="#dffaff" fill-opacity="0.42"/><circle cx="1266" cy="557" r="1.5" fill="#dffaff" fill-opacity="0.15"/><circle cx="1744" cy="114" r="1.5" fill="#dffaff" fill-opacity="0.09"/><circle cx="1403" cy="688" r="2" fill="#dffaff" fill-opacity="0.48"/><circle cx="983" cy="347" r="1.5" fill="#dffaff" fill-opacity="0.10"/><circle cx="1369" cy="863" r="1.5" fill="#dffaff" fill-opacity="0.25"/><circle cx="492" cy="630" r="1" fill="#dffaff" fill-opacity="0.44"/><circle cx="505" cy="302" r="2" fill="#dffaff" fill-opacity="0.53"/><circle cx="1537" cy="849" r="1.5" fill="#dffaff" fill-opacity="0.13"/><circle cx="53" cy="358" r="1.5" fill="#dffaff" fill-opacity="0.55"/><circle cx="1851" cy="728" r="1" fill="#dffaff" fill-opacity="0.54"/><circle cx="1617" cy="929" r="1" fill="#dffaff" fill-opacity="0.51"/><circle cx="1758" cy="323" r="2" fill="#dffaff" fill-opacity="0.33"/><circle cx="1375" cy="68" r="1" fill="#dffaff" fill-opacity="0.10"/><circle cx="669" cy="450" r="2" fill="#dffaff" fill-opacity="0.46"/><circle cx="1209" cy="156" r="1" fill="#dffaff" fill-opacity="0.14"/><circle cx="74" cy="328" r="1.5" fill="#dffaff" fill-opacity="0.35"/><circle cx="1545" cy="902" r="1" fill="#dffaff" fill-opacity="0.17"/><circle cx="1617" cy="336" r="1" fill="#dffaff" fill-opacity="0.18"/><circle cx="929" cy="898" r="1" fill="#dffaff" fill-opacity="0.34"/><circle cx="160" cy="623" r="1" fill="#dffaff" fill-opacity="0.28"/><circle cx="1593" cy="991" r="1" fill="#dffaff" fill-opacity="0.36"/><circle cx="1761" cy="3" r="1.5" fill="#dffaff" fill-opacity="0.38"/><circle cx="1862" cy="533" r="1" fill="#dffaff" fill-opacity="0.39"/><circle cx="1892" cy="306" r="1" fill="#dffaff" fill-opacity="0.23"/><circle cx="1093" cy="217" r="2" fill="#dffaff" fill-opacity="0.13"/><circle cx="415" cy="28" r="2" fill="#dffaff" fill-opacity="0.21"/><circle cx="181" cy="326" r="1" fill="#dffaff" fill-opacity="0.23"/><circle cx="1026" cy="311" r="1" fill="#dffaff" fill-opacity="0.27"/><circle cx="1240" cy="930" r="1" fill="#dffaff" fill-opacity="0.35"/><circle cx="400" cy="277" r="1" fill="#dffaff" fill-opacity="0.14"/><circle cx="1754" cy="995" r="1.5" fill="#dffaff" fill-opacity="0.19"/><circle cx="1308" cy="829" r="2" fill="#dffaff" fill-opacity="0.32"/><circle cx="154" cy="205" r="1" fill="#dffaff" fill-opacity="0.44"/><circle cx="1854" cy="409" r="1" fill="#dffaff" fill-opacity="0.42"/><circle cx="1642" cy="159" r="1" fill="#dffaff" fill-opacity="0.40"/><circle cx="151" cy="365" r="1" fill="#dffaff" fill-opacity="0.43"/><circle cx="1126" cy="504" r="1" fill="#dffaff" fill-opacity="0.45"/><circle cx="269" cy="192" r="1" fill="#dffaff" fill-opacity="0.37"/><circle cx="681" cy="208" r="1" fill="#dffaff" fill-opacity="0.27"/><circle cx="1334" cy="55" r="1" fill="#dffaff" fill-opacity="0.24"/><circle cx="334" cy="588" r="1.5" fill="#dffaff" fill-opacity="0.46"/><circle cx="1176" cy="911" r="1" fill="#dffaff" fill-opacity="0.18"/><circle cx="1094" cy="744" r="1.5" fill="#dffaff" fill-opacity="0.54"/><circle cx="1902" cy="755" r="1.5" fill="#dffaff" fill-opacity="0.20"/><circle cx="1590" cy="654" r="1" fill="#dffaff" fill-opacity="0.47"/><circle cx="178" cy="340" r="2" fill="#dffaff" fill-opacity="0.49"/><circle cx="1438" cy="226" r="1" fill="#dffaff" fill-opacity="0.54"/><circle cx="715" cy="116" r="1" fill="#dffaff" fill-opacity="0.48"/><circle cx="550" cy="187" r="1" fill="#dffaff" fill-opacity="0.48"/><circle cx="1041" cy="336" r="2" fill="#dffaff" fill-opacity="0.22"/><circle cx="1208" cy="782" r="1" fill="#dffaff" fill-opacity="0.52"/><circle cx="302" cy="15" r="2" fill="#dffaff" fill-opacity="0.47"/><circle cx="1643" cy="274" r="2" fill="#dffaff" fill-opacity="0.42"/><circle cx="1809" cy="322" r="1.5" fill="#dffaff" fill-opacity="0.41"/><circle cx="31" cy="73" r="1" fill="#dffaff" fill-opacity="0.32"/><circle cx="1247" cy="933" r="1.5" fill="#dffaff" fill-opacity="0.45"/><circle cx="1695" cy="896" r="1.5" fill="#dffaff" fill-opacity="0.38"/><circle cx="1395" cy="906" r="1" fill="#dffaff" fill-opacity="0.39"/><circle cx="1458" cy="233" r="1.5" fill="#dffaff" fill-opacity="0.18"/><circle cx="1047" cy="303" r="2" fill="#dffaff" fill-opacity="0.55"/><circle cx="112" cy="227" r="1" fill="#dffaff" fill-opacity="0.24"/><circle cx="1427" cy="682" r="1" fill="#dffaff" fill-opacity="0.18"/><circle cx="48" cy="954" r="1.5" fill="#dffaff" fill-opacity="0.33"/><circle cx="642" cy="363" r="1" fill="#dffaff" fill-opacity="0.35"/><circle cx="1782" cy="204" r="2" fill="#dffaff" fill-opacity="0.30"/><circle cx="1437" cy="193" r="2" fill="#dffaff" fill-opacity="0.42"/><circle cx="1580" cy="909" r="1.5" fill="#dffaff" fill-opacity="0.45"/><circle cx="741" cy="47" r="1" fill="#dffaff" fill-opacity="0.16"/><circle cx="1808" cy="652" r="1" fill="#dffaff" fill-opacity="0.48"/><circle cx="771" cy="379" r="1" fill="#dffaff" fill-opacity="0.37"/><circle cx="176" cy="131" r="1" fill="#dffaff" fill-opacity="0.44"/><circle cx="137" cy="488" r="1" fill="#dffaff" fill-opacity="0.10"/><circle cx="304" cy="948" r="2" fill="#dffaff" fill-opacity="0.15"/><circle cx="733" cy="963" r="1" fill="#dffaff" fill-opacity="0.27"/><circle cx="590" cy="1075" r="1" fill="#dffaff" fill-opacity="0.39"/><circle cx="698" cy="55" r="2" fill="#dffaff" fill-opacity="0.27"/><circle cx="1799" cy="547" r="1" fill="#dffaff" fill-opacity="0.17"/><circle cx="1792" cy="733" r="1" fill="#dffaff" fill-opacity="0.17"/><circle cx="422" cy="269" r="1.5" fill="#dffaff" fill-opacity="0.23"/><circle cx="432" cy="570" r="1" fill="#dffaff" fill-opacity="0.10"/><circle cx="673" cy="361" r="1.5" fill="#dffaff" fill-opacity="0.51"/><circle cx="1450" cy="514" r="1.5" fill="#dffaff" fill-opacity="0.18"/></g>
<g fill="none" stroke="#76eaff" stroke-opacity=".24" stroke-width="2"><path d="M1040 260l70-40 70 40v80l-70 40-70-40z"/><path d="M1185 260l70-40 70 40v80l-70 40-70-40z"/><path d="M1330 260l70-40 70 40v80l-70 40-70-40z"/><path d="M1112 385l70-40 70 40v80l-70 40-70-40z"/><path d="M1257 385l70-40 70 40v80l-70 40-70-40z"/><path d="M1185 510l70-40 70 40v80l-70 40-70-40z"/></g>
<g font-family="Arial, Helvetica, sans-serif" letter-spacing="8" fill="#dffaff">
 <text x="90" y="885" font-size="38" font-weight="700" fill-opacity=".3">CRAFTING</text>
 <text x="94" y="930" font-size="16" fill="#76eaff" fill-opacity=".32">BLUEPRINT FABRICATION</text>
</g>
<path d="M90 965h560" stroke="#ffbd61" stroke-opacity=".25" stroke-width="3"/>
</svg>