<svg xmlns="http://www.w3.org/2000/svg" viewBox="0 0 1920 1080" role="img" aria-label="COMMAND DASHBOARD background">
<defs>
 <linearGradient id="bg" x1="0" y1="0" x2="1" y2="1"><stop stop-color="#02070c"/><stop offset=".48" stop-color="#071827"/><stop offset="1" stop-color="#02060a"/></linearGradient>
 <radialGradient id="glow"><stop stop-color="#21b9d8" stop-opacity=".22"/><stop offset="1" stop-color="#21b9d8" stop-opacity="0"/></radialGradient>
 <pattern id="grid" width="72" height="72" patternUnits="userSpaceOnUse"><path d="M72 0H0V72" fill="none" stroke="#7cecff" stroke-opacity=".035"/></pattern>
</defs>
<rect width="1920" height="1080" fill="url(#bg)"/>
<rect width="1920" height="1080" fill="url(#grid)"/>
<ellipse cx="1320" cy="430" rx="620" ry="520" fill="url(#glow)"/>
<g><circle cx="1426" cy="601" r="1" fill="#dffaff" fill-opacity="0.24"/><circle cx="785" cy="293" r="1" fill="#dffaff" fill-opacity="0.10"/><circle cx="1196" cy="528" r="1" fill="#dffaff" fill-opacity="0.14"/><circle cx="796" cy="176" r="1" fill="#dffaff" fill-opacity="0.13"/><circle cx="1658" cy="169" r="1" fill="#dffaff" fill-opacity="0.53"/><circle cx="1644" cy="469" r="1" fill="#dffaff" fill-opacity="0.37"/><circle cx="494" cy="1040" r="1.5" fill="#dffaff" fill-opacity="0.45"/><circle cx="1376" cy="319" r="1.5" fill="#dffaff" fill-opacity="0.55"/><circle cx="730" cy="643" r="1" fill="#dffaff" fill-opacity="0.54"/><circle cx="252" cy="701" r="1.5" fill="#dffaff" fill-opacity="0.30"/><circle cx="1689" cy="649" r="1.5" fill="#dffaff" fill-opacity="0.42"/><circle cx="141" cy="871" r="1" fill="#dffaff" fill-opacity="0.49"/><circle cx="26" cy="105" r="1" fill="#dffaff" fill-opacity="0.20"/><circle cx="1867" cy="394" r="2" fill="#dffaff" fill-opacity="0.26"/><circle cx="111" cy="650" r="2" fill="#dffaff" fill-opacity="0.54"/><circle cx="1054" cy="206" r="1.5" fill="#dffaff" fill-opacity="0.25"/><circle cx="650" cy="1023" r="1.5" fill="#dffaff" fill-opacity="0.21"/><circle cx="894" cy="986" r="1" fill="#dffaff" fill-opacity="0.39"/><circle cx="802" cy="646" r="1" fill="#dffaff" fill-opacity="0.51"/><circle cx="1786" cy="718" r="1" fill="#dffaff" fill-opacity="0.11"/><circle cx="843" cy="666" r="2" fill="#dffaff" fill-opacity="0.48"/><circle cx="1210" cy="1068" r="1" fill="#dffaff" fill-opacity="0.25"/><circle cx="27" cy="688" r="1" fill="#dffaff" fill-opacity="0.51"/><circle cx="905" cy="1033" r="1" fill="#dffaff" fill-opacity="0.14"/><circle cx="1871" cy="843" r="1.5" fill="#dffaff" fill-opacity="0.45"/><circle cx="1620" cy="960" r="1.5" fill="#dffaff" fill-opacity="0.16"/><circle cx="1765" cy="779" r="1" fill="#dffaff" fill-opacity="0.31"/><circle cx="923" cy="713" r="1" fill="#dffaff" fill-opacity="0.21"/><circle cx="788" cy="166" r="1.5" fill="#dffaff" fill-opacity="0.16"/><circle cx="124" cy="480" r="1" fill="#dffaff" fill-opacity="0.23"/><circle cx="1755" cy="421" r="2" fill="#dffaff" fill-opacity="0.30"/><circle cx="827" cy="581" r="1" fill="#dffaff" fill-opacity="0.41"/><circle cx="345" cy="971" r="1" fill="#dffaff" fill-opacity="0.33"/><circle cx="1274" cy="995" r="1" fill="#dffaff" fill-opacity="0.36"/><circle cx="1361" cy="1013" r="1" fill="#dffaff" fill-opacity="0.54"/><circle cx="923" cy="363" r="1" fill="#dffaff" fill-opacity="0.09"/><circle cx="935" cy="231" r="2" fill="#dffaff" fill-opacity="0.34"/><circle cx="1608" cy="785" r="1" fill="#dffaff" fill-opacity="0.38"/><circle cx="1432" cy="222" r="1" fill="#dffaff" fill-opacity="0.40"/><circle cx="713" cy="446" r="1" fill="#dffaff" fill-opacity="0.24"/><circle cx="1734" cy="379" r="1.5" fill="#dffaff" fill-opacity="0.20"/><circle cx="1108" cy="464" r="2" fill="#dffaff" fill-opacity="0.50"/><circle cx="1354" cy="212" r="1" fill="#dffaff" fill-opacity="0.48"/><circle cx="601" cy="789" r="1" fill="#dffaff" fill-opacity="0.51"/><circle cx="1009" cy="990" r="1.5" fill="#dffaff" fill-opacity="0.50"/><circle cx="808" cy="657" r="1" fill="#dffaff" fill-opacity="0.22"/><circle cx="1273" cy="835" r="1.5" fill="#dffaff" fill-opacity="0.24"/><circle cx="1650" cy="822" r="1" fill="#dffaff" fill-opacity="0.13"/><circle cx="1013" cy="568" r="2" fill="#dffaff" fill-opacity="0.30"/><circle cx="773" cy="554" r="2" fill="#dffaff" fill-opacity="0.14"/><circle cx="1474" cy="1075" r="1" fill="#dffaff" fill-opacity="0.48"/><circle cx="189" cy="261" r="1" fill="#dffaff" fill-opacity="0.31"/><circle cx="1747" cy="367" r="1" fill="#dffaff" fill-opacity="0.35"/><circle cx="876" cy="1018" r="1.5" fill="#dffaff" fill-opacity="0.53"/><circle cx="31" cy="202" r="1" fill="#dffaff" fill-opacity="0.33"/><circle cx="204" cy="1029" r="1" fill="#dffaff" fill-opacity="0.23"/><circle cx="900" cy="478" r="1.5" fill="#dffaff" fill-opacity="0.37"/><circle cx="266" cy="980" r="1" fill="#dffaff" fill-opacity="0.09"/><circle cx="405" cy="91" r="1" fill="#dffaff" fill-opacity="0.37"/><circle cx="1637" cy="173" r="1" fill="#dffaff" fill-opacity="0.54"/><circle cx="502" cy="85" r="1" fill="#dffaff" fill-opacity="0.39"/><circle cx="1599" cy="567" r="1" fill="#dffaff" fill-opacity="0.19"/><circle cx="1442" cy="8" r="1.5" fill="#dffaff" fill-opacity="0.14"/><circle cx="1216" cy="240" r="1" fill="#dffaff" fill-opacity="0.34"/><circle cx="751" cy="174" r="1" fill="#dffaff" fill-opacity="0.24"/><circle cx="1294" cy="972" r="2" fill="#dffaff" fill-opacity="0.34"/><circle cx="1017" cy="987" r="1" fill="#dffaff" fill-opacity="0.08"/><circle cx="1732" cy="594" r="1" fill="#dffaff" fill-opacity="0.23"/><circle cx="227" cy="231" r="1.5" fill="#dffaff" fill-opacity="0.18"/><circle cx="845" cy="433" r="2" fill="#dffaff" fill-opacity="0.23"/><circle cx="515" cy="1001" r="2" fill="#dffaff" fill-opacity="0.18"/><circle cx="917" cy="980" r="1" fill="#dffaff" fill-opacity="0.22"/><circle cx="1163" cy="134" r="2" fill="#dffaff" fill-opacity="0.52"/><circle cx="1149" cy="701" r="2" fill="#dffaff" fill-opacity="0.35"/><circle cx="977" cy="26" r="2" fill="#dffaff" fill-opacity="0.27"/><circle cx="416" cy="495" r="2" fill="#dffaff" fill-opacity="0.34"/><circle cx="767" cy="817" r="1" fill="#dffaff" fill-opacity="0.47"/><circle cx="119" cy="462" r="2" fill="#dffaff" fill-opacity="0.15"/><circle cx="1349" cy="917" r="1" fill="#dffaff" fill-opacity="0.16"/><circle cx="686" cy="898" r="1" fill="#dffaff" fill-opacity="0.36"/><circle cx="1831" cy="1044" r="1.5" fill="#dffaff" fill-opacity="0.16"/><circle cx="1488" cy="681" r="2" fill="#dffaff" fill-opacity="0.46"/><circle cx="1820" cy="1003" r="2" fill="#dffaff" fill-opacity="0.29"/><circle cx="380" cy="971" r="1.5" fill="#dffaff" fill-opacity="0.28"/><circle cx="1803" cy="494" r="1" fill="#dffaff" fill-opacity="0.21"/><circle cx="163" cy="493" r="1" fill="#dffaff" fill-opacity="0.42"/><circle cx="1246" cy="476" r="1" fill="#dffaff" fill-opacity="0.12"/><circle cx="1548" cy="460" r="1" fill="#dffaff" fill-opacity="0.15"/><circle cx="1594" cy="1050" r="1" fill="#dffaff" fill-opacity="0.13"/><circle cx="1911" cy="912" r="1" fill="#dffaff" fill-opacity="0.23"/><circle cx="659" cy="389" r="1.5" fill="#dffaff" fill-opacity="0.32"/><circle cx="875" cy="385" r="1" fill="#dffaff" fill-opacity="0.29"/><circle cx="1049" cy="960" r="1" fill="#dffaff" fill-opacity="0.41"/><circle cx="1163" cy="376" r="1" fill="#dffaff" fill-opacity="0.26"/><circle cx="411" cy="224" r="2" fill="#dffaff" fill-opacity="0.48"/><circle cx="1555" cy="648" r="1" fill="#dffaff" fill-opacity="0.39"/><circle cx="196" cy="1017" r="1" fill="#dffaff" fill-opacity="0.28"/><circle cx="1847" cy="366" r="1" fill="#dffaff" fill-opacity="0.38"/><circle cx="1315" cy="512" r="2" fill="#dffaff" fill-opacity="0.19"/><circle cx="596" cy="310" r="1.5" fill="#dffaff" fill-opacity="0.24"/><circle cx="1031" cy="777" r="1.5" fill="#dffaff" fill-opacity="0.55"/><circle cx="269" cy="930" r="1" fill="#dffaff" fill-opacity="0.17"/><circle cx="845" cy="701" r="1" fill="#dffaff" fill-opacity="0.29"/><circle cx="187" cy="570" r="1" fill="#dffaff" fill-opacity="0.12"/><circle cx="1582" cy="359" r="1" fill="#dffaff" fill-opacity="0.28"/><circle cx="269" cy="1025" r="1" fill="#dffaff" fill-opacity="0.42"/><circle cx="188" cy="277" r="2" fill="#dffaff" fill-opacity="0.35"/><circle cx="1178" cy="350" r="1" fill="#dffaff" fill-opacity="0.41"/><circle cx="722" cy="320" r="1" fill="#dffaff" fill-opacity="0.21"/><circle cx="241" cy="791" r="1" fill="#dffaff" fill-opacity="0.10"/><circle cx="608" cy="182" r="2" fill="#dffaff" fill-opacity="0.39"/><circle cx="1376" cy="495" r="1.5" fill="#dffaff" fill-opacity="0.35"/><circle cx="671" cy="169" r="1" fill="#dffaff" fill-opacity="0.53"/><circle cx="1059" cy="617" r="1" fill="#dffaff" fill-opacity="0.47"/><circle cx="1353" cy="701" r="1.5" fill="#dffaff" fill-opacity="0.50"/><circle cx="600" cy="248" r="1" fill="#dffaff" fill-opacity="0.15"/><circle cx="1306" cy="798" r="2" fill="#dffaff" fill-opacity="0.47"/><circle cx="245" cy="23" r="1.5" fill="#dffaff" fill-opacity="0.11"/><circle cx="1034" cy="342" r="1.5" fill="#dffaff" fill-opacity="0.26"/><circle cx="126" cy="696" r="1" fill="#dffaff" fill-opacity="0.16"/></g>
<g fill="none" stroke="#76eaff" stroke-opacity=".24" stroke-width="2"><circle cx="1280" cy="430" r="250"/><circle cx="1280" cy="430" r="165"/><circle cx="1280" cy="430" r="85"/><path d="M1030 430h500M1280 180v500"/><path d="M1280 430l190-150" stroke="#ffbd61" stroke-opacity=".45"/></g>
<g font-family="Arial, Helvetica, sans-serif" letter-spacing="8" fill="#dffaff">
 <text x="90" y="885" font-size="38" font-weight="700" fill-opacity=".3">COMMAND DASHBOARD</text>
 <text x="94" y="930" font-size="16" fill="#76eaff" fill-opacity=".32">FLEET STATUS GRID</text>
</g>
<path d="M90 965h560" stroke="#ffbd61" stroke-opacity=".25" stroke-width="3"/>
</svg>