<svg xmlns="http://www.w3.org/2000/svg" viewBox="0 0 1920 1080" role="img" aria-label="DIPLOMACY background">
<defs>
 <linearGradient id="bg" x1="0" y1="0" x2="1" y2="1"><stop stop-color="#02070c"/><stop offset=".48" stop-color="#071827"/><stop offset="1" stop-color="#02060a"/></linearGradient>
 <radialGradient id="glow"><stop stop-color="#21b9d8" stop-opacity=".22"/><stop offset="1" stop-color="#21b9d8" stop-opacity="0"/></radialGradient>
 <pattern id="grid" width="72" height="72" patternUnits="userSpaceOnUse"><path d="M72 0H0V72" fill="none" stroke="#7cecff" stroke-opacity=".035"/></pattern>
</defs>
<rect width="1920" height="1080" fill="url(#bg)"/>
<rect width="1920" height="1080" fill="url(#grid)"/>
<ellipse cx="1320" cy="430" rx="620" ry="520" fill="url(#glow)"/>
<g><circle cx="814" cy="826" r="1" fill="#dffaff" fill-opacity="0.25"/><circle cx="462" cy="614" r="1.5" fill="#dffaff" fill-opacity="0.50"/><circle cx="270" cy="465" r="1" fill="#dffaff" fill-opacity="0.17"/><circle cx="131" cy="64" r="1" fill="#dffaff" fill-opacity="0.43"/><circle cx="1044" cy="355" r="2" fill="#dffaff" fill-opacity="0.43"/><circle cx="765" cy="724" r="1.5" fill="#dffaff" fill-opacity="0.24"/><circle cx="1892" cy="307" r="1.5" fill="#dffaff" fill-opacity="0.36"/><circle cx="60" cy="205" r="1" fill="#dffaff" fill-opacity="0.22"/><circle cx="1121" cy="407" r="2" fill="#dffaff" fill-opacity="0.50"/><circle cx="610" cy="45" r="1.5" fill="#dffaff" fill-opacity="0.19"/><circle cx="1192" cy="395" r="1.5" fill="#dffaff" fill-opacity="0.33"/><circle cx="1621" cy="132" r="1.5" fill="#dffaff" fill-opacity="0.49"/><circle cx="1276" cy="282" r="1" fill="#dffaff" fill-opacity="0.55"/><circle cx="1009" cy="713" r="1" fill="#dffaff" fill-opacity="0.33"/><circle cx="1890" cy="979" r="1" fill="#dffaff" fill-opacity="0.47"/><circle cx="1231" cy="713" r="1" fill="#dffaff" fill-opacity="0.22"/><circle cx="1089" cy="964" r="1" fill="#dffaff" fill-opacity="0.20"/><circle cx="501" cy="437" r="2" fill="#dffaff" fill-opacity="0.43"/><circle cx="1455" cy="392" r="1" fill="#dffaff" fill-opacity="0.37"/><circle cx="1691" cy="1053" r="1.5" fill="#dffaff" fill-opacity="0.34"/><circle cx="567" cy="538" r="1.5" fill="#dffaff" fill-opacity="0.10"/><circle cx="945" cy="237" r="1" fill="#dffaff" fill-opacity="0.22"/><circle cx="685" cy="931" r="2" fill="#dffaff" fill-opacity="0.27"/><circle cx="496" cy="627" r="2" fill="#dffaff" fill-opacity="0.13"/><circle cx="1717" cy="661" r="1" fill="#dffaff" fill-opacity="0.47"/><circle cx="1358" cy="517" r="1.5" fill="#dffaff" fill-opacity="0.53"/><circle cx="417" cy="309" r="1" fill="#dffaff" fill-opacity="0.31"/><circle cx="385" cy="40" r="1" fill="#dffaff" fill-opacity="0.38"/><circle cx="1354" cy="1037" r="1" fill="#dffaff" fill-opacity="0.29"/><circle cx="1430" cy="610" r="2" fill="#dffaff" fill-opacity="0.42"/><circle cx="1017" cy="692" r="1" fill="#dffaff" fill-opacity="0.13"/><circle cx="1892" cy="124" r="1.5" fill="#dffaff" fill-opacity="0.46"/><circle cx="983" cy="47" r="1.5" fill="#dffaff" fill-opacity="0.37"/><circle cx="1799" cy="925" r="1" fill="#dffaff" fill-opacity="0.29"/><circle cx="75" cy="580" r="1" fill="#dffaff" fill-opacity="0.45"/><circle cx="773" cy="16" r="1" fill="#dffaff" fill-opacity="0.40"/><circle cx="8" cy="151" r="1" fill="#dffaff" fill-opacity="0.37"/><circle cx="500" cy="969" r="1" fill="#dffaff" fill-opacity="0.09"/><circle cx="1427" cy="661" r="1" fill="#dffaff" fill-opacity="0.51"/><circle cx="555" cy="99" r="1.5" fill="#dffaff" fill-opacity="0.45"/><circle cx="1505" cy="661" r="1" fill="#dffaff" fill-opacity="0.19"/><circle cx="1634" cy="351" r="1" fill="#dffaff" fill-opacity="0.27"/><circle cx="1509" cy="670" r="1" fill="#dffaff" fill-opacity="0.39"/><circle cx="1560" cy="886" r="1.5" fill="#dffaff" fill-opacity="0.15"/><circle cx="839" cy="579" r="1" fill="#dffaff" fill-opacity="0.36"/><circle cx="1383" cy="553" r="1" fill="#dffaff" fill-opacity="0.09"/><circle cx="531" cy="1030" r="1" fill="#dffaff" fill-opacity="0.32"/><circle cx="139" cy="266" r="1" fill="#dffaff" fill-opacity="0.39"/><circle cx="1694" cy="903" r="1" fill="#dffaff" fill-opacity="0.35"/><circle cx="1308" cy="1056" r="1.5" fill="#dffaff" fill-opacity="0.47"/><circle cx="67" cy="400" r="1" fill="#dffaff" fill-opacity="0.30"/><circle cx="1459" cy="647" r="2" fill="#dffaff" fill-opacity="0.40"/><circle cx="58" cy="256" r="1" fill="#dffaff" fill-opacity="0.42"/><circle cx="781" cy="220" r="1" fill="#dffaff" fill-opacity="0.28"/><circle cx="1779" cy="17" r="2" fill="#dffaff" fill-opacity="0.44"/><circle cx="653" cy="894" r="1" fill="#dffaff" fill-opacity="0.51"/><circle cx="87" cy="680" r="2" fill="#dffaff" fill-opacity="0.30"/><circle cx="1174" cy="422" r="1" fill="#dffaff" fill-opacity="0.53"/><circle cx="1906" cy="652" r="1" fill="#dffaff" fill-opacity="0.34"/><circle cx="1046" cy="485" r="1" fill="#dffaff" fill-opacity="0.24"/><circle cx="156" cy="846" r="1.5" fill="#dffaff" fill-opacity="0.08"/><circle cx="873" cy="146" r="1.5" fill="#dffaff" fill-opacity="0.48"/><circle cx="1355" cy="1039" r="1.5" fill="#dffaff" fill-opacity="0.11"/><circle cx="702" cy="933" r="1" fill="#dffaff" fill-opacity="0.25"/><circle cx="815" cy="186" r="1.5" fill="#dffaff" fill-opacity="0.20"/><circle cx="1563" cy="87" r="1.5" fill="#dffaff" fill-opacity="0.21"/><circle cx="50" cy="156" r="1" fill="#dffaff" fill-opacity="0.28"/><circle cx="271" cy="147" r="1.5" fill="#dffaff" fill-opacity="0.38"/><circle cx="513" cy="758" r="1" fill="#dffaff" fill-opacity="0.49"/><circle cx="1720" cy="624" r="1" fill="#dffaff" fill-opacity="0.37"/><circle cx="1048" cy="692" r="2" fill="#dffaff" fill-opacity="0.30"/><circle cx="933" cy="477" r="1.5" fill="#dffaff" fill-opacity="0.49"/><circle cx="225" cy="291" r="1.5" fill="#dffaff" fill-opacity="0.20"/><circle cx="854" cy="1047" r="1" fill="#dffaff" fill-opacity="0.27"/><circle cx="1894" cy="419" r="1.5" fill="#dffaff" fill-opacity="0.48"/><circle cx="348" cy="944" r="2" fill="#dffaff" fill-opacity="0.47"/><circle cx="308" cy="1019" r="2" fill="#dffaff" fill-opacity="0.16"/><circle cx="128" cy="548" r="1.5" fill="#dffaff" fill-opacity="0.44"/><circle cx="1046" cy="97" r="1" fill="#dffaff" fill-opacity="0.33"/><circle cx="644" cy="674" r="2" fill="#dffaff" fill-opacity="0.10"/><circle cx="152" cy="790" r="1" fill="#dffaff" fill-opacity="0.17"/><circle cx="1534" cy="684" r="2" fill="#dffaff" fill-opacity="0.19"/><circle cx="1323" cy="674" r="1" fill="#dffaff" fill-opacity="0.51"/><circle cx="1027" cy="635" r="1" fill="#dffaff" fill-opacity="0.42"/><circle cx="394" cy="517" r="1" fill="#dffaff" fill-opacity="0.41"/><circle cx="814" cy="323" r="1" fill="#dffaff" fill-opacity="0.29"/><circle cx="222" cy="340" r="2" fill="#dffaff" fill-opacity="0.14"/><circle cx="1093" cy="517" r="1" fill="#dffaff" fill-opacity="0.31"/><circle cx="1759" cy="300" r="1.5" fill="#dffaff" fill-opacity="0.22"/><circle cx="36" cy="97" r="1" fill="#dffaff" fill-opacity="0.48"/><circle cx="770" cy="195" r="1" fill="#dffaff" fill-opacity="0.20"/><circle cx="614" cy="36" r="2" fill="#dffaff" fill-opacity="0.38"/><circle cx="117" cy="483" r="1.5" fill="#dffaff" fill-opacity="0.47"/><circle cx="1041" cy="588" r="1" fill="#dffaff" fill-opacity="0.32"/><circle cx="814" cy="546" r="1" fill="#dffaff" fill-opacity="0.54"/><circle cx="1533" cy="915" r="1" fill="#dffaff" fill-opacity="0.40"/><circle cx="1431" cy="771" r="1.5" fill="#dffaff" fill-opacity="0.08"/><circle cx="177" cy="878" r="1" fill="#dffaff" fill-opacity="0.38"/><circle cx="227" cy="674" r="1" fill="#dffaff" fill-opacity="0.45"/><circle cx="1763" cy="154" r="1" fill="#dffaff" fill-opacity="0.12"/><circle cx="1730" cy="710" r="1" fill="#dffaff" fill-opacity="0.19"/><circle cx="130" cy="43" r="1" fill="#dffaff" fill-opacity="0.43"/><circle cx="1726" cy="367" r="1" fill="#dffaff" fill-opacity="0.23"/><circle cx="1119" cy="651" r="1" fill="#dffaff" fill-opacity="0.15"/><circle cx="1678" cy="287" r="1" fill="#dffaff" fill-opacity="0.20"/><circle cx="1503" cy="453" r="2" fill="#dffaff" fill-opacity="0.35"/><circle cx="953" cy="1072" r="1" fill="#dffaff" fill-opacity="0.34"/><circle cx="501" cy="198" r="1" fill="#dffaff" fill-opacity="0.54"/><circle cx="590" cy="282" r="1" fill="#dffaff" fill-opacity="0.19"/><circle cx="887" cy="900" r="1" fill="#dffaff" fill-opacity="0.13"/><circle cx="1509" cy="640" r="1" fill="#dffaff" fill-opacity="0.33"/><circle cx="827" cy="136" r="1.5" fill="#dffaff" fill-opacity="0.09"/><circle cx="1235" cy="911" r="1" fill="#dffaff" fill-opacity="0.51"/><circle cx="1813" cy="670" r="1" fill="#dffaff" fill-opacity="0.31"/><circle cx="944" cy="831" r="1" fill="#dffaff" fill-opacity="0.12"/><circle cx="724" cy="77" r="2" fill="#dffaff" fill-opacity="0.46"/><circle cx="462" cy="940" r="1" fill="#dffaff" fill-opacity="0.08"/><circle cx="72" cy="597" r="1" fill="#dffaff" fill-opacity="0.08"/><circle cx="1066" cy="948" r="1" fill="#dffaff" fill-opacity="0.10"/><circle cx="1206" cy="809" r="1.5" fill="#dffaff" fill-opacity="0.40"/></g>
<g fill="none" stroke="#76eaff" stroke-opacity=".24" stroke-width="2"><circle cx="1080" cy="280" r="20"/><circle cx="1280" cy="190" r="20"/><circle cx="1470" cy="320" r="20"/><circle cx="1450" cy="550" r="20"/><circle cx="1230" cy="650" r="20"/><circle cx="1040" cy="520" r="20"/><circle cx="1280" cy="420" r="20"/><path d="M1080 280L1280 190"/><path d="M1280 190L1470 320"/><path d="M1470 320L1450 550"/><path d="M1450 550L1230 650"/><path d="M1230 650L1040 520"/><path d="M1040 520L1080 280"/><path d="M1080 280L1280 420"/><path d="M1280 190L1280 420"/><path d="M1470 320L1280 420"/><path d="M1450 550L1280 420"/><path d="M1230 650L1280 420"/><path d="M1040 520L1280 420"/></g>
<g font-family="Arial, Helvetica, sans-serif" letter-spacing="8" fill="#dffaff">
 <text x="90" y="885" font-size="38" font-weight="700" fill-opacity=".3">DIPLOMACY</text>
 <text x="94" y="930" font-size="16" fill="#76eaff" fill-opacity=".32">ALLIANCE NETWORK</text>
</g>
<path d="M90 965h560" stroke="#ffbd61" stroke-opacity=".25" stroke-width="3"/>
</svg>