<svg xmlns="http://www.w3.org/2000/svg" viewBox="0 0 1920 1080" role="img" aria-label="ENGINEERING background">
<defs>
 <linearGradient id="bg" x1="0" y1="0" x2="1" y2="1"><stop stop-color="#02070c"/><stop offset=".48" stop-color="#071827"/><stop offset="1" stop-color="#02060a"/></linearGradient>
 <radialGradient id="glow"><stop stop-color="#21b9d8" stop-opacity=".22"/><stop offset="1" stop-color="#21b9d8" stop-opacity="0"/></radialGradient>
 <pattern id="grid" width="72" height="72" patternUnits="userSpaceOnUse"><path d="M72 0H0V72" fill="none" stroke="#7cecff" stroke-opacity=".035"/></pattern>
</defs>
<rect width="1920" height="1080" fill="url(#bg)"/>
<rect width="1920" height="1080" fill="url(#grid)"/>
<ellipse cx="1320" cy="430" rx="620" ry="520" fill="url(#glow)"/>
<g><circle cx="1105" cy="1019" r="1.5" fill="#dffaff" fill-opacity="0.44"/><circle cx="779" cy="844" r="1.5" fill="#dffaff" fill-opacity="0.22"/><circle cx="600" cy="517" r="1.5" fill="#dffaff" fill-opacity="0.37"/><circle cx="315" cy="807" r="1" fill="#dffaff" fill-opacity="0.23"/><circle cx="1090" cy="343" r="1" fill="#dffaff" fill-opacity="0.52"/><circle cx="1541" cy="307" r="1" fill="#dffaff" fill-opacity="0.38"/><circle cx="1520" cy="884" r="1" fill="#dffaff" fill-opacity="0.12"/><circle cx="1889" cy="227" r="1.5" fill="#dffaff" fill-opacity="0.48"/><circle cx="1193" cy="612" r="2" fill="#dffaff" fill-opacity="0.40"/><circle cx="1299" cy="935" r="1" fill="#dffaff" fill-opacity="0.49"/><circle cx="1296" cy="95" r="1" fill="#dffaff" fill-opacity="0.31"/><circle cx="559" cy="801" r="2" fill="#dffaff" fill-opacity="0.21"/><circle cx="1038" cy="215" r="1.5" fill="#dffaff" fill-opacity="0.51"/><circle cx="1915" cy="384" r="1" fill="#dffaff" fill-opacity="0.35"/><circle cx="1610" cy="645" r="1" fill="#dffaff" fill-opacity="0.13"/><circle cx="966" cy="605" r="1.5" fill="#dffaff" fill-opacity="0.30"/><circle cx="933" cy="785" r="1" fill="#dffaff" fill-opacity="0.25"/><circle cx="1055" cy="533" r="1" fill="#dffaff" fill-opacity="0.21"/><circle cx="1834" cy="555" r="1" fill="#dffaff" fill-opacity="0.49"/><circle cx="91" cy="710" r="1" fill="#dffaff" fill-opacity="0.27"/><circle cx="1058" cy="960" r="2" fill="#dffaff" fill-opacity="0.49"/><circle cx="1420" cy="350" r="2" fill="#dffaff" fill-opacity="0.29"/><circle cx="1411" cy="189" r="1.5" fill="#dffaff" fill-opacity="0.30"/><circle cx="260" cy="322" r="1.5" fill="#dffaff" fill-opacity="0.49"/><circle cx="1357" cy="320" r="1.5" fill="#dffaff" fill-opacity="0.44"/><circle cx="1150" cy="283" r="1" fill="#dffaff" fill-opacity="0.27"/><circle cx="880" cy="881" r="1" fill="#dffaff" fill-opacity="0.38"/><circle cx="1820" cy="385" r="1.5" fill="#dffaff" fill-opacity="0.20"/><circle cx="571" cy="193" r="1" fill="#dffaff" fill-opacity="0.54"/><circle cx="1005" cy="861" r="2" fill="#dffaff" fill-opacity="0.26"/><circle cx="1515" cy="371" r="2" fill="#dffaff" fill-opacity="0.45"/><circle cx="1656" cy="220" r="1.5" fill="#dffaff" fill-opacity="0.36"/><circle cx="1710" cy="64" r="2" fill="#dffaff" fill-opacity="0.17"/><circle cx="525" cy="774" r="1" fill="#dffaff" fill-opacity="0.54"/><circle cx="508" cy="223" r="1" fill="#dffaff" fill-opacity="0.12"/><circle cx="361" cy="388" r="1.5" fill="#dffaff" fill-opacity="0.28"/><circle cx="1311" cy="0" r="1" fill="#dffaff" fill-opacity="0.17"/><circle cx="1375" cy="776" r="1.5" fill="#dffaff" fill-opacity="0.23"/><circle cx="437" cy="161" r="1.5" fill="#dffaff" fill-opacity="0.53"/><circle cx="224" cy="649" r="1" fill="#dffaff" fill-opacity="0.18"/><circle cx="116" cy="1018" r="1" fill="#dffaff" fill-opacity="0.09"/><circle cx="1284" cy="642" r="1" fill="#dffaff" fill-opacity="0.23"/><circle cx="1308" cy="25" r="2" fill="#dffaff" fill-opacity="0.52"/><circle cx="256" cy="530" r="1.5" fill="#dffaff" fill-opacity="0.48"/><circle cx="1711" cy="72" r="1" fill="#dffaff" fill-opacity="0.13"/><circle cx="1804" cy="20" r="1" fill="#dffaff" fill-opacity="0.50"/><circle cx="822" cy="976" r="1.5" fill="#dffaff" fill-opacity="0.26"/><circle cx="1308" cy="783" r="1" fill="#dffaff" fill-opacity="0.13"/><circle cx="101" cy="915" r="1" fill="#dffaff" fill-opacity="0.33"/><circle cx="506" cy="302" r="2" fill="#dffaff" fill-opacity="0.32"/><circle cx="119" cy="979" r="2" fill="#dffaff" fill-opacity="0.19"/><circle cx="505" cy="797" r="1" fill="#dffaff" fill-opacity="0.52"/><circle cx="1888" cy="826" r="1" fill="#dffaff" fill-opacity="0.11"/><circle cx="1005" cy="772" r="2" fill="#dffaff" fill-opacity="0.27"/><circle cx="1677" cy="862" r="1.5" fill="#dffaff" fill-opacity="0.25"/><circle cx="550" cy="394" r="1" fill="#dffaff" fill-opacity="0.50"/><circle cx="837" cy="1000" r="2" fill="#dffaff" fill-opacity="0.32"/><circle cx="1754" cy="969" r="1" fill="#dffaff" fill-opacity="0.36"/><circle cx="613" cy="354" r="1" fill="#dffaff" fill-opacity="0.33"/><circle cx="1819" cy="233" r="1" fill="#dffaff" fill-opacity="0.12"/><circle cx="897" cy="1001" r="2" fill="#dffaff" fill-opacity="0.40"/><circle cx="659" cy="722" r="1" fill="#dffaff" fill-opacity="0.25"/><circle cx="637" cy="688" r="1" fill="#dffaff" fill-opacity="0.52"/><circle cx="1091" cy="488" r="2" fill="#dffaff" fill-opacity="0.48"/><circle cx="881" cy="959" r="1.5" fill="#dffaff" fill-opacity="0.53"/><circle cx="1695" cy="316" r="1" fill="#dffaff" fill-opacity="0.14"/><circle cx="988" cy="1028" r="1" fill="#dffaff" fill-opacity="0.39"/><circle cx="1644" cy="220" r="1" fill="#dffaff" fill-opacity="0.44"/><circle cx="1020" cy="990" r="1" fill="#dffaff" fill-opacity="0.26"/><circle cx="1737" cy="395" r="1" fill="#dffaff" fill-opacity="0.32"/><circle cx="689" cy="1022" r="1" fill="#dffaff" fill-opacity="0.33"/><circle cx="966" cy="1069" r="1.5" fill="#dffaff" fill-opacity="0.47"/><circle cx="1304" cy="660" r="1" fill="#dffaff" fill-opacity="0.37"/><circle cx="640" cy="1078" r="1" fill="#dffaff" fill-opacity="0.10"/><circle cx="1504" cy="1006" r="1" fill="#dffaff" fill-opacity="0.12"/><circle cx="328" cy="1061" r="1" fill="#dffaff" fill-opacity="0.45"/><circle cx="1324" cy="660" r="1" fill="#dffaff" fill-opacity="0.53"/><circle cx="763" cy="679" r="1" fill="#dffaff" fill-opacity="0.30"/><circle cx="1246" cy="662" r="1.5" fill="#dffaff" fill-opacity="0.25"/><circle cx="242" cy="651" r="1" fill="#dffaff" fill-opacity="0.09"/><circle cx="1174" cy="729" r="1" fill="#dffaff" fill-opacity="0.54"/><circle cx="736" cy="912" r="1" fill="#dffaff" fill-opacity="0.25"/><circle cx="836" cy="797" r="1" fill="#dffaff" fill-opacity="0.32"/><circle cx="182" cy="37" r="1" fill="#dffaff" fill-opacity="0.13"/><circle cx="124" cy="239" r="1" fill="#dffaff" fill-opacity="0.54"/><circle cx="1199" cy="692" r="1" fill="#dffaff" fill-opacity="0.28"/><circle cx="129" cy="254" r="1.5" fill="#dffaff" fill-opacity="0.53"/><circle cx="1177" cy="698" r="1" fill="#dffaff" fill-opacity="0.21"/><circle cx="1901" cy="43" r="1" fill="#dffaff" fill-opacity="0.42"/><circle cx="1854" cy="554" r="1.5" fill="#dffaff" fill-opacity="0.55"/><circle cx="1698" cy="826" r="2" fill="#dffaff" fill-opacity="0.20"/><circle cx="1008" cy="158" r="1" fill="#dffaff" fill-opacity="0.10"/><circle cx="1729" cy="842" r="1.5" fill="#dffaff" fill-opacity="0.22"/><circle cx="1905" cy="51" r="1" fill="#dffaff" fill-opacity="0.30"/><circle cx="710" cy="878" r="1" fill="#dffaff" fill-opacity="0.43"/><circle cx="1681" cy="28" r="1" fill="#dffaff" fill-opacity="0.10"/><circle cx="254" cy="178" r="1" fill="#dffaff" fill-opacity="0.24"/><circle cx="1194" cy="512" r="1.5" fill="#dffaff" fill-opacity="0.33"/><circle cx="645" cy="856" r="1.5" fill="#dffaff" fill-opacity="0.34"/><circle cx="80" cy="1056" r="1" fill="#dffaff" fill-opacity="0.09"/><circle cx="1266" cy="184" r="1" fill="#dffaff" fill-opacity="0.39"/><circle cx="1149" cy="1027" r="2" fill="#dffaff" fill-opacity="0.42"/><circle cx="1843" cy="660" r="1" fill="#dffaff" fill-opacity="0.49"/><circle cx="1234" cy="999" r="1" fill="#dffaff" fill-opacity="0.17"/><circle cx="420" cy="709" r="2" fill="#dffaff" fill-opacity="0.26"/><circle cx="1422" cy="910" r="1" fill="#dffaff" fill-opacity="0.14"/><circle cx="626" cy="866" r="1.5" fill="#dffaff" fill-opacity="0.29"/><circle cx="449" cy="863" r="1" fill="#dffaff" fill-opacity="0.34"/><circle cx="312" cy="131" r="1.5" fill="#dffaff" fill-opacity="0.23"/><circle cx="393" cy="629" r="1" fill="#dffaff" fill-opacity="0.13"/><circle cx="329" cy="517" r="1" fill="#dffaff" fill-opacity="0.26"/><circle cx="353" cy="18" r="1" fill="#dffaff" fill-opacity="0.51"/><circle cx="491" cy="533" r="1.5" fill="#dffaff" fill-opacity="0.36"/><circle cx="984" cy="858" r="2" fill="#dffaff" fill-opacity="0.15"/><circle cx="242" cy="591" r="1" fill="#dffaff" fill-opacity="0.19"/><circle cx="94" cy="33" r="1" fill="#dffaff" fill-opacity="0.35"/><circle cx="726" cy="363" r="1" fill="#dffaff" fill-opacity="0.27"/><circle cx="686" cy="426" r="1" fill="#dffaff" fill-opacity="0.53"/><circle cx="874" cy="949" r="1" fill="#dffaff" fill-opacity="0.16"/><circle cx="1816" cy="927" r="1.5" fill="#dffaff" fill-opacity="0.47"/></g>
<g fill="none" stroke="#76eaff" stroke-opacity=".24" stroke-width="2"><circle cx="1280" cy="420" r="205"/><path d="M1280 170v95M1280 575v95M1030 420h95M1435 420h95M1105 245l68 68M1387 527l68 68M1455 245l-68 68M1173 527l-68 68"/><path d="M1225 315h110l55 95-55 95h-110l-55-95z" stroke="#ffbd61" stroke-opacity=".4"/></g>
<g font-family="Arial, Helvetica, sans-serif" letter-spacing="8" fill="#dffaff">
 <text x="90" y="885" font-size="38" font-weight="700" fill-opacity=".3">ENGINEERING</text>
 <text x="94" y="930" font-size="16" fill="#76eaff" fill-opacity=".32">POWER & DAMAGE CONTROL</text>
</g>
<path d="M90 965h560" stroke="#ffbd61" stroke-opacity=".25" stroke-width="3"/>
</svg>