<svg xmlns="http://www.w3.org/2000/svg" viewBox="0 0 1920 1080" role="img" aria-labelledby="t d">
<title id="t">EQUIPMENT KITS</title><desc id="d">Abstract original science-fiction interface background for the Free Navy portal.</desc>
<defs><radialGradient id="g" cx="72%" cy="42%"><stop stop-color="#34d399" stop-opacity=".30"/><stop offset=".5" stop-color="#071927" stop-opacity=".64"/><stop offset="1" stop-color="#02070c"/></radialGradient><linearGradient id="l" x1="0" x2="1"><stop stop-color="#02070c"/><stop offset=".55" stop-color="#071927"/><stop offset="1" stop-color="#0b2332"/></linearGradient><filter id="blur"><feGaussianBlur stdDeviation="16"/></filter></defs>
<rect width="1920" height="1080" fill="url(#l)"/><rect width="1920" height="1080" fill="url(#g)"/>
<g opacity=".16" stroke="#34d399" fill="none"><circle cx="1420" cy="480" r="310"/><circle cx="1420" cy="480" r="220"/><circle cx="1420" cy="480" r="130"/><path d="M1040 480h760M1420 100v760"/><path d="M1040 760L1680 160M1120 170l610 620"/></g>
<g opacity=".12" stroke="#d9f7ff"><path d="M0 890L510 500l350 130 420-330 640 260"/><path d="M0 930L500 545l365 135 430-330 625 260"/></g>
<g transform="translate(1320 380)"><circle r="128" fill="#02070c" fill-opacity=".66" stroke="#34d399" stroke-opacity=".42"/><text text-anchor="middle" y="35" font-size="118" font-family="Arial, sans-serif" fill="#34d399" fill-opacity=".72">⬡</text></g>
<g font-family="Arial, sans-serif" fill="#dff8ff"><text x="112" y="835" font-size="24" letter-spacing="9" opacity=".45">FREE NAVY // EQUIPMENT KITS</text><text x="112" y="885" font-size="13" letter-spacing="5" opacity=".28">SECURE ORGANISATION COMMAND NETWORK</text></g>
<g opacity=".08" stroke="#34d399"><path d="M0 0v1080"/><path d="M96 0v1080"/><path d="M192 0v1080"/><path d="M288 0v1080"/><path d="M384 0v1080"/><path d="M480 0v1080"/><path d="M576 0v1080"/><path d="M672 0v1080"/><path d="M768 0v1080"/><path d="M864 0v1080"/><path d="M960 0v1080"/><path d="M1056 0v1080"/><path d="M1152 0v1080"/><path d="M1248 0v1080"/><path d="M1344 0v1080"/><path d="M1440 0v1080"/><path d="M1536 0v1080"/><path d="M1632 0v1080"/><path d="M1728 0v1080"/><path d="M1824 0v1080"/><path d="M1920 0v1080"/><path d="M0 0h1920"/><path d="M0 96h1920"/><path d="M0 192h1920"/><path d="M0 288h1920"/><path d="M0 384h1920"/><path d="M0 480h1920"/><path d="M0 576h1920"/><path d="M0 672h1920"/><path d="M0 768h1920"/><path d="M0 864h1920"/><path d="M0 960h1920"/><path d="M0 1056h1920"/></g></svg>