<svg xmlns="http://www.w3.org/2000/svg" viewBox="0 0 1920 1080" role="img" aria-label="FLEET REGISTRY background">
<defs>
 <linearGradient id="bg" x1="0" y1="0" x2="1" y2="1"><stop stop-color="#02070c"/><stop offset=".48" stop-color="#071827"/><stop offset="1" stop-color="#02060a"/></linearGradient>
 <radialGradient id="glow"><stop stop-color="#21b9d8" stop-opacity=".22"/><stop offset="1" stop-color="#21b9d8" stop-opacity="0"/></radialGradient>
 <pattern id="grid" width="72" height="72" patternUnits="userSpaceOnUse"><path d="M72 0H0V72" fill="none" stroke="#7cecff" stroke-opacity=".035"/></pattern>
</defs>
<rect width="1920" height="1080" fill="url(#bg)"/>
<rect width="1920" height="1080" fill="url(#grid)"/>
<ellipse cx="1320" cy="430" rx="620" ry="520" fill="url(#glow)"/>
<g><circle cx="1792" cy="986" r="1" fill="#dffaff" fill-opacity="0.54"/><circle cx="1521" cy="858" r="1" fill="#dffaff" fill-opacity="0.37"/><circle cx="1459" cy="290" r="1" fill="#dffaff" fill-opacity="0.39"/><circle cx="328" cy="619" r="1" fill="#dffaff" fill-opacity="0.36"/><circle cx="886" cy="942" r="1" fill="#dffaff" fill-opacity="0.42"/><circle cx="1812" cy="397" r="1" fill="#dffaff" fill-opacity="0.53"/><circle cx="736" cy="985" r="1" fill="#dffaff" fill-opacity="0.45"/><circle cx="337" cy="426" r="1.5" fill="#dffaff" fill-opacity="0.18"/><circle cx="1796" cy="536" r="1" fill="#dffaff" fill-opacity="0.17"/><circle cx="1316" cy="473" r="1" fill="#dffaff" fill-opacity="0.39"/><circle cx="308" cy="1074" r="2" fill="#dffaff" fill-opacity="0.40"/><circle cx="225" cy="705" r="1.5" fill="#dffaff" fill-opacity="0.26"/><circle cx="605" cy="430" r="1" fill="#dffaff" fill-opacity="0.46"/><circle cx="681" cy="455" r="1" fill="#dffaff" fill-opacity="0.21"/><circle cx="1616" cy="342" r="1" fill="#dffaff" fill-opacity="0.40"/><circle cx="279" cy="421" r="1" fill="#dffaff" fill-opacity="0.50"/><circle cx="263" cy="4" r="1" fill="#dffaff" fill-opacity="0.48"/><circle cx="1606" cy="143" r="1" fill="#dffaff" fill-opacity="0.10"/><circle cx="1219" cy="219" r="2" fill="#dffaff" fill-opacity="0.08"/><circle cx="1647" cy="226" r="1" fill="#dffaff" fill-opacity="0.28"/><circle cx="1396" cy="745" r="1" fill="#dffaff" fill-opacity="0.24"/><circle cx="1329" cy="766" r="2" fill="#dffaff" fill-opacity="0.25"/><circle cx="1383" cy="317" r="1.5" fill="#dffaff" fill-opacity="0.54"/><circle cx="655" cy="435" r="1" fill="#dffaff" fill-opacity="0.47"/><circle cx="1083" cy="547" r="1" fill="#dffaff" fill-opacity="0.11"/><circle cx="82" cy="1040" r="1.5" fill="#dffaff" fill-opacity="0.18"/><circle cx="1653" cy="116" r="1" fill="#dffaff" fill-opacity="0.31"/><circle cx="429" cy="29" r="2" fill="#dffaff" fill-opacity="0.42"/><circle cx="1417" cy="867" r="1" fill="#dffaff" fill-opacity="0.17"/><circle cx="1721" cy="563" r="1" fill="#dffaff" fill-opacity="0.31"/><circle cx="1066" cy="115" r="1" fill="#dffaff" fill-opacity="0.43"/><circle cx="1063" cy="512" r="2" fill="#dffaff" fill-opacity="0.10"/><circle cx="586" cy="391" r="1" fill="#dffaff" fill-opacity="0.31"/><circle cx="379" cy="31" r="1.5" fill="#dffaff" fill-opacity="0.22"/><circle cx="1640" cy="1057" r="2" fill="#dffaff" fill-opacity="0.50"/><circle cx="619" cy="57" r="1" fill="#dffaff" fill-opacity="0.49"/><circle cx="145" cy="865" r="2" fill="#dffaff" fill-opacity="0.22"/><circle cx="736" cy="546" r="2" fill="#dffaff" fill-opacity="0.13"/><circle cx="632" cy="366" r="1.5" fill="#dffaff" fill-opacity="0.40"/><circle cx="1712" cy="291" r="1" fill="#dffaff" fill-opacity="0.42"/><circle cx="587" cy="289" r="1" fill="#dffaff" fill-opacity="0.50"/><circle cx="1558" cy="445" r="1" fill="#dffaff" fill-opacity="0.40"/><circle cx="1745" cy="839" r="2" fill="#dffaff" fill-opacity="0.38"/><circle cx="853" cy="774" r="1.5" fill="#dffaff" fill-opacity="0.29"/><circle cx="939" cy="133" r="1" fill="#dffaff" fill-opacity="0.40"/><circle cx="1110" cy="521" r="2" fill="#dffaff" fill-opacity="0.11"/><circle cx="1505" cy="650" r="2" fill="#dffaff" fill-opacity="0.52"/><circle cx="1236" cy="758" r="1" fill="#dffaff" fill-opacity="0.15"/><circle cx="647" cy="516" r="2" fill="#dffaff" fill-opacity="0.30"/><circle cx="145" cy="398" r="1" fill="#dffaff" fill-opacity="0.32"/><circle cx="1171" cy="317" r="2" fill="#dffaff" fill-opacity="0.12"/><circle cx="448" cy="677" r="1" fill="#dffaff" fill-opacity="0.29"/><circle cx="1463" cy="751" r="1" fill="#dffaff" fill-opacity="0.48"/><circle cx="1109" cy="788" r="1.5" fill="#dffaff" fill-opacity="0.26"/><circle cx="1335" cy="1055" r="1" fill="#dffaff" fill-opacity="0.46"/><circle cx="888" cy="873" r="1.5" fill="#dffaff" fill-opacity="0.37"/><circle cx="1323" cy="350" r="1" fill="#dffaff" fill-opacity="0.49"/><circle cx="1294" cy="721" r="2" fill="#dffaff" fill-opacity="0.20"/><circle cx="1274" cy="97" r="1" fill="#dffaff" fill-opacity="0.32"/><circle cx="105" cy="827" r="1" fill="#dffaff" fill-opacity="0.45"/><circle cx="607" cy="379" r="1.5" fill="#dffaff" fill-opacity="0.15"/><circle cx="791" cy="435" r="1" fill="#dffaff" fill-opacity="0.27"/><circle cx="1436" cy="48" r="1" fill="#dffaff" fill-opacity="0.19"/><circle cx="1527" cy="899" r="1" fill="#dffaff" fill-opacity="0.24"/><circle cx="1440" cy="610" r="1" fill="#dffaff" fill-opacity="0.24"/><circle cx="1084" cy="1060" r="1" fill="#dffaff" fill-opacity="0.33"/><circle cx="492" cy="448" r="1.5" fill="#dffaff" fill-opacity="0.51"/><circle cx="1043" cy="233" r="2" fill="#dffaff" fill-opacity="0.10"/><circle cx="47" cy="388" r="1.5" fill="#dffaff" fill-opacity="0.21"/><circle cx="412" cy="1047" r="1" fill="#dffaff" fill-opacity="0.19"/><circle cx="789" cy="62" r="1" fill="#dffaff" fill-opacity="0.28"/><circle cx="1163" cy="1012" r="1" fill="#dffaff" fill-opacity="0.40"/><circle cx="474" cy="410" r="1.5" fill="#dffaff" fill-opacity="0.43"/><circle cx="880" cy="460" r="2" fill="#dffaff" fill-opacity="0.19"/><circle cx="768" cy="873" r="1" fill="#dffaff" fill-opacity="0.28"/><circle cx="1009" cy="44" r="1" fill="#dffaff" fill-opacity="0.29"/><circle cx="1320" cy="351" r="2" fill="#dffaff" fill-opacity="0.52"/><circle cx="1201" cy="1068" r="1.5" fill="#dffaff" fill-opacity="0.40"/><circle cx="920" cy="119" r="1.5" fill="#dffaff" fill-opacity="0.40"/><circle cx="372" cy="579" r="1" fill="#dffaff" fill-opacity="0.32"/><circle cx="683" cy="644" r="1" fill="#dffaff" fill-opacity="0.48"/><circle cx="1638" cy="637" r="2" fill="#dffaff" fill-opacity="0.54"/><circle cx="474" cy="489" r="1" fill="#dffaff" fill-opacity="0.43"/><circle cx="476" cy="565" r="2" fill="#dffaff" fill-opacity="0.48"/><circle cx="1776" cy="703" r="1" fill="#dffaff" fill-opacity="0.15"/><circle cx="291" cy="876" r="1" fill="#dffaff" fill-opacity="0.40"/><circle cx="278" cy="364" r="1.5" fill="#dffaff" fill-opacity="0.26"/><circle cx="950" cy="254" r="2" fill="#dffaff" fill-opacity="0.46"/><circle cx="706" cy="398" r="2" fill="#dffaff" fill-opacity="0.41"/><circle cx="871" cy="761" r="1" fill="#dffaff" fill-opacity="0.16"/><circle cx="1324" cy="396" r="1.5" fill="#dffaff" fill-opacity="0.33"/><circle cx="1294" cy="610" r="1.5" fill="#dffaff" fill-opacity="0.27"/><circle cx="878" cy="766" r="1" fill="#dffaff" fill-opacity="0.47"/><circle cx="530" cy="242" r="1" fill="#dffaff" fill-opacity="0.40"/><circle cx="1854" cy="334" r="1.5" fill="#dffaff" fill-opacity="0.36"/><circle cx="789" cy="504" r="1.5" fill="#dffaff" fill-opacity="0.17"/><circle cx="1712" cy="217" r="1" fill="#dffaff" fill-opacity="0.14"/><circle cx="1862" cy="836" r="1.5" fill="#dffaff" fill-opacity="0.45"/><circle cx="1809" cy="128" r="2" fill="#dffaff" fill-opacity="0.43"/><circle cx="1256" cy="770" r="1" fill="#dffaff" fill-opacity="0.50"/><circle cx="850" cy="925" r="1" fill="#dffaff" fill-opacity="0.51"/><circle cx="585" cy="727" r="1" fill="#dffaff" fill-opacity="0.48"/><circle cx="1680" cy="744" r="1" fill="#dffaff" fill-opacity="0.39"/><circle cx="743" cy="915" r="2" fill="#dffaff" fill-opacity="0.48"/><circle cx="1725" cy="395" r="2" fill="#dffaff" fill-opacity="0.45"/><circle cx="657" cy="943" r="2" fill="#dffaff" fill-opacity="0.09"/><circle cx="95" cy="611" r="1" fill="#dffaff" fill-opacity="0.20"/><circle cx="1041" cy="230" r="1" fill="#dffaff" fill-opacity="0.44"/><circle cx="831" cy="812" r="2" fill="#dffaff" fill-opacity="0.19"/><circle cx="1336" cy="354" r="2" fill="#dffaff" fill-opacity="0.38"/><circle cx="118" cy="231" r="1" fill="#dffaff" fill-opacity="0.22"/><circle cx="1725" cy="876" r="2" fill="#dffaff" fill-opacity="0.24"/><circle cx="1431" cy="136" r="1" fill="#dffaff" fill-opacity="0.41"/><circle cx="627" cy="734" r="1" fill="#dffaff" fill-opacity="0.24"/><circle cx="1551" cy="432" r="1.5" fill="#dffaff" fill-opacity="0.47"/><circle cx="1697" cy="674" r="1.5" fill="#dffaff" fill-opacity="0.52"/><circle cx="1095" cy="1024" r="1" fill="#dffaff" fill-opacity="0.38"/><circle cx="162" cy="781" r="1" fill="#dffaff" fill-opacity="0.18"/><circle cx="730" cy="28" r="1" fill="#dffaff" fill-opacity="0.49"/><circle cx="1475" cy="414" r="1.5" fill="#dffaff" fill-opacity="0.38"/></g>
<g fill="none" stroke="#76eaff" stroke-opacity=".24" stroke-width="2"><path d="M1040 510l165-85 75-190 75 190 165 85-175 10-65 135-65-135z"/><path d="M1205 425h150M1145 520l-65 85M1415 520l65 85"/></g>
<g font-family="Arial, Helvetica, sans-serif" letter-spacing="8" fill="#dffaff">
 <text x="90" y="885" font-size="38" font-weight="700" fill-opacity=".3">FLEET REGISTRY</text>
 <text x="94" y="930" font-size="16" fill="#76eaff" fill-opacity=".32">HANGAR READINESS</text>
</g>
<path d="M90 965h560" stroke="#ffbd61" stroke-opacity=".25" stroke-width="3"/>
</svg>