<svg xmlns="http://www.w3.org/2000/svg" viewBox="0 0 1920 1080" role="img" aria-label="INTELLIGENCE background">
<defs>
 <linearGradient id="bg" x1="0" y1="0" x2="1" y2="1"><stop stop-color="#02070c"/><stop offset=".48" stop-color="#071827"/><stop offset="1" stop-color="#02060a"/></linearGradient>
 <radialGradient id="glow"><stop stop-color="#21b9d8" stop-opacity=".22"/><stop offset="1" stop-color="#21b9d8" stop-opacity="0"/></radialGradient>
 <pattern id="grid" width="72" height="72" patternUnits="userSpaceOnUse"><path d="M72 0H0V72" fill="none" stroke="#7cecff" stroke-opacity=".035"/></pattern>
</defs>
<rect width="1920" height="1080" fill="url(#bg)"/>
<rect width="1920" height="1080" fill="url(#grid)"/>
<ellipse cx="1320" cy="430" rx="620" ry="520" fill="url(#glow)"/>
<g><circle cx="814" cy="387" r="1" fill="#dffaff" fill-opacity="0.15"/><circle cx="1113" cy="541" r="2" fill="#dffaff" fill-opacity="0.44"/><circle cx="564" cy="149" r="1" fill="#dffaff" fill-opacity="0.41"/><circle cx="156" cy="638" r="1" fill="#dffaff" fill-opacity="0.43"/><circle cx="393" cy="917" r="1" fill="#dffaff" fill-opacity="0.30"/><circle cx="1072" cy="175" r="1.5" fill="#dffaff" fill-opacity="0.32"/><circle cx="1915" cy="825" r="1" fill="#dffaff" fill-opacity="0.24"/><circle cx="1911" cy="555" r="1.5" fill="#dffaff" fill-opacity="0.37"/><circle cx="816" cy="527" r="1" fill="#dffaff" fill-opacity="0.36"/><circle cx="995" cy="6" r="2" fill="#dffaff" fill-opacity="0.47"/><circle cx="1811" cy="934" r="1" fill="#dffaff" fill-opacity="0.48"/><circle cx="369" cy="121" r="1" fill="#dffaff" fill-opacity="0.10"/><circle cx="310" cy="723" r="1" fill="#dffaff" fill-opacity="0.39"/><circle cx="1803" cy="737" r="1" fill="#dffaff" fill-opacity="0.44"/><circle cx="1590" cy="79" r="1" fill="#dffaff" fill-opacity="0.46"/><circle cx="259" cy="422" r="1.5" fill="#dffaff" fill-opacity="0.43"/><circle cx="523" cy="412" r="1" fill="#dffaff" fill-opacity="0.16"/><circle cx="590" cy="725" r="1" fill="#dffaff" fill-opacity="0.15"/><circle cx="781" cy="911" r="2" fill="#dffaff" fill-opacity="0.21"/><circle cx="992" cy="159" r="1.5" fill="#dffaff" fill-opacity="0.12"/><circle cx="368" cy="3" r="2" fill="#dffaff" fill-opacity="0.44"/><circle cx="1057" cy="21" r="1.5" fill="#dffaff" fill-opacity="0.47"/><circle cx="1505" cy="309" r="2" fill="#dffaff" fill-opacity="0.19"/><circle cx="512" cy="8" r="1" fill="#dffaff" fill-opacity="0.16"/><circle cx="1635" cy="513" r="1" fill="#dffaff" fill-opacity="0.28"/><circle cx="926" cy="659" r="1" fill="#dffaff" fill-opacity="0.53"/><circle cx="1753" cy="902" r="1" fill="#dffaff" fill-opacity="0.39"/><circle cx="1643" cy="106" r="1.5" fill="#dffaff" fill-opacity="0.34"/><circle cx="958" cy="451" r="1" fill="#dffaff" fill-opacity="0.17"/><circle cx="1249" cy="605" r="2" fill="#dffaff" fill-opacity="0.27"/><circle cx="625" cy="910" r="1" fill="#dffaff" fill-opacity="0.55"/><circle cx="1152" cy="484" r="1" fill="#dffaff" fill-opacity="0.30"/><circle cx="812" cy="188" r="1" fill="#dffaff" fill-opacity="0.15"/><circle cx="554" cy="850" r="2" fill="#dffaff" fill-opacity="0.32"/><circle cx="997" cy="342" r="1" fill="#dffaff" fill-opacity="0.51"/><circle cx="368" cy="920" r="1.5" fill="#dffaff" fill-opacity="0.49"/><circle cx="592" cy="949" r="1.5" fill="#dffaff" fill-opacity="0.18"/><circle cx="1752" cy="559" r="2" fill="#dffaff" fill-opacity="0.49"/><circle cx="1776" cy="366" r="1" fill="#dffaff" fill-opacity="0.10"/><circle cx="363" cy="631" r="2" fill="#dffaff" fill-opacity="0.20"/><circle cx="1276" cy="442" r="1" fill="#dffaff" fill-opacity="0.54"/><circle cx="1108" cy="876" r="2" fill="#dffaff" fill-opacity="0.12"/><circle cx="1174" cy="173" r="1.5" fill="#dffaff" fill-opacity="0.37"/><circle cx="1220" cy="1011" r="1.5" fill="#dffaff" fill-opacity="0.28"/><circle cx="1536" cy="232" r="2" fill="#dffaff" fill-opacity="0.17"/><circle cx="734" cy="1024" r="1" fill="#dffaff" fill-opacity="0.12"/><circle cx="503" cy="928" r="1" fill="#dffaff" fill-opacity="0.29"/><circle cx="90" cy="1068" r="1" fill="#dffaff" fill-opacity="0.27"/><circle cx="1251" cy="899" r="1.5" fill="#dffaff" fill-opacity="0.43"/><circle cx="1821" cy="1077" r="1" fill="#dffaff" fill-opacity="0.09"/><circle cx="977" cy="950" r="2" fill="#dffaff" fill-opacity="0.40"/><circle cx="520" cy="383" r="1" fill="#dffaff" fill-opacity="0.44"/><circle cx="58" cy="260" r="1" fill="#dffaff" fill-opacity="0.44"/><circle cx="1378" cy="237" r="2" fill="#dffaff" fill-opacity="0.19"/><circle cx="156" cy="1067" r="1" fill="#dffaff" fill-opacity="0.24"/><circle cx="636" cy="630" r="1" fill="#dffaff" fill-opacity="0.10"/><circle cx="24" cy="813" r="1.5" fill="#dffaff" fill-opacity="0.51"/><circle cx="905" cy="79" r="2" fill="#dffaff" fill-opacity="0.31"/><circle cx="1378" cy="368" r="1" fill="#dffaff" fill-opacity="0.46"/><circle cx="51" cy="381" r="1" fill="#dffaff" fill-opacity="0.47"/><circle cx="1799" cy="962" r="1" fill="#dffaff" fill-opacity="0.44"/><circle cx="483" cy="727" r="1" fill="#dffaff" fill-opacity="0.54"/><circle cx="1127" cy="41" r="1.5" fill="#dffaff" fill-opacity="0.20"/><circle cx="1610" cy="590" r="1" fill="#dffaff" fill-opacity="0.16"/><circle cx="1052" cy="610" r="1" fill="#dffaff" fill-opacity="0.49"/><circle cx="1239" cy="31" r="2" fill="#dffaff" fill-opacity="0.12"/><circle cx="1894" cy="877" r="1" fill="#dffaff" fill-opacity="0.42"/><circle cx="1868" cy="823" r="1" fill="#dffaff" fill-opacity="0.12"/><circle cx="1258" cy="931" r="2" fill="#dffaff" fill-opacity="0.16"/><circle cx="288" cy="513" r="1" fill="#dffaff" fill-opacity="0.44"/><circle cx="758" cy="222" r="2" fill="#dffaff" fill-opacity="0.44"/><circle cx="1703" cy="98" r="2" fill="#dffaff" fill-opacity="0.39"/><circle cx="1903" cy="609" r="1" fill="#dffaff" fill-opacity="0.25"/><circle cx="532" cy="844" r="1.5" fill="#dffaff" fill-opacity="0.47"/><circle cx="612" cy="718" r="1" fill="#dffaff" fill-opacity="0.36"/><circle cx="1205" cy="737" r="1.5" fill="#dffaff" fill-opacity="0.48"/><circle cx="1421" cy="172" r="2" fill="#dffaff" fill-opacity="0.27"/><circle cx="1820" cy="998" r="2" fill="#dffaff" fill-opacity="0.11"/><circle cx="268" cy="768" r="1" fill="#dffaff" fill-opacity="0.16"/><circle cx="138" cy="946" r="1" fill="#dffaff" fill-opacity="0.20"/><circle cx="80" cy="229" r="2" fill="#dffaff" fill-opacity="0.24"/><circle cx="1207" cy="78" r="2" fill="#dffaff" fill-opacity="0.24"/><circle cx="1275" cy="1022" r="1.5" fill="#dffaff" fill-opacity="0.52"/><circle cx="1313" cy="102" r="1" fill="#dffaff" fill-opacity="0.29"/><circle cx="1829" cy="1070" r="2" fill="#dffaff" fill-opacity="0.22"/><circle cx="941" cy="355" r="2" fill="#dffaff" fill-opacity="0.21"/><circle cx="186" cy="397" r="1.5" fill="#dffaff" fill-opacity="0.17"/><circle cx="59" cy="227" r="1.5" fill="#dffaff" fill-opacity="0.46"/><circle cx="518" cy="434" r="1" fill="#dffaff" fill-opacity="0.48"/><circle cx="685" cy="233" r="1" fill="#dffaff" fill-opacity="0.46"/><circle cx="1248" cy="245" r="1" fill="#dffaff" fill-opacity="0.29"/><circle cx="1314" cy="133" r="1.5" fill="#dffaff" fill-opacity="0.12"/><circle cx="487" cy="117" r="1" fill="#dffaff" fill-opacity="0.12"/><circle cx="1662" cy="693" r="1.5" fill="#dffaff" fill-opacity="0.47"/><circle cx="366" cy="378" r="1" fill="#dffaff" fill-opacity="0.33"/><circle cx="1163" cy="174" r="1" fill="#dffaff" fill-opacity="0.54"/><circle cx="279" cy="1061" r="2" fill="#dffaff" fill-opacity="0.40"/><circle cx="1011" cy="888" r="1" fill="#dffaff" fill-opacity="0.08"/><circle cx="1380" cy="447" r="1" fill="#dffaff" fill-opacity="0.14"/><circle cx="622" cy="884" r="2" fill="#dffaff" fill-opacity="0.46"/><circle cx="824" cy="157" r="2" fill="#dffaff" fill-opacity="0.48"/><circle cx="1845" cy="2" r="1" fill="#dffaff" fill-opacity="0.51"/><circle cx="1204" cy="1073" r="2" fill="#dffaff" fill-opacity="0.39"/><circle cx="1765" cy="847" r="1.5" fill="#dffaff" fill-opacity="0.25"/><circle cx="666" cy="517" r="1" fill="#dffaff" fill-opacity="0.30"/><circle cx="351" cy="1066" r="1.5" fill="#dffaff" fill-opacity="0.26"/><circle cx="387" cy="790" r="1.5" fill="#dffaff" fill-opacity="0.48"/><circle cx="1464" cy="1069" r="1" fill="#dffaff" fill-opacity="0.43"/><circle cx="840" cy="227" r="2" fill="#dffaff" fill-opacity="0.52"/><circle cx="61" cy="202" r="1" fill="#dffaff" fill-opacity="0.32"/><circle cx="1599" cy="641" r="2" fill="#dffaff" fill-opacity="0.47"/><circle cx="612" cy="878" r="1" fill="#dffaff" fill-opacity="0.19"/><circle cx="1248" cy="154" r="1" fill="#dffaff" fill-opacity="0.22"/><circle cx="1231" cy="435" r="1" fill="#dffaff" fill-opacity="0.24"/><circle cx="1814" cy="710" r="1" fill="#dffaff" fill-opacity="0.28"/><circle cx="1045" cy="318" r="2" fill="#dffaff" fill-opacity="0.22"/><circle cx="1757" cy="595" r="1" fill="#dffaff" fill-opacity="0.52"/><circle cx="1408" cy="891" r="2" fill="#dffaff" fill-opacity="0.52"/><circle cx="439" cy="908" r="1" fill="#dffaff" fill-opacity="0.23"/><circle cx="1469" cy="787" r="1" fill="#dffaff" fill-opacity="0.44"/></g>
<g fill="none" stroke="#76eaff" stroke-opacity=".24" stroke-width="2"><path d="M1000 615l110-285 170-115 170 115 110 285-280-105z"/><circle cx="1280" cy="410" r="75"/><path d="M1080 515l200-105 200 105" stroke-dasharray="10 10"/></g>
<g font-family="Arial, Helvetica, sans-serif" letter-spacing="8" fill="#dffaff">
 <text x="90" y="885" font-size="38" font-weight="700" fill-opacity=".3">INTELLIGENCE</text>
 <text x="94" y="930" font-size="16" fill="#76eaff" fill-opacity=".32">RECONNAISSANCE LAYER</text>
</g>
<path d="M90 965h560" stroke="#ffbd61" stroke-opacity=".25" stroke-width="3"/>
</svg>