<svg xmlns="http://www.w3.org/2000/svg" viewBox="0 0 1920 1080" role="img" aria-label="ADMIN CONTROL background">
<defs>
 <linearGradient id="bg" x1="0" y1="0" x2="1" y2="1"><stop stop-color="#02070c"/><stop offset=".48" stop-color="#071827"/><stop offset="1" stop-color="#02060a"/></linearGradient>
 <radialGradient id="glow"><stop stop-color="#21b9d8" stop-opacity=".22"/><stop offset="1" stop-color="#21b9d8" stop-opacity="0"/></radialGradient>
 <pattern id="grid" width="72" height="72" patternUnits="userSpaceOnUse"><path d="M72 0H0V72" fill="none" stroke="#7cecff" stroke-opacity=".035"/></pattern>
</defs>
<rect width="1920" height="1080" fill="url(#bg)"/>
<rect width="1920" height="1080" fill="url(#grid)"/>
<ellipse cx="1320" cy="430" rx="620" ry="520" fill="url(#glow)"/>
<g><circle cx="701" cy="383" r="1.5" fill="#dffaff" fill-opacity="0.48"/><circle cx="520" cy="33" r="1" fill="#dffaff" fill-opacity="0.16"/><circle cx="304" cy="413" r="1.5" fill="#dffaff" fill-opacity="0.36"/><circle cx="1912" cy="27" r="1" fill="#dffaff" fill-opacity="0.09"/><circle cx="756" cy="36" r="1" fill="#dffaff" fill-opacity="0.28"/><circle cx="479" cy="325" r="1" fill="#dffaff" fill-opacity="0.55"/><circle cx="151" cy="779" r="1.5" fill="#dffaff" fill-opacity="0.18"/><circle cx="1064" cy="589" r="1.5" fill="#dffaff" fill-opacity="0.30"/><circle cx="397" cy="230" r="2" fill="#dffaff" fill-opacity="0.54"/><circle cx="1550" cy="8" r="1" fill="#dffaff" fill-opacity="0.47"/><circle cx="1897" cy="102" r="1" fill="#dffaff" fill-opacity="0.29"/><circle cx="80" cy="807" r="1" fill="#dffaff" fill-opacity="0.26"/><circle cx="518" cy="824" r="1" fill="#dffaff" fill-opacity="0.19"/><circle cx="1172" cy="399" r="1.5" fill="#dffaff" fill-opacity="0.42"/><circle cx="150" cy="497" r="1.5" fill="#dffaff" fill-opacity="0.42"/><circle cx="1662" cy="696" r="2" fill="#dffaff" fill-opacity="0.55"/><circle cx="1819" cy="1014" r="1" fill="#dffaff" fill-opacity="0.19"/><circle cx="1022" cy="430" r="1" fill="#dffaff" fill-opacity="0.26"/><circle cx="644" cy="10" r="1.5" fill="#dffaff" fill-opacity="0.15"/><circle cx="1562" cy="580" r="1.5" fill="#dffaff" fill-opacity="0.48"/><circle cx="978" cy="367" r="1" fill="#dffaff" fill-opacity="0.29"/><circle cx="232" cy="45" r="1" fill="#dffaff" fill-opacity="0.42"/><circle cx="961" cy="547" r="2" fill="#dffaff" fill-opacity="0.49"/><circle cx="1226" cy="567" r="1.5" fill="#dffaff" fill-opacity="0.41"/><circle cx="1380" cy="205" r="1.5" fill="#dffaff" fill-opacity="0.33"/><circle cx="1706" cy="154" r="1.5" fill="#dffaff" fill-opacity="0.27"/><circle cx="1412" cy="281" r="2" fill="#dffaff" fill-opacity="0.26"/><circle cx="518" cy="285" r="1.5" fill="#dffaff" fill-opacity="0.36"/><circle cx="1119" cy="724" r="1.5" fill="#dffaff" fill-opacity="0.12"/><circle cx="1730" cy="698" r="1.5" fill="#dffaff" fill-opacity="0.45"/><circle cx="1665" cy="1012" r="1" fill="#dffaff" fill-opacity="0.42"/><circle cx="415" cy="752" r="1.5" fill="#dffaff" fill-opacity="0.38"/><circle cx="208" cy="193" r="1.5" fill="#dffaff" fill-opacity="0.24"/><circle cx="868" cy="1056" r="2" fill="#dffaff" fill-opacity="0.32"/><circle cx="606" cy="951" r="1.5" fill="#dffaff" fill-opacity="0.27"/><circle cx="1618" cy="526" r="1" fill="#dffaff" fill-opacity="0.52"/><circle cx="861" cy="684" r="1" fill="#dffaff" fill-opacity="0.24"/><circle cx="1714" cy="537" r="1" fill="#dffaff" fill-opacity="0.47"/><circle cx="560" cy="865" r="2" fill="#dffaff" fill-opacity="0.33"/><circle cx="1275" cy="851" r="1" fill="#dffaff" fill-opacity="0.41"/><circle cx="1196" cy="263" r="1" fill="#dffaff" fill-opacity="0.54"/><circle cx="987" cy="609" r="1.5" fill="#dffaff" fill-opacity="0.44"/><circle cx="657" cy="766" r="1.5" fill="#dffaff" fill-opacity="0.12"/><circle cx="1050" cy="439" r="1.5" fill="#dffaff" fill-opacity="0.25"/><circle cx="1562" cy="792" r="1" fill="#dffaff" fill-opacity="0.26"/><circle cx="787" cy="1021" r="1" fill="#dffaff" fill-opacity="0.53"/><circle cx="100" cy="324" r="1.5" fill="#dffaff" fill-opacity="0.23"/><circle cx="255" cy="664" r="1" fill="#dffaff" fill-opacity="0.42"/><circle cx="1547" cy="495" r="1" fill="#dffaff" fill-opacity="0.42"/><circle cx="808" cy="804" r="1" fill="#dffaff" fill-opacity="0.21"/><circle cx="1362" cy="589" r="1" fill="#dffaff" fill-opacity="0.55"/><circle cx="484" cy="944" r="1" fill="#dffaff" fill-opacity="0.44"/><circle cx="1527" cy="1037" r="1" fill="#dffaff" fill-opacity="0.40"/><circle cx="436" cy="197" r="1" fill="#dffaff" fill-opacity="0.12"/><circle cx="1031" cy="306" r="1.5" fill="#dffaff" fill-opacity="0.34"/><circle cx="539" cy="730" r="1.5" fill="#dffaff" fill-opacity="0.25"/><circle cx="1667" cy="450" r="1" fill="#dffaff" fill-opacity="0.30"/><circle cx="344" cy="1036" r="1" fill="#dffaff" fill-opacity="0.09"/><circle cx="68" cy="576" r="1.5" fill="#dffaff" fill-opacity="0.39"/><circle cx="393" cy="414" r="1" fill="#dffaff" fill-opacity="0.12"/><circle cx="268" cy="613" r="1" fill="#dffaff" fill-opacity="0.15"/><circle cx="954" cy="635" r="1" fill="#dffaff" fill-opacity="0.35"/><circle cx="1344" cy="742" r="1" fill="#dffaff" fill-opacity="0.40"/><circle cx="1259" cy="753" r="1" fill="#dffaff" fill-opacity="0.46"/><circle cx="1175" cy="358" r="1" fill="#dffaff" fill-opacity="0.32"/><circle cx="599" cy="337" r="1.5" fill="#dffaff" fill-opacity="0.17"/><circle cx="882" cy="485" r="1" fill="#dffaff" fill-opacity="0.50"/><circle cx="132" cy="991" r="1" fill="#dffaff" fill-opacity="0.14"/><circle cx="1297" cy="74" r="1" fill="#dffaff" fill-opacity="0.41"/><circle cx="867" cy="971" r="1" fill="#dffaff" fill-opacity="0.38"/><circle cx="1550" cy="540" r="1.5" fill="#dffaff" fill-opacity="0.21"/><circle cx="1779" cy="514" r="1" fill="#dffaff" fill-opacity="0.54"/><circle cx="1066" cy="916" r="1" fill="#dffaff" fill-opacity="0.19"/><circle cx="1330" cy="834" r="1.5" fill="#dffaff" fill-opacity="0.51"/><circle cx="805" cy="111" r="1.5" fill="#dffaff" fill-opacity="0.14"/><circle cx="1160" cy="730" r="2" fill="#dffaff" fill-opacity="0.23"/><circle cx="923" cy="944" r="1" fill="#dffaff" fill-opacity="0.28"/><circle cx="1603" cy="986" r="1" fill="#dffaff" fill-opacity="0.24"/><circle cx="464" cy="201" r="1" fill="#dffaff" fill-opacity="0.39"/><circle cx="1555" cy="131" r="2" fill="#dffaff" fill-opacity="0.13"/><circle cx="41" cy="931" r="1" fill="#dffaff" fill-opacity="0.29"/><circle cx="217" cy="701" r="2" fill="#dffaff" fill-opacity="0.08"/><circle cx="1582" cy="401" r="1" fill="#dffaff" fill-opacity="0.52"/><circle cx="837" cy="843" r="2" fill="#dffaff" fill-opacity="0.43"/><circle cx="99" cy="612" r="1" fill="#dffaff" fill-opacity="0.45"/><circle cx="1376" cy="1025" r="2" fill="#dffaff" fill-opacity="0.48"/><circle cx="526" cy="405" r="1.5" fill="#dffaff" fill-opacity="0.42"/><circle cx="1097" cy="788" r="1" fill="#dffaff" fill-opacity="0.45"/><circle cx="902" cy="1042" r="1" fill="#dffaff" fill-opacity="0.14"/><circle cx="22" cy="350" r="1" fill="#dffaff" fill-opacity="0.23"/><circle cx="124" cy="388" r="1" fill="#dffaff" fill-opacity="0.23"/><circle cx="925" cy="1056" r="1" fill="#dffaff" fill-opacity="0.41"/><circle cx="1395" cy="218" r="1" fill="#dffaff" fill-opacity="0.22"/><circle cx="1474" cy="960" r="1" fill="#dffaff" fill-opacity="0.33"/><circle cx="590" cy="147" r="1" fill="#dffaff" fill-opacity="0.48"/><circle cx="377" cy="936" r="1.5" fill="#dffaff" fill-opacity="0.14"/><circle cx="542" cy="758" r="1.5" fill="#dffaff" fill-opacity="0.28"/><circle cx="671" cy="967" r="2" fill="#dffaff" fill-opacity="0.18"/><circle cx="1843" cy="505" r="1.5" fill="#dffaff" fill-opacity="0.49"/><circle cx="1169" cy="941" r="1.5" fill="#dffaff" fill-opacity="0.46"/><circle cx="1783" cy="561" r="1.5" fill="#dffaff" fill-opacity="0.16"/><circle cx="1057" cy="831" r="1.5" fill="#dffaff" fill-opacity="0.49"/><circle cx="1306" cy="1006" r="1" fill="#dffaff" fill-opacity="0.27"/><circle cx="795" cy="456" r="1" fill="#dffaff" fill-opacity="0.26"/><circle cx="97" cy="1058" r="1" fill="#dffaff" fill-opacity="0.44"/><circle cx="746" cy="460" r="1" fill="#dffaff" fill-opacity="0.12"/><circle cx="611" cy="92" r="1" fill="#dffaff" fill-opacity="0.43"/><circle cx="1816" cy="383" r="1" fill="#dffaff" fill-opacity="0.17"/><circle cx="1052" cy="1059" r="1" fill="#dffaff" fill-opacity="0.48"/><circle cx="1264" cy="896" r="1.5" fill="#dffaff" fill-opacity="0.31"/><circle cx="506" cy="183" r="1" fill="#dffaff" fill-opacity="0.31"/><circle cx="1602" cy="1043" r="1" fill="#dffaff" fill-opacity="0.22"/><circle cx="97" cy="833" r="1" fill="#dffaff" fill-opacity="0.10"/><circle cx="947" cy="29" r="2" fill="#dffaff" fill-opacity="0.11"/><circle cx="1199" cy="145" r="1.5" fill="#dffaff" fill-opacity="0.39"/><circle cx="560" cy="585" r="1.5" fill="#dffaff" fill-opacity="0.46"/><circle cx="636" cy="89" r="2" fill="#dffaff" fill-opacity="0.34"/><circle cx="150" cy="372" r="1" fill="#dffaff" fill-opacity="0.13"/><circle cx="1793" cy="920" r="1.5" fill="#dffaff" fill-opacity="0.19"/><circle cx="793" cy="773" r="1" fill="#dffaff" fill-opacity="0.27"/></g>
<g fill="none" stroke="#76eaff" stroke-opacity=".24" stroke-width="2"><path d="M1115 380h330v260h-330zM1180 380v-80c0-70 45-125 100-125s100 55 100 125v80"/><circle cx="1280" cy="500" r="35"/><path d="M1280 535v55" stroke="#ffbd61" stroke-opacity=".5"/></g>
<g font-family="Arial, Helvetica, sans-serif" letter-spacing="8" fill="#dffaff">
 <text x="90" y="885" font-size="38" font-weight="700" fill-opacity=".3">ADMIN CONTROL</text>
 <text x="94" y="930" font-size="16" fill="#76eaff" fill-opacity=".32">RESTRICTED SYSTEMS</text>
</g>
<path d="M90 965h560" stroke="#ffbd61" stroke-opacity=".25" stroke-width="3"/>
</svg>