<svg xmlns="http://www.w3.org/2000/svg" viewBox="0 0 1920 1080" role="img" aria-label="TRAINING background">
<defs>
 <linearGradient id="bg" x1="0" y1="0" x2="1" y2="1"><stop stop-color="#02070c"/><stop offset=".48" stop-color="#071827"/><stop offset="1" stop-color="#02060a"/></linearGradient>
 <radialGradient id="glow"><stop stop-color="#21b9d8" stop-opacity=".22"/><stop offset="1" stop-color="#21b9d8" stop-opacity="0"/></radialGradient>
 <pattern id="grid" width="72" height="72" patternUnits="userSpaceOnUse"><path d="M72 0H0V72" fill="none" stroke="#7cecff" stroke-opacity=".035"/></pattern>
</defs>
<rect width="1920" height="1080" fill="url(#bg)"/>
<rect width="1920" height="1080" fill="url(#grid)"/>
<ellipse cx="1320" cy="430" rx="620" ry="520" fill="url(#glow)"/>
<g><circle cx="1459" cy="115" r="1" fill="#dffaff" fill-opacity="0.17"/><circle cx="1781" cy="502" r="1" fill="#dffaff" fill-opacity="0.17"/><circle cx="1275" cy="393" r="1.5" fill="#dffaff" fill-opacity="0.15"/><circle cx="732" cy="91" r="1" fill="#dffaff" fill-opacity="0.26"/><circle cx="1716" cy="766" r="1" fill="#dffaff" fill-opacity="0.48"/><circle cx="1474" cy="443" r="1" fill="#dffaff" fill-opacity="0.16"/><circle cx="1902" cy="67" r="1.5" fill="#dffaff" fill-opacity="0.34"/><circle cx="410" cy="458" r="1" fill="#dffaff" fill-opacity="0.10"/><circle cx="1648" cy="107" r="1.5" fill="#dffaff" fill-opacity="0.11"/><circle cx="1498" cy="779" r="1" fill="#dffaff" fill-opacity="0.24"/><circle cx="1085" cy="17" r="1" fill="#dffaff" fill-opacity="0.31"/><circle cx="1091" cy="1040" r="1" fill="#dffaff" fill-opacity="0.43"/><circle cx="1767" cy="439" r="1" fill="#dffaff" fill-opacity="0.51"/><circle cx="912" cy="726" r="1" fill="#dffaff" fill-opacity="0.15"/><circle cx="1076" cy="736" r="1" fill="#dffaff" fill-opacity="0.51"/><circle cx="1514" cy="857" r="1.5" fill="#dffaff" fill-opacity="0.18"/><circle cx="1490" cy="70" r="2" fill="#dffaff" fill-opacity="0.40"/><circle cx="539" cy="311" r="1" fill="#dffaff" fill-opacity="0.41"/><circle cx="650" cy="724" r="1" fill="#dffaff" fill-opacity="0.25"/><circle cx="141" cy="687" r="1" fill="#dffaff" fill-opacity="0.37"/><circle cx="766" cy="587" r="1" fill="#dffaff" fill-opacity="0.14"/><circle cx="1694" cy="812" r="1.5" fill="#dffaff" fill-opacity="0.55"/><circle cx="858" cy="217" r="1" fill="#dffaff" fill-opacity="0.45"/><circle cx="1576" cy="1004" r="1" fill="#dffaff" fill-opacity="0.33"/><circle cx="1479" cy="612" r="1" fill="#dffaff" fill-opacity="0.53"/><circle cx="780" cy="662" r="2" fill="#dffaff" fill-opacity="0.53"/><circle cx="1311" cy="771" r="1" fill="#dffaff" fill-opacity="0.48"/><circle cx="1004" cy="265" r="1.5" fill="#dffaff" fill-opacity="0.18"/><circle cx="1673" cy="476" r="1" fill="#dffaff" fill-opacity="0.51"/><circle cx="599" cy="764" r="1" fill="#dffaff" fill-opacity="0.09"/><circle cx="1773" cy="876" r="1" fill="#dffaff" fill-opacity="0.36"/><circle cx="1703" cy="693" r="1" fill="#dffaff" fill-opacity="0.28"/><circle cx="1132" cy="515" r="1" fill="#dffaff" fill-opacity="0.39"/><circle cx="1750" cy="770" r="1" fill="#dffaff" fill-opacity="0.34"/><circle cx="693" cy="1015" r="1.5" fill="#dffaff" fill-opacity="0.19"/><circle cx="1277" cy="631" r="1" fill="#dffaff" fill-opacity="0.37"/><circle cx="1052" cy="453" r="1" fill="#dffaff" fill-opacity="0.43"/><circle cx="533" cy="579" r="1.5" fill="#dffaff" fill-opacity="0.22"/><circle cx="1911" cy="781" r="1" fill="#dffaff" fill-opacity="0.49"/><circle cx="1752" cy="1012" r="1" fill="#dffaff" fill-opacity="0.10"/><circle cx="1452" cy="348" r="1.5" fill="#dffaff" fill-opacity="0.28"/><circle cx="1026" cy="380" r="1.5" fill="#dffaff" fill-opacity="0.11"/><circle cx="1221" cy="1015" r="1" fill="#dffaff" fill-opacity="0.31"/><circle cx="1505" cy="341" r="1" fill="#dffaff" fill-opacity="0.28"/><circle cx="494" cy="467" r="2" fill="#dffaff" fill-opacity="0.42"/><circle cx="96" cy="498" r="1" fill="#dffaff" fill-opacity="0.17"/><circle cx="1521" cy="51" r="1" fill="#dffaff" fill-opacity="0.34"/><circle cx="202" cy="906" r="1" fill="#dffaff" fill-opacity="0.28"/><circle cx="129" cy="563" r="1" fill="#dffaff" fill-opacity="0.45"/><circle cx="242" cy="565" r="2" fill="#dffaff" fill-opacity="0.20"/><circle cx="1653" cy="153" r="1.5" fill="#dffaff" fill-opacity="0.45"/><circle cx="1299" cy="538" r="2" fill="#dffaff" fill-opacity="0.11"/><circle cx="284" cy="928" r="1" fill="#dffaff" fill-opacity="0.40"/><circle cx="1597" cy="4" r="1" fill="#dffaff" fill-opacity="0.24"/><circle cx="1179" cy="63" r="1" fill="#dffaff" fill-opacity="0.50"/><circle cx="610" cy="105" r="1.5" fill="#dffaff" fill-opacity="0.13"/><circle cx="1427" cy="280" r="1" fill="#dffaff" fill-opacity="0.32"/><circle cx="1516" cy="957" r="1" fill="#dffaff" fill-opacity="0.22"/><circle cx="1813" cy="379" r="1" fill="#dffaff" fill-opacity="0.35"/><circle cx="1032" cy="243" r="1" fill="#dffaff" fill-opacity="0.32"/><circle cx="1313" cy="329" r="2" fill="#dffaff" fill-opacity="0.45"/><circle cx="1877" cy="183" r="1" fill="#dffaff" fill-opacity="0.28"/><circle cx="766" cy="609" r="2" fill="#dffaff" fill-opacity="0.14"/><circle cx="1648" cy="1071" r="1" fill="#dffaff" fill-opacity="0.18"/><circle cx="1505" cy="650" r="1" fill="#dffaff" fill-opacity="0.18"/><circle cx="1815" cy="1005" r="1" fill="#dffaff" fill-opacity="0.54"/><circle cx="667" cy="652" r="1" fill="#dffaff" fill-opacity="0.53"/><circle cx="1102" cy="619" r="1" fill="#dffaff" fill-opacity="0.46"/><circle cx="27" cy="49" r="1" fill="#dffaff" fill-opacity="0.31"/><circle cx="358" cy="450" r="1" fill="#dffaff" fill-opacity="0.10"/><circle cx="1641" cy="951" r="1" fill="#dffaff" fill-opacity="0.53"/><circle cx="270" cy="117" r="2" fill="#dffaff" fill-opacity="0.24"/><circle cx="674" cy="1024" r="1" fill="#dffaff" fill-opacity="0.41"/><circle cx="1656" cy="529" r="2" fill="#dffaff" fill-opacity="0.52"/><circle cx="522" cy="1009" r="1" fill="#dffaff" fill-opacity="0.31"/><circle cx="795" cy="433" r="2" fill="#dffaff" fill-opacity="0.11"/><circle cx="512" cy="846" r="1" fill="#dffaff" fill-opacity="0.45"/><circle cx="208" cy="965" r="1" fill="#dffaff" fill-opacity="0.33"/><circle cx="777" cy="270" r="1" fill="#dffaff" fill-opacity="0.16"/><circle cx="217" cy="941" r="2" fill="#dffaff" fill-opacity="0.41"/><circle cx="1745" cy="379" r="1.5" fill="#dffaff" fill-opacity="0.16"/><circle cx="298" cy="891" r="1" fill="#dffaff" fill-opacity="0.54"/><circle cx="219" cy="363" r="1" fill="#dffaff" fill-opacity="0.42"/><circle cx="1259" cy="83" r="1" fill="#dffaff" fill-opacity="0.22"/><circle cx="1639" cy="292" r="1" fill="#dffaff" fill-opacity="0.37"/><circle cx="896" cy="93" r="1" fill="#dffaff" fill-opacity="0.31"/><circle cx="1001" cy="383" r="2" fill="#dffaff" fill-opacity="0.19"/><circle cx="965" cy="937" r="2" fill="#dffaff" fill-opacity="0.37"/><circle cx="1873" cy="380" r="1" fill="#dffaff" fill-opacity="0.17"/><circle cx="1816" cy="970" r="2" fill="#dffaff" fill-opacity="0.26"/><circle cx="1759" cy="570" r="1" fill="#dffaff" fill-opacity="0.38"/><circle cx="502" cy="724" r="1" fill="#dffaff" fill-opacity="0.47"/><circle cx="1278" cy="442" r="1" fill="#dffaff" fill-opacity="0.37"/><circle cx="404" cy="220" r="1" fill="#dffaff" fill-opacity="0.18"/><circle cx="197" cy="120" r="1" fill="#dffaff" fill-opacity="0.27"/><circle cx="1081" cy="253" r="1" fill="#dffaff" fill-opacity="0.42"/><circle cx="1830" cy="215" r="1" fill="#dffaff" fill-opacity="0.32"/><circle cx="1330" cy="877" r="1" fill="#dffaff" fill-opacity="0.50"/><circle cx="1687" cy="1029" r="1" fill="#dffaff" fill-opacity="0.17"/><circle cx="1134" cy="956" r="1.5" fill="#dffaff" fill-opacity="0.55"/><circle cx="1735" cy="870" r="2" fill="#dffaff" fill-opacity="0.37"/><circle cx="452" cy="850" r="1" fill="#dffaff" fill-opacity="0.44"/><circle cx="1732" cy="563" r="1" fill="#dffaff" fill-opacity="0.52"/><circle cx="844" cy="596" r="1" fill="#dffaff" fill-opacity="0.23"/><circle cx="1041" cy="623" r="1" fill="#dffaff" fill-opacity="0.42"/><circle cx="602" cy="1026" r="1" fill="#dffaff" fill-opacity="0.35"/><circle cx="331" cy="527" r="1" fill="#dffaff" fill-opacity="0.15"/><circle cx="1161" cy="1079" r="2" fill="#dffaff" fill-opacity="0.54"/><circle cx="1033" cy="37" r="1" fill="#dffaff" fill-opacity="0.13"/><circle cx="1537" cy="381" r="1.5" fill="#dffaff" fill-opacity="0.41"/><circle cx="1202" cy="32" r="1" fill="#dffaff" fill-opacity="0.23"/><circle cx="1479" cy="1061" r="1" fill="#dffaff" fill-opacity="0.29"/><circle cx="1549" cy="393" r="2" fill="#dffaff" fill-opacity="0.38"/><circle cx="106" cy="509" r="1" fill="#dffaff" fill-opacity="0.14"/><circle cx="1612" cy="398" r="2" fill="#dffaff" fill-opacity="0.35"/><circle cx="667" cy="782" r="1.5" fill="#dffaff" fill-opacity="0.46"/><circle cx="1076" cy="451" r="2" fill="#dffaff" fill-opacity="0.10"/><circle cx="1708" cy="1045" r="1" fill="#dffaff" fill-opacity="0.09"/><circle cx="324" cy="155" r="1" fill="#dffaff" fill-opacity="0.17"/><circle cx="156" cy="587" r="1" fill="#dffaff" fill-opacity="0.31"/></g>
<g fill="none" stroke="#76eaff" stroke-opacity=".24" stroke-width="2"><path d="M1030 300h500v310h-500zM1085 355h390v165h-390zM1185 610v75M1375 610v75M1130 685h300"/><path d="M1215 420l55 35 85-85" stroke="#ffbd61" stroke-opacity=".5"/></g>
<g font-family="Arial, Helvetica, sans-serif" letter-spacing="8" fill="#dffaff">
 <text x="90" y="885" font-size="38" font-weight="700" fill-opacity=".3">TRAINING</text>
 <text x="94" y="930" font-size="16" fill="#76eaff" fill-opacity=".32">CREW CERTIFICATION</text>
</g>
<path d="M90 965h560" stroke="#ffbd61" stroke-opacity=".25" stroke-width="3"/>
</svg>