<svg xmlns="http://www.w3.org/2000/svg" viewBox="0 0 1920 1080" role="img" aria-label="MEMBER MARKET background">
<defs>
 <linearGradient id="bg" x1="0" y1="0" x2="1" y2="1"><stop stop-color="#02070c"/><stop offset=".48" stop-color="#071827"/><stop offset="1" stop-color="#02060a"/></linearGradient>
 <radialGradient id="glow"><stop stop-color="#21b9d8" stop-opacity=".22"/><stop offset="1" stop-color="#21b9d8" stop-opacity="0"/></radialGradient>
 <pattern id="grid" width="72" height="72" patternUnits="userSpaceOnUse"><path d="M72 0H0V72" fill="none" stroke="#7cecff" stroke-opacity=".035"/></pattern>
</defs>
<rect width="1920" height="1080" fill="url(#bg)"/>
<rect width="1920" height="1080" fill="url(#grid)"/>
<ellipse cx="1320" cy="430" rx="620" ry="520" fill="url(#glow)"/>
<g><circle cx="9" cy="260" r="1.5" fill="#dffaff" fill-opacity="0.22"/><circle cx="1262" cy="870" r="2" fill="#dffaff" fill-opacity="0.41"/><circle cx="1045" cy="198" r="1.5" fill="#dffaff" fill-opacity="0.33"/><circle cx="1693" cy="98" r="2" fill="#dffaff" fill-opacity="0.40"/><circle cx="793" cy="208" r="1" fill="#dffaff" fill-opacity="0.28"/><circle cx="1300" cy="120" r="1" fill="#dffaff" fill-opacity="0.47"/><circle cx="1518" cy="518" r="1" fill="#dffaff" fill-opacity="0.32"/><circle cx="549" cy="1004" r="1" fill="#dffaff" fill-opacity="0.25"/><circle cx="1401" cy="308" r="1" fill="#dffaff" fill-opacity="0.38"/><circle cx="800" cy="412" r="1.5" fill="#dffaff" fill-opacity="0.36"/><circle cx="858" cy="252" r="1.5" fill="#dffaff" fill-opacity="0.23"/><circle cx="1092" cy="285" r="2" fill="#dffaff" fill-opacity="0.32"/><circle cx="606" cy="879" r="1" fill="#dffaff" fill-opacity="0.37"/><circle cx="1525" cy="271" r="1" fill="#dffaff" fill-opacity="0.11"/><circle cx="339" cy="957" r="1" fill="#dffaff" fill-opacity="0.40"/><circle cx="720" cy="699" r="1" fill="#dffaff" fill-opacity="0.50"/><circle cx="1578" cy="289" r="1" fill="#dffaff" fill-opacity="0.47"/><circle cx="723" cy="102" r="2" fill="#dffaff" fill-opacity="0.12"/><circle cx="916" cy="469" r="1.5" fill="#dffaff" fill-opacity="0.47"/><circle cx="296" cy="5" r="1" fill="#dffaff" fill-opacity="0.14"/><circle cx="98" cy="703" r="1" fill="#dffaff" fill-opacity="0.42"/><circle cx="929" cy="1021" r="1" fill="#dffaff" fill-opacity="0.32"/><circle cx="1458" cy="556" r="2" fill="#dffaff" fill-opacity="0.12"/><circle cx="708" cy="10" r="1" fill="#dffaff" fill-opacity="0.10"/><circle cx="468" cy="978" r="1.5" fill="#dffaff" fill-opacity="0.48"/><circle cx="448" cy="791" r="1.5" fill="#dffaff" fill-opacity="0.50"/><circle cx="551" cy="296" r="1" fill="#dffaff" fill-opacity="0.49"/><circle cx="1145" cy="922" r="1" fill="#dffaff" fill-opacity="0.51"/><circle cx="1403" cy="488" r="2" fill="#dffaff" fill-opacity="0.53"/><circle cx="1757" cy="901" r="1" fill="#dffaff" fill-opacity="0.13"/><circle cx="469" cy="616" r="1.5" fill="#dffaff" fill-opacity="0.30"/><circle cx="345" cy="562" r="1" fill="#dffaff" fill-opacity="0.54"/><circle cx="1318" cy="88" r="1.5" fill="#dffaff" fill-opacity="0.20"/><circle cx="159" cy="1036" r="1.5" fill="#dffaff" fill-opacity="0.16"/><circle cx="1742" cy="727" r="1" fill="#dffaff" fill-opacity="0.27"/><circle cx="727" cy="861" r="1" fill="#dffaff" fill-opacity="0.49"/><circle cx="300" cy="941" r="1.5" fill="#dffaff" fill-opacity="0.17"/><circle cx="834" cy="414" r="1" fill="#dffaff" fill-opacity="0.23"/><circle cx="1164" cy="928" r="1.5" fill="#dffaff" fill-opacity="0.49"/><circle cx="1345" cy="381" r="1.5" fill="#dffaff" fill-opacity="0.14"/><circle cx="1289" cy="816" r="2" fill="#dffaff" fill-opacity="0.30"/><circle cx="589" cy="157" r="1" fill="#dffaff" fill-opacity="0.41"/><circle cx="922" cy="459" r="1.5" fill="#dffaff" fill-opacity="0.49"/><circle cx="1726" cy="40" r="1.5" fill="#dffaff" fill-opacity="0.10"/><circle cx="230" cy="556" r="1" fill="#dffaff" fill-opacity="0.26"/><circle cx="1430" cy="1022" r="1" fill="#dffaff" fill-opacity="0.41"/><circle cx="153" cy="128" r="2" fill="#dffaff" fill-opacity="0.08"/><circle cx="1803" cy="426" r="1.5" fill="#dffaff" fill-opacity="0.34"/><circle cx="506" cy="704" r="1" fill="#dffaff" fill-opacity="0.40"/><circle cx="198" cy="184" r="1.5" fill="#dffaff" fill-opacity="0.12"/><circle cx="1080" cy="605" r="2" fill="#dffaff" fill-opacity="0.20"/><circle cx="1674" cy="962" r="2" fill="#dffaff" fill-opacity="0.28"/><circle cx="1592" cy="1031" r="1" fill="#dffaff" fill-opacity="0.51"/><circle cx="37" cy="128" r="1.5" fill="#dffaff" fill-opacity="0.51"/><circle cx="849" cy="492" r="1" fill="#dffaff" fill-opacity="0.48"/><circle cx="758" cy="707" r="1.5" fill="#dffaff" fill-opacity="0.16"/><circle cx="1871" cy="678" r="1.5" fill="#dffaff" fill-opacity="0.47"/><circle cx="1285" cy="201" r="1" fill="#dffaff" fill-opacity="0.11"/><circle cx="1304" cy="622" r="2" fill="#dffaff" fill-opacity="0.34"/><circle cx="1082" cy="1075" r="2" fill="#dffaff" fill-opacity="0.53"/><circle cx="1752" cy="892" r="2" fill="#dffaff" fill-opacity="0.24"/><circle cx="1077" cy="846" r="1" fill="#dffaff" fill-opacity="0.29"/><circle cx="1824" cy="435" r="1.5" fill="#dffaff" fill-opacity="0.11"/><circle cx="704" cy="81" r="1" fill="#dffaff" fill-opacity="0.34"/><circle cx="612" cy="1070" r="1" fill="#dffaff" fill-opacity="0.25"/><circle cx="133" cy="778" r="1" fill="#dffaff" fill-opacity="0.39"/><circle cx="119" cy="772" r="1" fill="#dffaff" fill-opacity="0.51"/><circle cx="778" cy="773" r="1" fill="#dffaff" fill-opacity="0.36"/><circle cx="748" cy="701" r="1" fill="#dffaff" fill-opacity="0.19"/><circle cx="1893" cy="1065" r="1" fill="#dffaff" fill-opacity="0.35"/><circle cx="1078" cy="859" r="1" fill="#dffaff" fill-opacity="0.25"/><circle cx="1273" cy="1003" r="1" fill="#dffaff" fill-opacity="0.48"/><circle cx="1485" cy="114" r="1.5" fill="#dffaff" fill-opacity="0.25"/><circle cx="1494" cy="928" r="1" fill="#dffaff" fill-opacity="0.35"/><circle cx="412" cy="766" r="2" fill="#dffaff" fill-opacity="0.29"/><circle cx="1670" cy="193" r="1.5" fill="#dffaff" fill-opacity="0.38"/><circle cx="460" cy="73" r="1" fill="#dffaff" fill-opacity="0.32"/><circle cx="419" cy="842" r="1" fill="#dffaff" fill-opacity="0.23"/><circle cx="1883" cy="286" r="1" fill="#dffaff" fill-opacity="0.24"/><circle cx="1839" cy="693" r="1" fill="#dffaff" fill-opacity="0.46"/><circle cx="925" cy="649" r="1" fill="#dffaff" fill-opacity="0.16"/><circle cx="331" cy="499" r="2" fill="#dffaff" fill-opacity="0.19"/><circle cx="429" cy="457" r="1" fill="#dffaff" fill-opacity="0.52"/><circle cx="682" cy="704" r="2" fill="#dffaff" fill-opacity="0.27"/><circle cx="65" cy="466" r="2" fill="#dffaff" fill-opacity="0.12"/><circle cx="120" cy="930" r="1" fill="#dffaff" fill-opacity="0.44"/><circle cx="1700" cy="459" r="1.5" fill="#dffaff" fill-opacity="0.37"/><circle cx="1732" cy="1038" r="1" fill="#dffaff" fill-opacity="0.31"/><circle cx="701" cy="378" r="1" fill="#dffaff" fill-opacity="0.41"/><circle cx="931" cy="440" r="1.5" fill="#dffaff" fill-opacity="0.28"/><circle cx="1407" cy="117" r="1" fill="#dffaff" fill-opacity="0.35"/><circle cx="51" cy="40" r="2" fill="#dffaff" fill-opacity="0.37"/><circle cx="662" cy="611" r="1" fill="#dffaff" fill-opacity="0.35"/><circle cx="1196" cy="9" r="1.5" fill="#dffaff" fill-opacity="0.45"/><circle cx="1616" cy="744" r="1" fill="#dffaff" fill-opacity="0.42"/><circle cx="440" cy="910" r="2" fill="#dffaff" fill-opacity="0.34"/><circle cx="628" cy="765" r="1.5" fill="#dffaff" fill-opacity="0.40"/><circle cx="514" cy="566" r="1" fill="#dffaff" fill-opacity="0.47"/><circle cx="743" cy="791" r="1" fill="#dffaff" fill-opacity="0.25"/><circle cx="900" cy="939" r="1" fill="#dffaff" fill-opacity="0.27"/><circle cx="646" cy="939" r="2" fill="#dffaff" fill-opacity="0.43"/><circle cx="818" cy="544" r="1" fill="#dffaff" fill-opacity="0.30"/><circle cx="488" cy="795" r="1.5" fill="#dffaff" fill-opacity="0.27"/><circle cx="737" cy="624" r="1" fill="#dffaff" fill-opacity="0.14"/><circle cx="1745" cy="923" r="2" fill="#dffaff" fill-opacity="0.17"/><circle cx="529" cy="787" r="1" fill="#dffaff" fill-opacity="0.13"/><circle cx="595" cy="341" r="2" fill="#dffaff" fill-opacity="0.36"/><circle cx="1138" cy="670" r="2" fill="#dffaff" fill-opacity="0.17"/><circle cx="1808" cy="590" r="1.5" fill="#dffaff" fill-opacity="0.20"/><circle cx="80" cy="459" r="2" fill="#dffaff" fill-opacity="0.40"/><circle cx="710" cy="132" r="2" fill="#dffaff" fill-opacity="0.50"/><circle cx="1153" cy="696" r="1.5" fill="#dffaff" fill-opacity="0.25"/><circle cx="945" cy="460" r="1" fill="#dffaff" fill-opacity="0.28"/><circle cx="1474" cy="486" r="1.5" fill="#dffaff" fill-opacity="0.25"/><circle cx="283" cy="1078" r="1" fill="#dffaff" fill-opacity="0.27"/><circle cx="821" cy="994" r="1.5" fill="#dffaff" fill-opacity="0.21"/><circle cx="1343" cy="582" r="1" fill="#dffaff" fill-opacity="0.20"/><circle cx="564" cy="1022" r="2" fill="#dffaff" fill-opacity="0.45"/><circle cx="117" cy="77" r="1" fill="#dffaff" fill-opacity="0.27"/><circle cx="900" cy="960" r="1" fill="#dffaff" fill-opacity="0.27"/></g>
<g fill="none" stroke="#76eaff" stroke-opacity=".24" stroke-width="2"><path d="M1020 560h520M1070 560V345h420v215M1135 345V250h290v95M1165 420h90v75h-90zM1305 420h90v75h-90z"/></g>
<g font-family="Arial, Helvetica, sans-serif" letter-spacing="8" fill="#dffaff">
 <text x="90" y="885" font-size="38" font-weight="700" fill-opacity=".3">MEMBER MARKET</text>
 <text x="94" y="930" font-size="16" fill="#76eaff" fill-opacity=".32">SECURE EXCHANGE</text>
</g>
<path d="M90 965h560" stroke="#ffbd61" stroke-opacity=".25" stroke-width="3"/>
</svg>