<svg xmlns="http://www.w3.org/2000/svg" viewBox="0 0 1920 1080" role="img" aria-label="OPERATIONS background">
<defs>
 <linearGradient id="bg" x1="0" y1="0" x2="1" y2="1"><stop stop-color="#02070c"/><stop offset=".48" stop-color="#071827"/><stop offset="1" stop-color="#02060a"/></linearGradient>
 <radialGradient id="glow"><stop stop-color="#21b9d8" stop-opacity=".22"/><stop offset="1" stop-color="#21b9d8" stop-opacity="0"/></radialGradient>
 <pattern id="grid" width="72" height="72" patternUnits="userSpaceOnUse"><path d="M72 0H0V72" fill="none" stroke="#7cecff" stroke-opacity=".035"/></pattern>
</defs>
<rect width="1920" height="1080" fill="url(#bg)"/>
<rect width="1920" height="1080" fill="url(#grid)"/>
<ellipse cx="1320" cy="430" rx="620" ry="520" fill="url(#glow)"/>
<g><circle cx="802" cy="226" r="1" fill="#dffaff" fill-opacity="0.18"/><circle cx="1841" cy="857" r="1" fill="#dffaff" fill-opacity="0.08"/><circle cx="358" cy="958" r="2" fill="#dffaff" fill-opacity="0.51"/><circle cx="971" cy="567" r="1" fill="#dffaff" fill-opacity="0.38"/><circle cx="382" cy="455" r="2" fill="#dffaff" fill-opacity="0.16"/><circle cx="1837" cy="438" r="1" fill="#dffaff" fill-opacity="0.46"/><circle cx="374" cy="572" r="1" fill="#dffaff" fill-opacity="0.13"/><circle cx="1078" cy="297" r="2" fill="#dffaff" fill-opacity="0.23"/><circle cx="1787" cy="110" r="1" fill="#dffaff" fill-opacity="0.16"/><circle cx="1785" cy="757" r="1" fill="#dffaff" fill-opacity="0.09"/><circle cx="1766" cy="314" r="2" fill="#dffaff" fill-opacity="0.45"/><circle cx="1254" cy="502" r="1" fill="#dffaff" fill-opacity="0.48"/><circle cx="370" cy="597" r="1" fill="#dffaff" fill-opacity="0.54"/><circle cx="892" cy="267" r="1" fill="#dffaff" fill-opacity="0.20"/><circle cx="130" cy="875" r="1.5" fill="#dffaff" fill-opacity="0.18"/><circle cx="1739" cy="909" r="1" fill="#dffaff" fill-opacity="0.18"/><circle cx="96" cy="735" r="2" fill="#dffaff" fill-opacity="0.33"/><circle cx="848" cy="566" r="1.5" fill="#dffaff" fill-opacity="0.10"/><circle cx="1358" cy="972" r="1" fill="#dffaff" fill-opacity="0.40"/><circle cx="1484" cy="323" r="1" fill="#dffaff" fill-opacity="0.11"/><circle cx="1590" cy="861" r="1" fill="#dffaff" fill-opacity="0.37"/><circle cx="664" cy="584" r="1" fill="#dffaff" fill-opacity="0.20"/><circle cx="677" cy="764" r="1" fill="#dffaff" fill-opacity="0.45"/><circle cx="1331" cy="596" r="2" fill="#dffaff" fill-opacity="0.45"/><circle cx="1215" cy="1007" r="1" fill="#dffaff" fill-opacity="0.30"/><circle cx="7" cy="287" r="2" fill="#dffaff" fill-opacity="0.39"/><circle cx="789" cy="947" r="1" fill="#dffaff" fill-opacity="0.43"/><circle cx="1828" cy="565" r="1" fill="#dffaff" fill-opacity="0.16"/><circle cx="209" cy="492" r="1" fill="#dffaff" fill-opacity="0.19"/><circle cx="572" cy="334" r="1" fill="#dffaff" fill-opacity="0.20"/><circle cx="695" cy="594" r="2" fill="#dffaff" fill-opacity="0.18"/><circle cx="1349" cy="682" r="1.5" fill="#dffaff" fill-opacity="0.39"/><circle cx="1009" cy="945" r="1.5" fill="#dffaff" fill-opacity="0.20"/><circle cx="337" cy="741" r="1" fill="#dffaff" fill-opacity="0.32"/><circle cx="1399" cy="439" r="1" fill="#dffaff" fill-opacity="0.47"/><circle cx="1314" cy="955" r="1" fill="#dffaff" fill-opacity="0.21"/><circle cx="1598" cy="1079" r="1" fill="#dffaff" fill-opacity="0.13"/><circle cx="196" cy="957" r="2" fill="#dffaff" fill-opacity="0.22"/><circle cx="1415" cy="858" r="1" fill="#dffaff" fill-opacity="0.40"/><circle cx="684" cy="327" r="1.5" fill="#dffaff" fill-opacity="0.44"/><circle cx="1184" cy="490" r="2" fill="#dffaff" fill-opacity="0.26"/><circle cx="503" cy="47" r="1" fill="#dffaff" fill-opacity="0.29"/><circle cx="208" cy="598" r="1" fill="#dffaff" fill-opacity="0.13"/><circle cx="336" cy="163" r="1" fill="#dffaff" fill-opacity="0.30"/><circle cx="179" cy="601" r="1" fill="#dffaff" fill-opacity="0.43"/><circle cx="59" cy="224" r="1" fill="#dffaff" fill-opacity="0.35"/><circle cx="1257" cy="195" r="2" fill="#dffaff" fill-opacity="0.52"/><circle cx="126" cy="825" r="1.5" fill="#dffaff" fill-opacity="0.29"/><circle cx="319" cy="706" r="1" fill="#dffaff" fill-opacity="0.25"/><circle cx="1331" cy="39" r="1.5" fill="#dffaff" fill-opacity="0.38"/><circle cx="1594" cy="158" r="2" fill="#dffaff" fill-opacity="0.10"/><circle cx="64" cy="917" r="1.5" fill="#dffaff" fill-opacity="0.12"/><circle cx="1283" cy="71" r="1" fill="#dffaff" fill-opacity="0.42"/><circle cx="925" cy="302" r="1" fill="#dffaff" fill-opacity="0.40"/><circle cx="558" cy="759" r="1" fill="#dffaff" fill-opacity="0.48"/><circle cx="1686" cy="964" r="1" fill="#dffaff" fill-opacity="0.28"/><circle cx="931" cy="503" r="1" fill="#dffaff" fill-opacity="0.38"/><circle cx="1862" cy="329" r="1" fill="#dffaff" fill-opacity="0.41"/><circle cx="1697" cy="175" r="1" fill="#dffaff" fill-opacity="0.21"/><circle cx="399" cy="16" r="1.5" fill="#dffaff" fill-opacity="0.50"/><circle cx="1200" cy="929" r="1" fill="#dffaff" fill-opacity="0.19"/><circle cx="1453" cy="223" r="1" fill="#dffaff" fill-opacity="0.48"/><circle cx="177" cy="365" r="2" fill="#dffaff" fill-opacity="0.33"/><circle cx="249" cy="92" r="1.5" fill="#dffaff" fill-opacity="0.29"/><circle cx="822" cy="220" r="1" fill="#dffaff" fill-opacity="0.40"/><circle cx="876" cy="866" r="1" fill="#dffaff" fill-opacity="0.52"/><circle cx="315" cy="299" r="1.5" fill="#dffaff" fill-opacity="0.49"/><circle cx="470" cy="163" r="2" fill="#dffaff" fill-opacity="0.09"/><circle cx="107" cy="268" r="1.5" fill="#dffaff" fill-opacity="0.22"/><circle cx="775" cy="1078" r="1" fill="#dffaff" fill-opacity="0.12"/><circle cx="1334" cy="534" r="1.5" fill="#dffaff" fill-opacity="0.29"/><circle cx="1094" cy="430" r="1" fill="#dffaff" fill-opacity="0.36"/><circle cx="1377" cy="457" r="1" fill="#dffaff" fill-opacity="0.16"/><circle cx="259" cy="185" r="1.5" fill="#dffaff" fill-opacity="0.35"/><circle cx="1141" cy="511" r="1" fill="#dffaff" fill-opacity="0.42"/><circle cx="1292" cy="555" r="1" fill="#dffaff" fill-opacity="0.42"/><circle cx="852" cy="677" r="1" fill="#dffaff" fill-opacity="0.21"/><circle cx="204" cy="404" r="1" fill="#dffaff" fill-opacity="0.42"/><circle cx="1345" cy="822" r="1.5" fill="#dffaff" fill-opacity="0.27"/><circle cx="697" cy="37" r="2" fill="#dffaff" fill-opacity="0.20"/><circle cx="1121" cy="303" r="1.5" fill="#dffaff" fill-opacity="0.55"/><circle cx="1009" cy="722" r="1" fill="#dffaff" fill-opacity="0.32"/><circle cx="1677" cy="707" r="1" fill="#dffaff" fill-opacity="0.16"/><circle cx="576" cy="562" r="2" fill="#dffaff" fill-opacity="0.18"/><circle cx="1717" cy="798" r="1" fill="#dffaff" fill-opacity="0.52"/><circle cx="720" cy="48" r="1" fill="#dffaff" fill-opacity="0.17"/><circle cx="1282" cy="10" r="1.5" fill="#dffaff" fill-opacity="0.11"/><circle cx="1495" cy="61" r="1" fill="#dffaff" fill-opacity="0.19"/><circle cx="892" cy="786" r="1" fill="#dffaff" fill-opacity="0.16"/><circle cx="1846" cy="1036" r="1" fill="#dffaff" fill-opacity="0.34"/><circle cx="1503" cy="22" r="1" fill="#dffaff" fill-opacity="0.46"/><circle cx="1409" cy="16" r="1" fill="#dffaff" fill-opacity="0.38"/><circle cx="880" cy="734" r="1.5" fill="#dffaff" fill-opacity="0.48"/><circle cx="1073" cy="285" r="1" fill="#dffaff" fill-opacity="0.23"/><circle cx="847" cy="766" r="1" fill="#dffaff" fill-opacity="0.22"/><circle cx="131" cy="187" r="1" fill="#dffaff" fill-opacity="0.46"/><circle cx="1761" cy="493" r="2" fill="#dffaff" fill-opacity="0.13"/><circle cx="110" cy="436" r="1" fill="#dffaff" fill-opacity="0.43"/><circle cx="473" cy="1077" r="1" fill="#dffaff" fill-opacity="0.15"/><circle cx="926" cy="260" r="1" fill="#dffaff" fill-opacity="0.48"/><circle cx="1112" cy="500" r="1" fill="#dffaff" fill-opacity="0.45"/><circle cx="1010" cy="1024" r="1" fill="#dffaff" fill-opacity="0.45"/><circle cx="1277" cy="1061" r="1.5" fill="#dffaff" fill-opacity="0.29"/><circle cx="1427" cy="338" r="1" fill="#dffaff" fill-opacity="0.42"/><circle cx="160" cy="674" r="1" fill="#dffaff" fill-opacity="0.54"/><circle cx="1406" cy="174" r="1" fill="#dffaff" fill-opacity="0.20"/><circle cx="268" cy="1066" r="1" fill="#dffaff" fill-opacity="0.08"/><circle cx="1545" cy="959" r="1.5" fill="#dffaff" fill-opacity="0.21"/><circle cx="1358" cy="472" r="1" fill="#dffaff" fill-opacity="0.29"/><circle cx="1193" cy="899" r="1.5" fill="#dffaff" fill-opacity="0.50"/><circle cx="180" cy="378" r="1" fill="#dffaff" fill-opacity="0.53"/><circle cx="1213" cy="670" r="1" fill="#dffaff" fill-opacity="0.42"/><circle cx="1720" cy="671" r="1.5" fill="#dffaff" fill-opacity="0.20"/><circle cx="1146" cy="205" r="2" fill="#dffaff" fill-opacity="0.16"/><circle cx="104" cy="208" r="1.5" fill="#dffaff" fill-opacity="0.36"/><circle cx="1334" cy="41" r="1.5" fill="#dffaff" fill-opacity="0.44"/><circle cx="1433" cy="173" r="1" fill="#dffaff" fill-opacity="0.12"/><circle cx="1585" cy="676" r="1.5" fill="#dffaff" fill-opacity="0.37"/><circle cx="1737" cy="59" r="1" fill="#dffaff" fill-opacity="0.18"/><circle cx="1007" cy="552" r="1" fill="#dffaff" fill-opacity="0.38"/></g>
<g fill="none" stroke="#76eaff" stroke-opacity=".24" stroke-width="2"><circle cx="1280" cy="420" r="250"/><circle cx="1280" cy="420" r="155"/><circle cx="1280" cy="420" r="55"/><path d="M1280 125v165M1280 550v165M985 420h165M1410 420h165"/></g>
<g font-family="Arial, Helvetica, sans-serif" letter-spacing="8" fill="#dffaff">
 <text x="90" y="885" font-size="38" font-weight="700" fill-opacity=".3">OPERATIONS</text>
 <text x="94" y="930" font-size="16" fill="#76eaff" fill-opacity=".32">MISSION BRIEFING</text>
</g>
<path d="M90 965h560" stroke="#ffbd61" stroke-opacity=".25" stroke-width="3"/>
</svg>