<svg xmlns="http://www.w3.org/2000/svg" viewBox="0 0 1920 1080" role="img" aria-label="MEMBER DIRECTORY background">
<defs>
 <linearGradient id="bg" x1="0" y1="0" x2="1" y2="1"><stop stop-color="#02070c"/><stop offset=".48" stop-color="#071827"/><stop offset="1" stop-color="#02060a"/></linearGradient>
 <radialGradient id="glow"><stop stop-color="#21b9d8" stop-opacity=".22"/><stop offset="1" stop-color="#21b9d8" stop-opacity="0"/></radialGradient>
 <pattern id="grid" width="72" height="72" patternUnits="userSpaceOnUse"><path d="M72 0H0V72" fill="none" stroke="#7cecff" stroke-opacity=".035"/></pattern>
</defs>
<rect width="1920" height="1080" fill="url(#bg)"/>
<rect width="1920" height="1080" fill="url(#grid)"/>
<ellipse cx="1320" cy="430" rx="620" ry="520" fill="url(#glow)"/>
<g><circle cx="341" cy="686" r="1" fill="#dffaff" fill-opacity="0.11"/><circle cx="1855" cy="541" r="1.5" fill="#dffaff" fill-opacity="0.32"/><circle cx="1170" cy="0" r="1" fill="#dffaff" fill-opacity="0.50"/><circle cx="1340" cy="458" r="1" fill="#dffaff" fill-opacity="0.28"/><circle cx="1563" cy="440" r="1" fill="#dffaff" fill-opacity="0.09"/><circle cx="1013" cy="585" r="2" fill="#dffaff" fill-opacity="0.38"/><circle cx="354" cy="186" r="1" fill="#dffaff" fill-opacity="0.14"/><circle cx="1487" cy="127" r="1.5" fill="#dffaff" fill-opacity="0.26"/><circle cx="976" cy="971" r="1" fill="#dffaff" fill-opacity="0.31"/><circle cx="1229" cy="302" r="1" fill="#dffaff" fill-opacity="0.39"/><circle cx="787" cy="996" r="1" fill="#dffaff" fill-opacity="0.45"/><circle cx="1226" cy="755" r="1.5" fill="#dffaff" fill-opacity="0.24"/><circle cx="308" cy="489" r="1" fill="#dffaff" fill-opacity="0.26"/><circle cx="812" cy="69" r="1" fill="#dffaff" fill-opacity="0.53"/><circle cx="956" cy="567" r="1" fill="#dffaff" fill-opacity="0.40"/><circle cx="1103" cy="274" r="2" fill="#dffaff" fill-opacity="0.28"/><circle cx="398" cy="752" r="1" fill="#dffaff" fill-opacity="0.32"/><circle cx="984" cy="660" r="1" fill="#dffaff" fill-opacity="0.13"/><circle cx="1572" cy="208" r="1.5" fill="#dffaff" fill-opacity="0.09"/><circle cx="1467" cy="784" r="1" fill="#dffaff" fill-opacity="0.38"/><circle cx="1242" cy="868" r="1" fill="#dffaff" fill-opacity="0.47"/><circle cx="441" cy="932" r="1.5" fill="#dffaff" fill-opacity="0.52"/><circle cx="109" cy="708" r="1" fill="#dffaff" fill-opacity="0.21"/><circle cx="197" cy="20" r="1" fill="#dffaff" fill-opacity="0.39"/><circle cx="785" cy="153" r="2" fill="#dffaff" fill-opacity="0.46"/><circle cx="337" cy="50" r="1" fill="#dffaff" fill-opacity="0.46"/><circle cx="1812" cy="647" r="1" fill="#dffaff" fill-opacity="0.18"/><circle cx="299" cy="362" r="1.5" fill="#dffaff" fill-opacity="0.47"/><circle cx="1307" cy="269" r="2" fill="#dffaff" fill-opacity="0.16"/><circle cx="838" cy="988" r="1.5" fill="#dffaff" fill-opacity="0.44"/><circle cx="596" cy="242" r="1" fill="#dffaff" fill-opacity="0.54"/><circle cx="90" cy="355" r="2" fill="#dffaff" fill-opacity="0.24"/><circle cx="622" cy="813" r="2" fill="#dffaff" fill-opacity="0.14"/><circle cx="964" cy="107" r="1" fill="#dffaff" fill-opacity="0.35"/><circle cx="1689" cy="192" r="1" fill="#dffaff" fill-opacity="0.24"/><circle cx="1235" cy="207" r="1" fill="#dffaff" fill-opacity="0.09"/><circle cx="724" cy="331" r="1" fill="#dffaff" fill-opacity="0.11"/><circle cx="820" cy="470" r="1" fill="#dffaff" fill-opacity="0.50"/><circle cx="1682" cy="869" r="1" fill="#dffaff" fill-opacity="0.08"/><circle cx="188" cy="342" r="2" fill="#dffaff" fill-opacity="0.21"/><circle cx="1751" cy="332" r="1" fill="#dffaff" fill-opacity="0.45"/><circle cx="703" cy="873" r="2" fill="#dffaff" fill-opacity="0.39"/><circle cx="772" cy="458" r="1" fill="#dffaff" fill-opacity="0.37"/><circle cx="1603" cy="678" r="1" fill="#dffaff" fill-opacity="0.27"/><circle cx="574" cy="787" r="2" fill="#dffaff" fill-opacity="0.44"/><circle cx="1291" cy="426" r="1.5" fill="#dffaff" fill-opacity="0.15"/><circle cx="770" cy="960" r="1" fill="#dffaff" fill-opacity="0.52"/><circle cx="249" cy="350" r="1" fill="#dffaff" fill-opacity="0.44"/><circle cx="1892" cy="674" r="1" fill="#dffaff" fill-opacity="0.15"/><circle cx="50" cy="974" r="1.5" fill="#dffaff" fill-opacity="0.50"/><circle cx="470" cy="810" r="1" fill="#dffaff" fill-opacity="0.16"/><circle cx="1373" cy="212" r="1" fill="#dffaff" fill-opacity="0.25"/><circle cx="1496" cy="448" r="1" fill="#dffaff" fill-opacity="0.44"/><circle cx="1140" cy="96" r="1.5" fill="#dffaff" fill-opacity="0.27"/><circle cx="367" cy="858" r="1" fill="#dffaff" fill-opacity="0.27"/><circle cx="1830" cy="409" r="1.5" fill="#dffaff" fill-opacity="0.43"/><circle cx="220" cy="889" r="1" fill="#dffaff" fill-opacity="0.43"/><circle cx="186" cy="839" r="1" fill="#dffaff" fill-opacity="0.40"/><circle cx="524" cy="60" r="2" fill="#dffaff" fill-opacity="0.27"/><circle cx="1395" cy="855" r="1.5" fill="#dffaff" fill-opacity="0.44"/><circle cx="1640" cy="766" r="2" fill="#dffaff" fill-opacity="0.46"/><circle cx="321" cy="716" r="1.5" fill="#dffaff" fill-opacity="0.19"/><circle cx="179" cy="1025" r="1.5" fill="#dffaff" fill-opacity="0.17"/><circle cx="1199" cy="790" r="1" fill="#dffaff" fill-opacity="0.48"/><circle cx="1529" cy="758" r="1" fill="#dffaff" fill-opacity="0.42"/><circle cx="1125" cy="345" r="1.5" fill="#dffaff" fill-opacity="0.40"/><circle cx="85" cy="919" r="1" fill="#dffaff" fill-opacity="0.22"/><circle cx="350" cy="943" r="2" fill="#dffaff" fill-opacity="0.26"/><circle cx="605" cy="251" r="1.5" fill="#dffaff" fill-opacity="0.37"/><circle cx="393" cy="60" r="1" fill="#dffaff" fill-opacity="0.42"/><circle cx="1805" cy="315" r="1.5" fill="#dffaff" fill-opacity="0.31"/><circle cx="1265" cy="459" r="1.5" fill="#dffaff" fill-opacity="0.36"/><circle cx="25" cy="550" r="1" fill="#dffaff" fill-opacity="0.53"/><circle cx="113" cy="402" r="2" fill="#dffaff" fill-opacity="0.42"/><circle cx="1757" cy="993" r="2" fill="#dffaff" fill-opacity="0.42"/><circle cx="1183" cy="442" r="1" fill="#dffaff" fill-opacity="0.15"/><circle cx="406" cy="419" r="2" fill="#dffaff" fill-opacity="0.42"/><circle cx="1662" cy="143" r="1" fill="#dffaff" fill-opacity="0.41"/><circle cx="709" cy="673" r="1" fill="#dffaff" fill-opacity="0.27"/><circle cx="763" cy="145" r="1" fill="#dffaff" fill-opacity="0.14"/><circle cx="952" cy="754" r="1.5" fill="#dffaff" fill-opacity="0.26"/><circle cx="1261" cy="49" r="2" fill="#dffaff" fill-opacity="0.28"/><circle cx="1377" cy="872" r="1" fill="#dffaff" fill-opacity="0.19"/><circle cx="733" cy="308" r="1.5" fill="#dffaff" fill-opacity="0.22"/><circle cx="1243" cy="864" r="2" fill="#dffaff" fill-opacity="0.13"/><circle cx="129" cy="566" r="1" fill="#dffaff" fill-opacity="0.37"/><circle cx="1111" cy="115" r="1.5" fill="#dffaff" fill-opacity="0.52"/><circle cx="1360" cy="866" r="2" fill="#dffaff" fill-opacity="0.19"/><circle cx="1277" cy="1008" r="1.5" fill="#dffaff" fill-opacity="0.39"/><circle cx="1456" cy="1059" r="1" fill="#dffaff" fill-opacity="0.15"/><circle cx="1090" cy="321" r="1" fill="#dffaff" fill-opacity="0.24"/><circle cx="931" cy="696" r="1" fill="#dffaff" fill-opacity="0.22"/><circle cx="1368" cy="131" r="1" fill="#dffaff" fill-opacity="0.41"/><circle cx="1728" cy="49" r="1.5" fill="#dffaff" fill-opacity="0.29"/><circle cx="1251" cy="22" r="2" fill="#dffaff" fill-opacity="0.42"/><circle cx="1909" cy="432" r="1" fill="#dffaff" fill-opacity="0.15"/><circle cx="363" cy="886" r="2" fill="#dffaff" fill-opacity="0.42"/><circle cx="267" cy="842" r="1" fill="#dffaff" fill-opacity="0.29"/><circle cx="1917" cy="392" r="1" fill="#dffaff" fill-opacity="0.54"/><circle cx="42" cy="579" r="2" fill="#dffaff" fill-opacity="0.48"/><circle cx="647" cy="450" r="1.5" fill="#dffaff" fill-opacity="0.43"/><circle cx="705" cy="832" r="2" fill="#dffaff" fill-opacity="0.09"/><circle cx="535" cy="499" r="1.5" fill="#dffaff" fill-opacity="0.54"/><circle cx="657" cy="579" r="1.5" fill="#dffaff" fill-opacity="0.22"/><circle cx="1350" cy="25" r="1" fill="#dffaff" fill-opacity="0.17"/><circle cx="375" cy="863" r="1" fill="#dffaff" fill-opacity="0.15"/><circle cx="1404" cy="352" r="2" fill="#dffaff" fill-opacity="0.11"/><circle cx="1122" cy="28" r="1" fill="#dffaff" fill-opacity="0.42"/><circle cx="524" cy="508" r="1" fill="#dffaff" fill-opacity="0.37"/><circle cx="767" cy="746" r="1.5" fill="#dffaff" fill-opacity="0.29"/><circle cx="325" cy="127" r="1" fill="#dffaff" fill-opacity="0.37"/><circle cx="1417" cy="502" r="1.5" fill="#dffaff" fill-opacity="0.20"/><circle cx="1252" cy="550" r="1" fill="#dffaff" fill-opacity="0.20"/><circle cx="129" cy="341" r="1.5" fill="#dffaff" fill-opacity="0.52"/><circle cx="642" cy="645" r="1.5" fill="#dffaff" fill-opacity="0.44"/><circle cx="530" cy="728" r="2" fill="#dffaff" fill-opacity="0.37"/><circle cx="1677" cy="814" r="1" fill="#dffaff" fill-opacity="0.11"/><circle cx="1346" cy="459" r="1" fill="#dffaff" fill-opacity="0.27"/><circle cx="732" cy="231" r="1" fill="#dffaff" fill-opacity="0.18"/><circle cx="466" cy="530" r="1" fill="#dffaff" fill-opacity="0.18"/></g>
<g fill="none" stroke="#76eaff" stroke-opacity=".24" stroke-width="2"><circle cx="1280" cy="300" r="90"/><path d="M1095 650c15-145 80-220 185-220s170 75 185 220z"/><circle cx="1050" cy="390" r="58"/><circle cx="1510" cy="390" r="58"/><path d="M930 635c10-95 55-150 120-150s110 55 120 150M1390 635c10-95 55-150 120-150s110 55 120 150"/></g>
<g font-family="Arial, Helvetica, sans-serif" letter-spacing="8" fill="#dffaff">
 <text x="90" y="885" font-size="38" font-weight="700" fill-opacity=".3">MEMBER DIRECTORY</text>
 <text x="94" y="930" font-size="16" fill="#76eaff" fill-opacity=".32">PERSONNEL ROSTER</text>
</g>
<path d="M90 965h560" stroke="#ffbd61" stroke-opacity=".25" stroke-width="3"/>
</svg>