<svg xmlns="http://www.w3.org/2000/svg" viewBox="0 0 1920 1080" role="img" aria-label="FREE NAVY background">
<defs>
 <linearGradient id="bg" x1="0" y1="0" x2="1" y2="1"><stop stop-color="#02070c"/><stop offset=".48" stop-color="#071827"/><stop offset="1" stop-color="#02060a"/></linearGradient>
 <radialGradient id="glow"><stop stop-color="#21b9d8" stop-opacity=".22"/><stop offset="1" stop-color="#21b9d8" stop-opacity="0"/></radialGradient>
 <pattern id="grid" width="72" height="72" patternUnits="userSpaceOnUse"><path d="M72 0H0V72" fill="none" stroke="#7cecff" stroke-opacity=".035"/></pattern>
</defs>
<rect width="1920" height="1080" fill="url(#bg)"/>
<rect width="1920" height="1080" fill="url(#grid)"/>
<ellipse cx="1320" cy="430" rx="620" ry="520" fill="url(#glow)"/>
<g><circle cx="528" cy="246" r="2" fill="#dffaff" fill-opacity="0.32"/><circle cx="1176" cy="143" r="1" fill="#dffaff" fill-opacity="0.24"/><circle cx="445" cy="32" r="2" fill="#dffaff" fill-opacity="0.25"/><circle cx="601" cy="444" r="1" fill="#dffaff" fill-opacity="0.47"/><circle cx="1413" cy="824" r="1" fill="#dffaff" fill-opacity="0.44"/><circle cx="1159" cy="443" r="2" fill="#dffaff" fill-opacity="0.25"/><circle cx="289" cy="1026" r="1" fill="#dffaff" fill-opacity="0.14"/><circle cx="575" cy="388" r="1" fill="#dffaff" fill-opacity="0.47"/><circle cx="1470" cy="358" r="2" fill="#dffaff" fill-opacity="0.31"/><circle cx="1455" cy="774" r="1" fill="#dffaff" fill-opacity="0.09"/><circle cx="1311" cy="247" r="1" fill="#dffaff" fill-opacity="0.23"/><circle cx="1814" cy="345" r="1.5" fill="#dffaff" fill-opacity="0.18"/><circle cx="459" cy="142" r="1" fill="#dffaff" fill-opacity="0.50"/><circle cx="1738" cy="572" r="1" fill="#dffaff" fill-opacity="0.44"/><circle cx="1059" cy="650" r="1.5" fill="#dffaff" fill-opacity="0.18"/><circle cx="1465" cy="573" r="1" fill="#dffaff" fill-opacity="0.26"/><circle cx="1239" cy="615" r="1" fill="#dffaff" fill-opacity="0.41"/><circle cx="859" cy="990" r="1.5" fill="#dffaff" fill-opacity="0.45"/><circle cx="1545" cy="1078" r="2" fill="#dffaff" fill-opacity="0.37"/><circle cx="10" cy="708" r="1" fill="#dffaff" fill-opacity="0.15"/><circle cx="1005" cy="797" r="2" fill="#dffaff" fill-opacity="0.19"/><circle cx="870" cy="774" r="1" fill="#dffaff" fill-opacity="0.50"/><circle cx="1176" cy="401" r="1" fill="#dffaff" fill-opacity="0.49"/><circle cx="1533" cy="709" r="1" fill="#dffaff" fill-opacity="0.10"/><circle cx="1158" cy="586" r="1" fill="#dffaff" fill-opacity="0.10"/><circle cx="631" cy="89" r="1" fill="#dffaff" fill-opacity="0.35"/><circle cx="1513" cy="585" r="1.5" fill="#dffaff" fill-opacity="0.32"/><circle cx="1209" cy="862" r="2" fill="#dffaff" fill-opacity="0.48"/><circle cx="1694" cy="164" r="1" fill="#dffaff" fill-opacity="0.24"/><circle cx="1050" cy="487" r="1" fill="#dffaff" fill-opacity="0.22"/><circle cx="1597" cy="602" r="2" fill="#dffaff" fill-opacity="0.43"/><circle cx="1282" cy="401" r="1" fill="#dffaff" fill-opacity="0.13"/><circle cx="1395" cy="153" r="2" fill="#dffaff" fill-opacity="0.37"/><circle cx="1194" cy="862" r="1" fill="#dffaff" fill-opacity="0.36"/><circle cx="939" cy="230" r="1.5" fill="#dffaff" fill-opacity="0.47"/><circle cx="1744" cy="459" r="1.5" fill="#dffaff" fill-opacity="0.19"/><circle cx="1578" cy="340" r="1" fill="#dffaff" fill-opacity="0.25"/><circle cx="1334" cy="92" r="1" fill="#dffaff" fill-opacity="0.31"/><circle cx="756" cy="1065" r="1" fill="#dffaff" fill-opacity="0.24"/><circle cx="825" cy="935" r="1.5" fill="#dffaff" fill-opacity="0.41"/><circle cx="683" cy="760" r="1" fill="#dffaff" fill-opacity="0.09"/><circle cx="627" cy="410" r="2" fill="#dffaff" fill-opacity="0.08"/><circle cx="1049" cy="667" r="1" fill="#dffaff" fill-opacity="0.46"/><circle cx="1256" cy="966" r="1" fill="#dffaff" fill-opacity="0.36"/><circle cx="1637" cy="561" r="2" fill="#dffaff" fill-opacity="0.33"/><circle cx="1914" cy="223" r="1" fill="#dffaff" fill-opacity="0.24"/><circle cx="1046" cy="480" r="2" fill="#dffaff" fill-opacity="0.19"/><circle cx="1632" cy="842" r="1" fill="#dffaff" fill-opacity="0.48"/><circle cx="1245" cy="901" r="1" fill="#dffaff" fill-opacity="0.36"/><circle cx="909" cy="235" r="1" fill="#dffaff" fill-opacity="0.11"/><circle cx="639" cy="868" r="1" fill="#dffaff" fill-opacity="0.41"/><circle cx="48" cy="1020" r="1" fill="#dffaff" fill-opacity="0.42"/><circle cx="406" cy="864" r="1" fill="#dffaff" fill-opacity="0.29"/><circle cx="386" cy="1079" r="1" fill="#dffaff" fill-opacity="0.41"/><circle cx="1431" cy="529" r="2" fill="#dffaff" fill-opacity="0.20"/><circle cx="1854" cy="684" r="2" fill="#dffaff" fill-opacity="0.29"/><circle cx="1531" cy="980" r="1" fill="#dffaff" fill-opacity="0.52"/><circle cx="1177" cy="434" r="1.5" fill="#dffaff" fill-opacity="0.21"/><circle cx="1615" cy="313" r="1" fill="#dffaff" fill-opacity="0.42"/><circle cx="1589" cy="951" r="1" fill="#dffaff" fill-opacity="0.25"/><circle cx="1910" cy="815" r="1" fill="#dffaff" fill-opacity="0.14"/><circle cx="834" cy="260" r="1" fill="#dffaff" fill-opacity="0.12"/><circle cx="68" cy="830" r="2" fill="#dffaff" fill-opacity="0.31"/><circle cx="911" cy="555" r="1" fill="#dffaff" fill-opacity="0.10"/><circle cx="1500" cy="957" r="1" fill="#dffaff" fill-opacity="0.22"/><circle cx="9" cy="367" r="1" fill="#dffaff" fill-opacity="0.38"/><circle cx="1373" cy="555" r="1" fill="#dffaff" fill-opacity="0.50"/><circle cx="1119" cy="940" r="1.5" fill="#dffaff" fill-opacity="0.45"/><circle cx="811" cy="89" r="1.5" fill="#dffaff" fill-opacity="0.43"/><circle cx="1696" cy="513" r="1" fill="#dffaff" fill-opacity="0.14"/><circle cx="901" cy="689" r="2" fill="#dffaff" fill-opacity="0.30"/><circle cx="721" cy="832" r="2" fill="#dffaff" fill-opacity="0.15"/><circle cx="1843" cy="349" r="1" fill="#dffaff" fill-opacity="0.46"/><circle cx="200" cy="751" r="1" fill="#dffaff" fill-opacity="0.32"/><circle cx="112" cy="950" r="1" fill="#dffaff" fill-opacity="0.13"/><circle cx="321" cy="476" r="2" fill="#dffaff" fill-opacity="0.34"/><circle cx="393" cy="205" r="1" fill="#dffaff" fill-opacity="0.49"/><circle cx="1381" cy="573" r="2" fill="#dffaff" fill-opacity="0.37"/><circle cx="896" cy="700" r="1.5" fill="#dffaff" fill-opacity="0.45"/><circle cx="1275" cy="1036" r="1.5" fill="#dffaff" fill-opacity="0.33"/><circle cx="1894" cy="574" r="1" fill="#dffaff" fill-opacity="0.11"/><circle cx="761" cy="355" r="1" fill="#dffaff" fill-opacity="0.31"/><circle cx="120" cy="230" r="1" fill="#dffaff" fill-opacity="0.24"/><circle cx="1324" cy="778" r="1" fill="#dffaff" fill-opacity="0.38"/><circle cx="161" cy="397" r="1" fill="#dffaff" fill-opacity="0.31"/><circle cx="1648" cy="805" r="1" fill="#dffaff" fill-opacity="0.37"/><circle cx="503" cy="243" r="2" fill="#dffaff" fill-opacity="0.37"/><circle cx="15" cy="837" r="1.5" fill="#dffaff" fill-opacity="0.09"/><circle cx="1429" cy="448" r="1" fill="#dffaff" fill-opacity="0.47"/><circle cx="797" cy="890" r="2" fill="#dffaff" fill-opacity="0.11"/><circle cx="95" cy="7" r="2" fill="#dffaff" fill-opacity="0.32"/><circle cx="1517" cy="491" r="1.5" fill="#dffaff" fill-opacity="0.17"/><circle cx="1618" cy="159" r="1" fill="#dffaff" fill-opacity="0.41"/><circle cx="633" cy="219" r="1" fill="#dffaff" fill-opacity="0.50"/><circle cx="647" cy="993" r="1" fill="#dffaff" fill-opacity="0.40"/><circle cx="1544" cy="849" r="1" fill="#dffaff" fill-opacity="0.40"/><circle cx="1774" cy="282" r="1" fill="#dffaff" fill-opacity="0.16"/><circle cx="770" cy="100" r="1" fill="#dffaff" fill-opacity="0.13"/><circle cx="700" cy="250" r="1" fill="#dffaff" fill-opacity="0.43"/><circle cx="464" cy="562" r="1" fill="#dffaff" fill-opacity="0.47"/><circle cx="692" cy="481" r="1" fill="#dffaff" fill-opacity="0.23"/><circle cx="1548" cy="1044" r="1" fill="#dffaff" fill-opacity="0.24"/><circle cx="1652" cy="890" r="2" fill="#dffaff" fill-opacity="0.41"/><circle cx="642" cy="730" r="1" fill="#dffaff" fill-opacity="0.39"/><circle cx="327" cy="453" r="1.5" fill="#dffaff" fill-opacity="0.15"/><circle cx="1865" cy="964" r="1" fill="#dffaff" fill-opacity="0.09"/><circle cx="295" cy="150" r="1" fill="#dffaff" fill-opacity="0.53"/><circle cx="1170" cy="516" r="1" fill="#dffaff" fill-opacity="0.21"/><circle cx="1822" cy="713" r="2" fill="#dffaff" fill-opacity="0.32"/><circle cx="620" cy="341" r="1.5" fill="#dffaff" fill-opacity="0.34"/><circle cx="667" cy="405" r="1.5" fill="#dffaff" fill-opacity="0.47"/><circle cx="1376" cy="902" r="1.5" fill="#dffaff" fill-opacity="0.44"/><circle cx="1311" cy="208" r="1" fill="#dffaff" fill-opacity="0.30"/><circle cx="260" cy="682" r="1" fill="#dffaff" fill-opacity="0.27"/><circle cx="1188" cy="712" r="1" fill="#dffaff" fill-opacity="0.12"/><circle cx="1666" cy="314" r="2" fill="#dffaff" fill-opacity="0.19"/><circle cx="200" cy="83" r="1" fill="#dffaff" fill-opacity="0.48"/><circle cx="1820" cy="468" r="1.5" fill="#dffaff" fill-opacity="0.46"/><circle cx="1536" cy="542" r="1" fill="#dffaff" fill-opacity="0.27"/><circle cx="1329" cy="992" r="2" fill="#dffaff" fill-opacity="0.41"/></g>
<g fill="none" stroke="#76eaff" stroke-opacity=".24" stroke-width="2"><circle cx="1280" cy="430" r="250"/><circle cx="1280" cy="430" r="165"/><circle cx="1280" cy="430" r="85"/><path d="M1030 430h500M1280 180v500"/><path d="M1280 430l190-150" stroke="#ffbd61" stroke-opacity=".45"/></g>
<g font-family="Arial, Helvetica, sans-serif" letter-spacing="8" fill="#dffaff">
 <text x="90" y="885" font-size="38" font-weight="700" fill-opacity=".3">FREE NAVY</text>
 <text x="94" y="930" font-size="16" fill="#76eaff" fill-opacity=".32">DEEP SPACE COMMAND</text>
</g>
<path d="M90 965h560" stroke="#ffbd61" stroke-opacity=".25" stroke-width="3"/>
</svg>