<svg xmlns="http://www.w3.org/2000/svg" viewBox="0 0 1920 1080" role="img" aria-label="ROADMAP WATCH background">
<defs>
 <linearGradient id="bg" x1="0" y1="0" x2="1" y2="1"><stop stop-color="#02070c"/><stop offset=".48" stop-color="#071827"/><stop offset="1" stop-color="#02060a"/></linearGradient>
 <radialGradient id="glow"><stop stop-color="#21b9d8" stop-opacity=".22"/><stop offset="1" stop-color="#21b9d8" stop-opacity="0"/></radialGradient>
 <pattern id="grid" width="72" height="72" patternUnits="userSpaceOnUse"><path d="M72 0H0V72" fill="none" stroke="#7cecff" stroke-opacity=".035"/></pattern>
</defs>
<rect width="1920" height="1080" fill="url(#bg)"/>
<rect width="1920" height="1080" fill="url(#grid)"/>
<ellipse cx="1320" cy="430" rx="620" ry="520" fill="url(#glow)"/>
<g><circle cx="1714" cy="701" r="1" fill="#dffaff" fill-opacity="0.48"/><circle cx="265" cy="271" r="1" fill="#dffaff" fill-opacity="0.37"/><circle cx="1825" cy="746" r="2" fill="#dffaff" fill-opacity="0.54"/><circle cx="160" cy="62" r="1" fill="#dffaff" fill-opacity="0.12"/><circle cx="325" cy="434" r="2" fill="#dffaff" fill-opacity="0.20"/><circle cx="1285" cy="1021" r="1" fill="#dffaff" fill-opacity="0.52"/><circle cx="1534" cy="1070" r="1.5" fill="#dffaff" fill-opacity="0.37"/><circle cx="285" cy="1032" r="1.5" fill="#dffaff" fill-opacity="0.28"/><circle cx="1429" cy="595" r="1" fill="#dffaff" fill-opacity="0.38"/><circle cx="1591" cy="139" r="1.5" fill="#dffaff" fill-opacity="0.47"/><circle cx="981" cy="832" r="1" fill="#dffaff" fill-opacity="0.53"/><circle cx="286" cy="242" r="1" fill="#dffaff" fill-opacity="0.16"/><circle cx="541" cy="862" r="1" fill="#dffaff" fill-opacity="0.43"/><circle cx="1680" cy="180" r="2" fill="#dffaff" fill-opacity="0.18"/><circle cx="1687" cy="529" r="1" fill="#dffaff" fill-opacity="0.18"/><circle cx="103" cy="534" r="1.5" fill="#dffaff" fill-opacity="0.08"/><circle cx="324" cy="667" r="1" fill="#dffaff" fill-opacity="0.32"/><circle cx="862" cy="1065" r="1.5" fill="#dffaff" fill-opacity="0.39"/><circle cx="1762" cy="635" r="1" fill="#dffaff" fill-opacity="0.44"/><circle cx="16" cy="447" r="1" fill="#dffaff" fill-opacity="0.19"/><circle cx="499" cy="662" r="1.5" fill="#dffaff" fill-opacity="0.13"/><circle cx="370" cy="805" r="1" fill="#dffaff" fill-opacity="0.20"/><circle cx="436" cy="756" r="1" fill="#dffaff" fill-opacity="0.33"/><circle cx="1121" cy="813" r="1" fill="#dffaff" fill-opacity="0.38"/><circle cx="88" cy="452" r="2" fill="#dffaff" fill-opacity="0.41"/><circle cx="1253" cy="506" r="1" fill="#dffaff" fill-opacity="0.53"/><circle cx="811" cy="76" r="1.5" fill="#dffaff" fill-opacity="0.20"/><circle cx="864" cy="181" r="1" fill="#dffaff" fill-opacity="0.50"/><circle cx="215" cy="535" r="1" fill="#dffaff" fill-opacity="0.28"/><circle cx="1282" cy="325" r="1" fill="#dffaff" fill-opacity="0.52"/><circle cx="223" cy="671" r="1.5" fill="#dffaff" fill-opacity="0.10"/><circle cx="1138" cy="409" r="1" fill="#dffaff" fill-opacity="0.19"/><circle cx="4" cy="295" r="2" fill="#dffaff" fill-opacity="0.51"/><circle cx="1350" cy="707" r="1" fill="#dffaff" fill-opacity="0.37"/><circle cx="30" cy="57" r="1" fill="#dffaff" fill-opacity="0.30"/><circle cx="564" cy="498" r="1" fill="#dffaff" fill-opacity="0.19"/><circle cx="471" cy="232" r="1.5" fill="#dffaff" fill-opacity="0.34"/><circle cx="486" cy="675" r="1.5" fill="#dffaff" fill-opacity="0.26"/><circle cx="343" cy="229" r="1" fill="#dffaff" fill-opacity="0.13"/><circle cx="265" cy="317" r="1" fill="#dffaff" fill-opacity="0.28"/><circle cx="1394" cy="971" r="2" fill="#dffaff" fill-opacity="0.17"/><circle cx="277" cy="259" r="2" fill="#dffaff" fill-opacity="0.54"/><circle cx="1736" cy="427" r="2" fill="#dffaff" fill-opacity="0.25"/><circle cx="1019" cy="492" r="1" fill="#dffaff" fill-opacity="0.32"/><circle cx="65" cy="880" r="1" fill="#dffaff" fill-opacity="0.40"/><circle cx="1122" cy="156" r="2" fill="#dffaff" fill-opacity="0.40"/><circle cx="136" cy="680" r="1" fill="#dffaff" fill-opacity="0.29"/><circle cx="1304" cy="716" r="1" fill="#dffaff" fill-opacity="0.45"/><circle cx="832" cy="1023" r="2" fill="#dffaff" fill-opacity="0.18"/><circle cx="946" cy="773" r="1" fill="#dffaff" fill-opacity="0.25"/><circle cx="213" cy="994" r="1" fill="#dffaff" fill-opacity="0.13"/><circle cx="853" cy="543" r="1" fill="#dffaff" fill-opacity="0.24"/><circle cx="756" cy="593" r="1" fill="#dffaff" fill-opacity="0.54"/><circle cx="1063" cy="409" r="1" fill="#dffaff" fill-opacity="0.46"/><circle cx="1691" cy="350" r="1.5" fill="#dffaff" fill-opacity="0.43"/><circle cx="353" cy="699" r="1" fill="#dffaff" fill-opacity="0.28"/><circle cx="121" cy="101" r="2" fill="#dffaff" fill-opacity="0.16"/><circle cx="468" cy="124" r="1" fill="#dffaff" fill-opacity="0.11"/><circle cx="706" cy="468" r="2" fill="#dffaff" fill-opacity="0.52"/><circle cx="1512" cy="516" r="1.5" fill="#dffaff" fill-opacity="0.46"/><circle cx="1034" cy="608" r="1" fill="#dffaff" fill-opacity="0.51"/><circle cx="223" cy="825" r="2" fill="#dffaff" fill-opacity="0.36"/><circle cx="436" cy="356" r="2" fill="#dffaff" fill-opacity="0.47"/><circle cx="950" cy="438" r="1" fill="#dffaff" fill-opacity="0.17"/><circle cx="1859" cy="993" r="1" fill="#dffaff" fill-opacity="0.41"/><circle cx="1142" cy="884" r="1" fill="#dffaff" fill-opacity="0.09"/><circle cx="1516" cy="741" r="1" fill="#dffaff" fill-opacity="0.41"/><circle cx="719" cy="293" r="1" fill="#dffaff" fill-opacity="0.20"/><circle cx="1782" cy="1023" r="1" fill="#dffaff" fill-opacity="0.32"/><circle cx="181" cy="829" r="1" fill="#dffaff" fill-opacity="0.30"/><circle cx="789" cy="444" r="2" fill="#dffaff" fill-opacity="0.48"/><circle cx="1910" cy="519" r="1" fill="#dffaff" fill-opacity="0.41"/><circle cx="721" cy="248" r="1" fill="#dffaff" fill-opacity="0.22"/><circle cx="713" cy="202" r="1" fill="#dffaff" fill-opacity="0.41"/><circle cx="1240" cy="366" r="2" fill="#dffaff" fill-opacity="0.49"/><circle cx="1475" cy="907" r="1" fill="#dffaff" fill-opacity="0.09"/><circle cx="1414" cy="194" r="1.5" fill="#dffaff" fill-opacity="0.22"/><circle cx="980" cy="541" r="1.5" fill="#dffaff" fill-opacity="0.31"/><circle cx="260" cy="201" r="1" fill="#dffaff" fill-opacity="0.10"/><circle cx="1324" cy="688" r="1.5" fill="#dffaff" fill-opacity="0.54"/><circle cx="1870" cy="375" r="2" fill="#dffaff" fill-opacity="0.38"/><circle cx="1493" cy="885" r="1" fill="#dffaff" fill-opacity="0.49"/><circle cx="464" cy="300" r="1" fill="#dffaff" fill-opacity="0.46"/><circle cx="838" cy="619" r="1" fill="#dffaff" fill-opacity="0.50"/><circle cx="517" cy="569" r="1.5" fill="#dffaff" fill-opacity="0.42"/><circle cx="648" cy="470" r="1" fill="#dffaff" fill-opacity="0.34"/><circle cx="250" cy="441" r="1" fill="#dffaff" fill-opacity="0.54"/><circle cx="327" cy="533" r="1" fill="#dffaff" fill-opacity="0.16"/><circle cx="184" cy="79" r="1" fill="#dffaff" fill-opacity="0.37"/><circle cx="838" cy="188" r="1" fill="#dffaff" fill-opacity="0.33"/><circle cx="436" cy="519" r="1" fill="#dffaff" fill-opacity="0.17"/><circle cx="937" cy="993" r="1.5" fill="#dffaff" fill-opacity="0.23"/><circle cx="1117" cy="908" r="1" fill="#dffaff" fill-opacity="0.38"/><circle cx="610" cy="826" r="2" fill="#dffaff" fill-opacity="0.26"/><circle cx="909" cy="859" r="1.5" fill="#dffaff" fill-opacity="0.10"/><circle cx="1029" cy="212" r="1" fill="#dffaff" fill-opacity="0.34"/><circle cx="1444" cy="654" r="1.5" fill="#dffaff" fill-opacity="0.53"/><circle cx="1002" cy="218" r="1" fill="#dffaff" fill-opacity="0.15"/><circle cx="1268" cy="641" r="1" fill="#dffaff" fill-opacity="0.53"/><circle cx="37" cy="460" r="1.5" fill="#dffaff" fill-opacity="0.24"/><circle cx="1857" cy="1038" r="1" fill="#dffaff" fill-opacity="0.17"/><circle cx="1513" cy="832" r="1" fill="#dffaff" fill-opacity="0.50"/><circle cx="29" cy="258" r="1" fill="#dffaff" fill-opacity="0.48"/><circle cx="846" cy="708" r="1" fill="#dffaff" fill-opacity="0.14"/><circle cx="426" cy="1065" r="1" fill="#dffaff" fill-opacity="0.47"/><circle cx="984" cy="304" r="2" fill="#dffaff" fill-opacity="0.09"/><circle cx="1132" cy="569" r="1.5" fill="#dffaff" fill-opacity="0.29"/><circle cx="518" cy="681" r="2" fill="#dffaff" fill-opacity="0.47"/><circle cx="416" cy="454" r="1.5" fill="#dffaff" fill-opacity="0.31"/><circle cx="1816" cy="0" r="1" fill="#dffaff" fill-opacity="0.13"/><circle cx="586" cy="440" r="1" fill="#dffaff" fill-opacity="0.32"/><circle cx="311" cy="889" r="2" fill="#dffaff" fill-opacity="0.32"/><circle cx="568" cy="337" r="2" fill="#dffaff" fill-opacity="0.10"/><circle cx="746" cy="589" r="1" fill="#dffaff" fill-opacity="0.37"/><circle cx="1086" cy="548" r="1.5" fill="#dffaff" fill-opacity="0.33"/><circle cx="137" cy="675" r="1" fill="#dffaff" fill-opacity="0.28"/><circle cx="1731" cy="275" r="1" fill="#dffaff" fill-opacity="0.40"/><circle cx="557" cy="129" r="1" fill="#dffaff" fill-opacity="0.12"/><circle cx="610" cy="994" r="1" fill="#dffaff" fill-opacity="0.53"/><circle cx="548" cy="587" r="2" fill="#dffaff" fill-opacity="0.27"/></g>
<g fill="none" stroke="#76eaff" stroke-opacity=".24" stroke-width="2"><path d="M1040 610c120-50 160-300 285-280s100 210 225 245" stroke-dasharray="18 12"/><circle cx="1040" cy="610" r="24"/><circle cx="1325" cy="330" r="24"/><circle cx="1550" cy="575" r="24"/><path d="M1280 210l45 75h-90z" stroke="#ffbd61" stroke-opacity=".5"/></g>
<g font-family="Arial, Helvetica, sans-serif" letter-spacing="8" fill="#dffaff">
 <text x="90" y="885" font-size="38" font-weight="700" fill-opacity=".3">ROADMAP WATCH</text>
 <text x="94" y="930" font-size="16" fill="#76eaff" fill-opacity=".32">ORG SYSTEM READINESS</text>
</g>
<path d="M90 965h560" stroke="#ffbd61" stroke-opacity=".25" stroke-width="3"/>
</svg>