<svg xmlns="http://www.w3.org/2000/svg" viewBox="0 0 1920 1080" role="img" aria-label="TRADE PLANNER background">
<defs>
 <linearGradient id="bg" x1="0" y1="0" x2="1" y2="1"><stop stop-color="#02070c"/><stop offset=".48" stop-color="#071827"/><stop offset="1" stop-color="#02060a"/></linearGradient>
 <radialGradient id="glow"><stop stop-color="#21b9d8" stop-opacity=".22"/><stop offset="1" stop-color="#21b9d8" stop-opacity="0"/></radialGradient>
 <pattern id="grid" width="72" height="72" patternUnits="userSpaceOnUse"><path d="M72 0H0V72" fill="none" stroke="#7cecff" stroke-opacity=".035"/></pattern>
</defs>
<rect width="1920" height="1080" fill="url(#bg)"/>
<rect width="1920" height="1080" fill="url(#grid)"/>
<ellipse cx="1320" cy="430" rx="620" ry="520" fill="url(#glow)"/>
<g><circle cx="721" cy="444" r="1" fill="#dffaff" fill-opacity="0.41"/><circle cx="878" cy="918" r="2" fill="#dffaff" fill-opacity="0.31"/><circle cx="1372" cy="81" r="1" fill="#dffaff" fill-opacity="0.46"/><circle cx="428" cy="747" r="1" fill="#dffaff" fill-opacity="0.25"/><circle cx="567" cy="51" r="2" fill="#dffaff" fill-opacity="0.17"/><circle cx="766" cy="30" r="1" fill="#dffaff" fill-opacity="0.27"/><circle cx="1463" cy="836" r="1.5" fill="#dffaff" fill-opacity="0.54"/><circle cx="193" cy="403" r="1" fill="#dffaff" fill-opacity="0.53"/><circle cx="1902" cy="682" r="1" fill="#dffaff" fill-opacity="0.21"/><circle cx="425" cy="413" r="1" fill="#dffaff" fill-opacity="0.21"/><circle cx="1783" cy="6" r="1" fill="#dffaff" fill-opacity="0.24"/><circle cx="1001" cy="744" r="1" fill="#dffaff" fill-opacity="0.24"/><circle cx="849" cy="976" r="1.5" fill="#dffaff" fill-opacity="0.54"/><circle cx="380" cy="343" r="1" fill="#dffaff" fill-opacity="0.42"/><circle cx="1463" cy="694" r="1.5" fill="#dffaff" fill-opacity="0.27"/><circle cx="275" cy="184" r="2" fill="#dffaff" fill-opacity="0.50"/><circle cx="1040" cy="434" r="1.5" fill="#dffaff" fill-opacity="0.50"/><circle cx="1876" cy="966" r="1.5" fill="#dffaff" fill-opacity="0.20"/><circle cx="1391" cy="326" r="1" fill="#dffaff" fill-opacity="0.15"/><circle cx="941" cy="171" r="1" fill="#dffaff" fill-opacity="0.52"/><circle cx="1155" cy="344" r="1" fill="#dffaff" fill-opacity="0.19"/><circle cx="1847" cy="313" r="1" fill="#dffaff" fill-opacity="0.11"/><circle cx="1713" cy="906" r="1" fill="#dffaff" fill-opacity="0.37"/><circle cx="1020" cy="461" r="1.5" fill="#dffaff" fill-opacity="0.09"/><circle cx="1768" cy="721" r="2" fill="#dffaff" fill-opacity="0.41"/><circle cx="1839" cy="463" r="1" fill="#dffaff" fill-opacity="0.10"/><circle cx="1829" cy="36" r="2" fill="#dffaff" fill-opacity="0.49"/><circle cx="1294" cy="532" r="1" fill="#dffaff" fill-opacity="0.41"/><circle cx="1874" cy="929" r="1" fill="#dffaff" fill-opacity="0.23"/><circle cx="1347" cy="392" r="1.5" fill="#dffaff" fill-opacity="0.31"/><circle cx="604" cy="441" r="1" fill="#dffaff" fill-opacity="0.55"/><circle cx="1628" cy="203" r="1.5" fill="#dffaff" fill-opacity="0.13"/><circle cx="1616" cy="631" r="1" fill="#dffaff" fill-opacity="0.20"/><circle cx="108" cy="718" r="1" fill="#dffaff" fill-opacity="0.44"/><circle cx="1583" cy="162" r="1" fill="#dffaff" fill-opacity="0.20"/><circle cx="1382" cy="741" r="1" fill="#dffaff" fill-opacity="0.49"/><circle cx="1249" cy="560" r="1" fill="#dffaff" fill-opacity="0.39"/><circle cx="319" cy="319" r="1" fill="#dffaff" fill-opacity="0.33"/><circle cx="558" cy="716" r="1" fill="#dffaff" fill-opacity="0.26"/><circle cx="446" cy="703" r="1" fill="#dffaff" fill-opacity="0.16"/><circle cx="885" cy="868" r="1.5" fill="#dffaff" fill-opacity="0.20"/><circle cx="278" cy="240" r="1" fill="#dffaff" fill-opacity="0.23"/><circle cx="492" cy="784" r="2" fill="#dffaff" fill-opacity="0.25"/><circle cx="1431" cy="156" r="1" fill="#dffaff" fill-opacity="0.17"/><circle cx="1" cy="209" r="1" fill="#dffaff" fill-opacity="0.16"/><circle cx="535" cy="575" r="1" fill="#dffaff" fill-opacity="0.09"/><circle cx="1359" cy="446" r="1" fill="#dffaff" fill-opacity="0.54"/><circle cx="785" cy="104" r="1.5" fill="#dffaff" fill-opacity="0.46"/><circle cx="770" cy="457" r="1" fill="#dffaff" fill-opacity="0.26"/><circle cx="442" cy="1023" r="1" fill="#dffaff" fill-opacity="0.37"/><circle cx="1203" cy="419" r="1.5" fill="#dffaff" fill-opacity="0.44"/><circle cx="77" cy="106" r="1" fill="#dffaff" fill-opacity="0.51"/><circle cx="712" cy="68" r="1.5" fill="#dffaff" fill-opacity="0.24"/><circle cx="516" cy="33" r="1.5" fill="#dffaff" fill-opacity="0.37"/><circle cx="746" cy="98" r="1" fill="#dffaff" fill-opacity="0.21"/><circle cx="1634" cy="950" r="1.5" fill="#dffaff" fill-opacity="0.51"/><circle cx="1306" cy="931" r="1" fill="#dffaff" fill-opacity="0.49"/><circle cx="471" cy="819" r="1.5" fill="#dffaff" fill-opacity="0.35"/><circle cx="1432" cy="648" r="2" fill="#dffaff" fill-opacity="0.37"/><circle cx="481" cy="92" r="1" fill="#dffaff" fill-opacity="0.48"/><circle cx="1375" cy="412" r="1" fill="#dffaff" fill-opacity="0.47"/><circle cx="1434" cy="48" r="1.5" fill="#dffaff" fill-opacity="0.50"/><circle cx="1807" cy="584" r="1.5" fill="#dffaff" fill-opacity="0.42"/><circle cx="894" cy="145" r="1" fill="#dffaff" fill-opacity="0.53"/><circle cx="48" cy="548" r="1" fill="#dffaff" fill-opacity="0.34"/><circle cx="56" cy="236" r="2" fill="#dffaff" fill-opacity="0.46"/><circle cx="117" cy="496" r="1" fill="#dffaff" fill-opacity="0.38"/><circle cx="994" cy="715" r="1" fill="#dffaff" fill-opacity="0.18"/><circle cx="1827" cy="427" r="1" fill="#dffaff" fill-opacity="0.41"/><circle cx="140" cy="572" r="1" fill="#dffaff" fill-opacity="0.30"/><circle cx="1742" cy="633" r="2" fill="#dffaff" fill-opacity="0.51"/><circle cx="209" cy="546" r="1" fill="#dffaff" fill-opacity="0.18"/><circle cx="1686" cy="356" r="1.5" fill="#dffaff" fill-opacity="0.16"/><circle cx="1121" cy="147" r="1" fill="#dffaff" fill-opacity="0.40"/><circle cx="629" cy="1051" r="1.5" fill="#dffaff" fill-opacity="0.26"/><circle cx="373" cy="785" r="2" fill="#dffaff" fill-opacity="0.08"/><circle cx="1247" cy="514" r="1.5" fill="#dffaff" fill-opacity="0.49"/><circle cx="699" cy="70" r="1" fill="#dffaff" fill-opacity="0.17"/><circle cx="493" cy="175" r="2" fill="#dffaff" fill-opacity="0.32"/><circle cx="1358" cy="989" r="1" fill="#dffaff" fill-opacity="0.44"/><circle cx="876" cy="42" r="1" fill="#dffaff" fill-opacity="0.15"/><circle cx="902" cy="269" r="1.5" fill="#dffaff" fill-opacity="0.46"/><circle cx="1396" cy="410" r="1.5" fill="#dffaff" fill-opacity="0.36"/><circle cx="359" cy="1072" r="1.5" fill="#dffaff" fill-opacity="0.34"/><circle cx="92" cy="765" r="2" fill="#dffaff" fill-opacity="0.18"/><circle cx="11" cy="853" r="1" fill="#dffaff" fill-opacity="0.55"/><circle cx="383" cy="1046" r="1" fill="#dffaff" fill-opacity="0.39"/><circle cx="1234" cy="742" r="1.5" fill="#dffaff" fill-opacity="0.23"/><circle cx="1262" cy="59" r="1" fill="#dffaff" fill-opacity="0.47"/><circle cx="1301" cy="112" r="2" fill="#dffaff" fill-opacity="0.21"/><circle cx="305" cy="517" r="1" fill="#dffaff" fill-opacity="0.50"/><circle cx="297" cy="918" r="1" fill="#dffaff" fill-opacity="0.10"/><circle cx="1287" cy="615" r="2" fill="#dffaff" fill-opacity="0.46"/><circle cx="1279" cy="1065" r="1.5" fill="#dffaff" fill-opacity="0.31"/><circle cx="1020" cy="1055" r="2" fill="#dffaff" fill-opacity="0.28"/><circle cx="339" cy="947" r="1.5" fill="#dffaff" fill-opacity="0.50"/><circle cx="6" cy="973" r="1.5" fill="#dffaff" fill-opacity="0.49"/><circle cx="358" cy="796" r="2" fill="#dffaff" fill-opacity="0.23"/><circle cx="891" cy="171" r="1" fill="#dffaff" fill-opacity="0.35"/><circle cx="1855" cy="169" r="1" fill="#dffaff" fill-opacity="0.23"/><circle cx="166" cy="19" r="1" fill="#dffaff" fill-opacity="0.31"/><circle cx="194" cy="892" r="1.5" fill="#dffaff" fill-opacity="0.20"/><circle cx="112" cy="984" r="1.5" fill="#dffaff" fill-opacity="0.43"/><circle cx="994" cy="916" r="1" fill="#dffaff" fill-opacity="0.49"/><circle cx="1894" cy="255" r="1" fill="#dffaff" fill-opacity="0.28"/><circle cx="363" cy="154" r="1" fill="#dffaff" fill-opacity="0.34"/><circle cx="0" cy="734" r="2" fill="#dffaff" fill-opacity="0.41"/><circle cx="804" cy="29" r="1" fill="#dffaff" fill-opacity="0.39"/><circle cx="1603" cy="905" r="1" fill="#dffaff" fill-opacity="0.53"/><circle cx="311" cy="627" r="2" fill="#dffaff" fill-opacity="0.43"/><circle cx="1668" cy="377" r="1" fill="#dffaff" fill-opacity="0.17"/><circle cx="452" cy="610" r="1" fill="#dffaff" fill-opacity="0.40"/><circle cx="1130" cy="763" r="1" fill="#dffaff" fill-opacity="0.31"/><circle cx="392" cy="371" r="1" fill="#dffaff" fill-opacity="0.46"/><circle cx="1490" cy="424" r="1" fill="#dffaff" fill-opacity="0.40"/><circle cx="14" cy="6" r="1.5" fill="#dffaff" fill-opacity="0.51"/><circle cx="612" cy="470" r="1" fill="#dffaff" fill-opacity="0.24"/><circle cx="912" cy="465" r="1.5" fill="#dffaff" fill-opacity="0.31"/><circle cx="1238" cy="449" r="2" fill="#dffaff" fill-opacity="0.34"/><circle cx="316" cy="783" r="1" fill="#dffaff" fill-opacity="0.15"/></g>
<g fill="none" stroke="#76eaff" stroke-opacity=".24" stroke-width="2"><circle cx="1060" cy="535" r="18"/><circle cx="1470" cy="245" r="18"/><path d="M1078 525C1190 460 1240 300 1452 255" stroke-dasharray="12 12"/><path d="M1270 410l60-14-24 56z" fill="#ffbd61" fill-opacity=".32"/></g>
<g font-family="Arial, Helvetica, sans-serif" letter-spacing="8" fill="#dffaff">
 <text x="90" y="885" font-size="38" font-weight="700" fill-opacity=".3">TRADE PLANNER</text>
 <text x="94" y="930" font-size="16" fill="#76eaff" fill-opacity=".32">INTERSYSTEM ROUTES</text>
</g>
<path d="M90 965h560" stroke="#ffbd61" stroke-opacity=".25" stroke-width="3"/>
</svg>