<svg xmlns="http://www.w3.org/2000/svg" viewBox="0 0 1920 1080" role="img" aria-label="TREASURY background">
<defs>
 <linearGradient id="bg" x1="0" y1="0" x2="1" y2="1"><stop stop-color="#02070c"/><stop offset=".48" stop-color="#071827"/><stop offset="1" stop-color="#02060a"/></linearGradient>
 <radialGradient id="glow"><stop stop-color="#21b9d8" stop-opacity=".22"/><stop offset="1" stop-color="#21b9d8" stop-opacity="0"/></radialGradient>
 <pattern id="grid" width="72" height="72" patternUnits="userSpaceOnUse"><path d="M72 0H0V72" fill="none" stroke="#7cecff" stroke-opacity=".035"/></pattern>
</defs>
<rect width="1920" height="1080" fill="url(#bg)"/>
<rect width="1920" height="1080" fill="url(#grid)"/>
<ellipse cx="1320" cy="430" rx="620" ry="520" fill="url(#glow)"/>
<g><circle cx="941" cy="803" r="1" fill="#dffaff" fill-opacity="0.16"/><circle cx="434" cy="389" r="1" fill="#dffaff" fill-opacity="0.21"/><circle cx="470" cy="468" r="1" fill="#dffaff" fill-opacity="0.27"/><circle cx="676" cy="336" r="1" fill="#dffaff" fill-opacity="0.30"/><circle cx="1545" cy="529" r="2" fill="#dffaff" fill-opacity="0.11"/><circle cx="1569" cy="245" r="1" fill="#dffaff" fill-opacity="0.14"/><circle cx="1029" cy="493" r="1" fill="#dffaff" fill-opacity="0.21"/><circle cx="262" cy="516" r="1" fill="#dffaff" fill-opacity="0.15"/><circle cx="1296" cy="201" r="1" fill="#dffaff" fill-opacity="0.40"/><circle cx="182" cy="995" r="1.5" fill="#dffaff" fill-opacity="0.34"/><circle cx="655" cy="372" r="1.5" fill="#dffaff" fill-opacity="0.40"/><circle cx="669" cy="377" r="1" fill="#dffaff" fill-opacity="0.18"/><circle cx="766" cy="21" r="1" fill="#dffaff" fill-opacity="0.23"/><circle cx="1446" cy="139" r="1" fill="#dffaff" fill-opacity="0.52"/><circle cx="1661" cy="537" r="1" fill="#dffaff" fill-opacity="0.21"/><circle cx="254" cy="1074" r="2" fill="#dffaff" fill-opacity="0.38"/><circle cx="254" cy="924" r="1" fill="#dffaff" fill-opacity="0.22"/><circle cx="1257" cy="310" r="1" fill="#dffaff" fill-opacity="0.53"/><circle cx="111" cy="196" r="1" fill="#dffaff" fill-opacity="0.11"/><circle cx="1036" cy="474" r="2" fill="#dffaff" fill-opacity="0.30"/><circle cx="353" cy="703" r="1" fill="#dffaff" fill-opacity="0.49"/><circle cx="1880" cy="166" r="1" fill="#dffaff" fill-opacity="0.27"/><circle cx="825" cy="640" r="1" fill="#dffaff" fill-opacity="0.32"/><circle cx="303" cy="938" r="2" fill="#dffaff" fill-opacity="0.09"/><circle cx="947" cy="104" r="1" fill="#dffaff" fill-opacity="0.19"/><circle cx="1327" cy="846" r="2" fill="#dffaff" fill-opacity="0.32"/><circle cx="991" cy="846" r="1" fill="#dffaff" fill-opacity="0.32"/><circle cx="104" cy="584" r="1" fill="#dffaff" fill-opacity="0.24"/><circle cx="127" cy="981" r="1" fill="#dffaff" fill-opacity="0.34"/><circle cx="1558" cy="712" r="1.5" fill="#dffaff" fill-opacity="0.51"/><circle cx="1400" cy="597" r="1.5" fill="#dffaff" fill-opacity="0.11"/><circle cx="1846" cy="232" r="2" fill="#dffaff" fill-opacity="0.49"/><circle cx="76" cy="664" r="1" fill="#dffaff" fill-opacity="0.48"/><circle cx="721" cy="114" r="1" fill="#dffaff" fill-opacity="0.11"/><circle cx="113" cy="38" r="2" fill="#dffaff" fill-opacity="0.54"/><circle cx="738" cy="833" r="1" fill="#dffaff" fill-opacity="0.26"/><circle cx="885" cy="836" r="1" fill="#dffaff" fill-opacity="0.29"/><circle cx="1844" cy="268" r="1.5" fill="#dffaff" fill-opacity="0.39"/><circle cx="611" cy="784" r="1" fill="#dffaff" fill-opacity="0.25"/><circle cx="1742" cy="105" r="2" fill="#dffaff" fill-opacity="0.16"/><circle cx="1771" cy="455" r="2" fill="#dffaff" fill-opacity="0.27"/><circle cx="1439" cy="529" r="1" fill="#dffaff" fill-opacity="0.30"/><circle cx="1512" cy="882" r="2" fill="#dffaff" fill-opacity="0.20"/><circle cx="1054" cy="1" r="1" fill="#dffaff" fill-opacity="0.17"/><circle cx="1836" cy="504" r="1" fill="#dffaff" fill-opacity="0.12"/><circle cx="879" cy="548" r="1" fill="#dffaff" fill-opacity="0.20"/><circle cx="1841" cy="51" r="1" fill="#dffaff" fill-opacity="0.36"/><circle cx="1782" cy="752" r="2" fill="#dffaff" fill-opacity="0.17"/><circle cx="1587" cy="687" r="1" fill="#dffaff" fill-opacity="0.38"/><circle cx="802" cy="515" r="1" fill="#dffaff" fill-opacity="0.22"/><circle cx="192" cy="864" r="1" fill="#dffaff" fill-opacity="0.21"/><circle cx="436" cy="470" r="1" fill="#dffaff" fill-opacity="0.45"/><circle cx="1243" cy="494" r="1.5" fill="#dffaff" fill-opacity="0.35"/><circle cx="1447" cy="524" r="2" fill="#dffaff" fill-opacity="0.10"/><circle cx="1061" cy="204" r="2" fill="#dffaff" fill-opacity="0.25"/><circle cx="1135" cy="915" r="1" fill="#dffaff" fill-opacity="0.38"/><circle cx="929" cy="947" r="2" fill="#dffaff" fill-opacity="0.15"/><circle cx="388" cy="955" r="2" fill="#dffaff" fill-opacity="0.42"/><circle cx="1657" cy="885" r="1" fill="#dffaff" fill-opacity="0.10"/><circle cx="1027" cy="1019" r="2" fill="#dffaff" fill-opacity="0.13"/><circle cx="1151" cy="126" r="1" fill="#dffaff" fill-opacity="0.12"/><circle cx="576" cy="332" r="1" fill="#dffaff" fill-opacity="0.39"/><circle cx="505" cy="835" r="1" fill="#dffaff" fill-opacity="0.45"/><circle cx="1308" cy="570" r="2" fill="#dffaff" fill-opacity="0.52"/><circle cx="1784" cy="902" r="1" fill="#dffaff" fill-opacity="0.12"/><circle cx="117" cy="1018" r="2" fill="#dffaff" fill-opacity="0.18"/><circle cx="1699" cy="618" r="1" fill="#dffaff" fill-opacity="0.18"/><circle cx="1914" cy="476" r="1" fill="#dffaff" fill-opacity="0.52"/><circle cx="1695" cy="582" r="1" fill="#dffaff" fill-opacity="0.51"/><circle cx="903" cy="240" r="1" fill="#dffaff" fill-opacity="0.08"/><circle cx="283" cy="1059" r="1" fill="#dffaff" fill-opacity="0.22"/><circle cx="1432" cy="923" r="1.5" fill="#dffaff" fill-opacity="0.20"/><circle cx="313" cy="938" r="1" fill="#dffaff" fill-opacity="0.50"/><circle cx="1437" cy="193" r="1" fill="#dffaff" fill-opacity="0.18"/><circle cx="1492" cy="1066" r="1" fill="#dffaff" fill-opacity="0.50"/><circle cx="552" cy="110" r="2" fill="#dffaff" fill-opacity="0.49"/><circle cx="654" cy="143" r="1" fill="#dffaff" fill-opacity="0.33"/><circle cx="1341" cy="39" r="2" fill="#dffaff" fill-opacity="0.53"/><circle cx="1634" cy="279" r="1.5" fill="#dffaff" fill-opacity="0.54"/><circle cx="1247" cy="490" r="1" fill="#dffaff" fill-opacity="0.20"/><circle cx="1731" cy="252" r="1" fill="#dffaff" fill-opacity="0.34"/><circle cx="971" cy="133" r="2" fill="#dffaff" fill-opacity="0.39"/><circle cx="925" cy="928" r="2" fill="#dffaff" fill-opacity="0.18"/><circle cx="1241" cy="106" r="1" fill="#dffaff" fill-opacity="0.09"/><circle cx="315" cy="984" r="1" fill="#dffaff" fill-opacity="0.42"/><circle cx="1630" cy="355" r="1" fill="#dffaff" fill-opacity="0.15"/><circle cx="372" cy="585" r="1" fill="#dffaff" fill-opacity="0.50"/><circle cx="118" cy="622" r="1" fill="#dffaff" fill-opacity="0.09"/><circle cx="636" cy="1021" r="1" fill="#dffaff" fill-opacity="0.38"/><circle cx="1193" cy="48" r="1.5" fill="#dffaff" fill-opacity="0.35"/><circle cx="1542" cy="951" r="1.5" fill="#dffaff" fill-opacity="0.32"/><circle cx="1561" cy="238" r="1" fill="#dffaff" fill-opacity="0.35"/><circle cx="1401" cy="217" r="1" fill="#dffaff" fill-opacity="0.13"/><circle cx="651" cy="1080" r="1" fill="#dffaff" fill-opacity="0.30"/><circle cx="1290" cy="919" r="2" fill="#dffaff" fill-opacity="0.11"/><circle cx="535" cy="835" r="1.5" fill="#dffaff" fill-opacity="0.11"/><circle cx="1159" cy="748" r="1.5" fill="#dffaff" fill-opacity="0.30"/><circle cx="143" cy="297" r="1" fill="#dffaff" fill-opacity="0.53"/><circle cx="1536" cy="348" r="1" fill="#dffaff" fill-opacity="0.34"/><circle cx="1867" cy="346" r="2" fill="#dffaff" fill-opacity="0.12"/><circle cx="1700" cy="13" r="1" fill="#dffaff" fill-opacity="0.44"/><circle cx="261" cy="639" r="1" fill="#dffaff" fill-opacity="0.12"/><circle cx="1524" cy="710" r="1" fill="#dffaff" fill-opacity="0.35"/><circle cx="1238" cy="49" r="1" fill="#dffaff" fill-opacity="0.45"/><circle cx="1842" cy="670" r="1.5" fill="#dffaff" fill-opacity="0.52"/><circle cx="1635" cy="799" r="1" fill="#dffaff" fill-opacity="0.42"/><circle cx="689" cy="796" r="1" fill="#dffaff" fill-opacity="0.23"/><circle cx="1169" cy="984" r="1" fill="#dffaff" fill-opacity="0.13"/><circle cx="1617" cy="162" r="2" fill="#dffaff" fill-opacity="0.52"/><circle cx="732" cy="789" r="2" fill="#dffaff" fill-opacity="0.44"/><circle cx="547" cy="965" r="1" fill="#dffaff" fill-opacity="0.23"/><circle cx="756" cy="924" r="1" fill="#dffaff" fill-opacity="0.09"/><circle cx="1854" cy="575" r="2" fill="#dffaff" fill-opacity="0.48"/><circle cx="117" cy="64" r="1.5" fill="#dffaff" fill-opacity="0.31"/><circle cx="1688" cy="120" r="1" fill="#dffaff" fill-opacity="0.37"/><circle cx="953" cy="145" r="1" fill="#dffaff" fill-opacity="0.49"/><circle cx="1585" cy="753" r="1" fill="#dffaff" fill-opacity="0.20"/><circle cx="1399" cy="79" r="1" fill="#dffaff" fill-opacity="0.35"/><circle cx="1060" cy="403" r="1" fill="#dffaff" fill-opacity="0.43"/><circle cx="1774" cy="170" r="1.5" fill="#dffaff" fill-opacity="0.13"/></g>
<g fill="none" stroke="#76eaff" stroke-opacity=".24" stroke-width="2"><path d="M1050 220h460v430h-460zM1120 300h320M1120 370h320M1120 440h320M1120 510h200"/><circle cx="1430" cy="560" r="72" stroke="#ffbd61" stroke-opacity=".45"/></g>
<g font-family="Arial, Helvetica, sans-serif" letter-spacing="8" fill="#dffaff">
 <text x="90" y="885" font-size="38" font-weight="700" fill-opacity=".3">TREASURY</text>
 <text x="94" y="930" font-size="16" fill="#76eaff" fill-opacity=".32">POINTS & FUNDS</text>
</g>
<path d="M90 965h560" stroke="#ffbd61" stroke-opacity=".25" stroke-width="3"/>
</svg>