<svg xmlns="http://www.w3.org/2000/svg" viewBox="0 0 1920 1080" role="img" aria-label="ORG WAREHOUSE background">
<defs>
 <linearGradient id="bg" x1="0" y1="0" x2="1" y2="1"><stop stop-color="#02070c"/><stop offset=".48" stop-color="#071827"/><stop offset="1" stop-color="#02060a"/></linearGradient>
 <radialGradient id="glow"><stop stop-color="#21b9d8" stop-opacity=".22"/><stop offset="1" stop-color="#21b9d8" stop-opacity="0"/></radialGradient>
 <pattern id="grid" width="72" height="72" patternUnits="userSpaceOnUse"><path d="M72 0H0V72" fill="none" stroke="#7cecff" stroke-opacity=".035"/></pattern>
</defs>
<rect width="1920" height="1080" fill="url(#bg)"/>
<rect width="1920" height="1080" fill="url(#grid)"/>
<ellipse cx="1320" cy="430" rx="620" ry="520" fill="url(#glow)"/>
<g><circle cx="1749" cy="1080" r="1" fill="#dffaff" fill-opacity="0.32"/><circle cx="200" cy="785" r="1" fill="#dffaff" fill-opacity="0.14"/><circle cx="1112" cy="240" r="1" fill="#dffaff" fill-opacity="0.32"/><circle cx="1149" cy="201" r="1" fill="#dffaff" fill-opacity="0.12"/><circle cx="8" cy="373" r="1" fill="#dffaff" fill-opacity="0.37"/><circle cx="172" cy="711" r="1" fill="#dffaff" fill-opacity="0.26"/><circle cx="800" cy="366" r="1.5" fill="#dffaff" fill-opacity="0.49"/><circle cx="129" cy="1015" r="2" fill="#dffaff" fill-opacity="0.54"/><circle cx="752" cy="201" r="1" fill="#dffaff" fill-opacity="0.14"/><circle cx="388" cy="260" r="1" fill="#dffaff" fill-opacity="0.22"/><circle cx="607" cy="687" r="2" fill="#dffaff" fill-opacity="0.36"/><circle cx="500" cy="868" r="2" fill="#dffaff" fill-opacity="0.08"/><circle cx="801" cy="817" r="1" fill="#dffaff" fill-opacity="0.34"/><circle cx="1639" cy="577" r="2" fill="#dffaff" fill-opacity="0.35"/><circle cx="370" cy="688" r="1" fill="#dffaff" fill-opacity="0.33"/><circle cx="119" cy="922" r="2" fill="#dffaff" fill-opacity="0.20"/><circle cx="480" cy="599" r="2" fill="#dffaff" fill-opacity="0.54"/><circle cx="1722" cy="464" r="2" fill="#dffaff" fill-opacity="0.31"/><circle cx="1462" cy="675" r="1" fill="#dffaff" fill-opacity="0.26"/><circle cx="1268" cy="1052" r="1" fill="#dffaff" fill-opacity="0.32"/><circle cx="15" cy="890" r="2" fill="#dffaff" fill-opacity="0.54"/><circle cx="1010" cy="473" r="2" fill="#dffaff" fill-opacity="0.44"/><circle cx="1320" cy="216" r="1.5" fill="#dffaff" fill-opacity="0.20"/><circle cx="278" cy="789" r="1.5" fill="#dffaff" fill-opacity="0.46"/><circle cx="389" cy="347" r="2" fill="#dffaff" fill-opacity="0.13"/><circle cx="339" cy="82" r="1" fill="#dffaff" fill-opacity="0.46"/><circle cx="6" cy="767" r="1" fill="#dffaff" fill-opacity="0.52"/><circle cx="1279" cy="226" r="1.5" fill="#dffaff" fill-opacity="0.10"/><circle cx="1008" cy="22" r="1" fill="#dffaff" fill-opacity="0.49"/><circle cx="847" cy="452" r="1.5" fill="#dffaff" fill-opacity="0.15"/><circle cx="1502" cy="685" r="2" fill="#dffaff" fill-opacity="0.10"/><circle cx="139" cy="773" r="2" fill="#dffaff" fill-opacity="0.41"/><circle cx="884" cy="990" r="2" fill="#dffaff" fill-opacity="0.26"/><circle cx="1624" cy="161" r="2" fill="#dffaff" fill-opacity="0.34"/><circle cx="1162" cy="857" r="1.5" fill="#dffaff" fill-opacity="0.12"/><circle cx="442" cy="932" r="2" fill="#dffaff" fill-opacity="0.09"/><circle cx="36" cy="464" r="1" fill="#dffaff" fill-opacity="0.46"/><circle cx="60" cy="974" r="1" fill="#dffaff" fill-opacity="0.45"/><circle cx="1633" cy="378" r="1" fill="#dffaff" fill-opacity="0.51"/><circle cx="1441" cy="647" r="2" fill="#dffaff" fill-opacity="0.35"/><circle cx="1486" cy="53" r="2" fill="#dffaff" fill-opacity="0.30"/><circle cx="1205" cy="641" r="1" fill="#dffaff" fill-opacity="0.46"/><circle cx="280" cy="189" r="2" fill="#dffaff" fill-opacity="0.13"/><circle cx="63" cy="771" r="1.5" fill="#dffaff" fill-opacity="0.31"/><circle cx="814" cy="343" r="1" fill="#dffaff" fill-opacity="0.14"/><circle cx="796" cy="297" r="1" fill="#dffaff" fill-opacity="0.53"/><circle cx="1281" cy="204" r="2" fill="#dffaff" fill-opacity="0.47"/><circle cx="1117" cy="680" r="1" fill="#dffaff" fill-opacity="0.50"/><circle cx="349" cy="31" r="1" fill="#dffaff" fill-opacity="0.29"/><circle cx="1865" cy="976" r="1.5" fill="#dffaff" fill-opacity="0.13"/><circle cx="1919" cy="942" r="1" fill="#dffaff" fill-opacity="0.20"/><circle cx="1802" cy="456" r="1.5" fill="#dffaff" fill-opacity="0.48"/><circle cx="1272" cy="889" r="1" fill="#dffaff" fill-opacity="0.23"/><circle cx="1499" cy="125" r="1" fill="#dffaff" fill-opacity="0.18"/><circle cx="1173" cy="902" r="2" fill="#dffaff" fill-opacity="0.41"/><circle cx="99" cy="807" r="2" fill="#dffaff" fill-opacity="0.20"/><circle cx="1614" cy="234" r="2" fill="#dffaff" fill-opacity="0.22"/><circle cx="417" cy="177" r="1.5" fill="#dffaff" fill-opacity="0.32"/><circle cx="643" cy="414" r="2" fill="#dffaff" fill-opacity="0.09"/><circle cx="1746" cy="40" r="1.5" fill="#dffaff" fill-opacity="0.26"/><circle cx="1721" cy="685" r="1.5" fill="#dffaff" fill-opacity="0.42"/><circle cx="524" cy="338" r="1" fill="#dffaff" fill-opacity="0.46"/><circle cx="253" cy="800" r="1" fill="#dffaff" fill-opacity="0.22"/><circle cx="1838" cy="953" r="1" fill="#dffaff" fill-opacity="0.15"/><circle cx="367" cy="417" r="2" fill="#dffaff" fill-opacity="0.15"/><circle cx="967" cy="433" r="1" fill="#dffaff" fill-opacity="0.33"/><circle cx="133" cy="1070" r="2" fill="#dffaff" fill-opacity="0.40"/><circle cx="1901" cy="194" r="1" fill="#dffaff" fill-opacity="0.40"/><circle cx="364" cy="1011" r="1.5" fill="#dffaff" fill-opacity="0.31"/><circle cx="1751" cy="121" r="1" fill="#dffaff" fill-opacity="0.49"/><circle cx="1282" cy="1054" r="1" fill="#dffaff" fill-opacity="0.33"/><circle cx="714" cy="861" r="1" fill="#dffaff" fill-opacity="0.26"/><circle cx="1852" cy="579" r="1.5" fill="#dffaff" fill-opacity="0.48"/><circle cx="1593" cy="465" r="1" fill="#dffaff" fill-opacity="0.37"/><circle cx="854" cy="776" r="2" fill="#dffaff" fill-opacity="0.24"/><circle cx="641" cy="561" r="1" fill="#dffaff" fill-opacity="0.19"/><circle cx="1295" cy="511" r="1" fill="#dffaff" fill-opacity="0.32"/><circle cx="774" cy="919" r="1" fill="#dffaff" fill-opacity="0.27"/><circle cx="1299" cy="237" r="2" fill="#dffaff" fill-opacity="0.24"/><circle cx="296" cy="331" r="1.5" fill="#dffaff" fill-opacity="0.53"/><circle cx="1110" cy="141" r="1" fill="#dffaff" fill-opacity="0.12"/><circle cx="1503" cy="764" r="1" fill="#dffaff" fill-opacity="0.14"/><circle cx="748" cy="432" r="1" fill="#dffaff" fill-opacity="0.24"/><circle cx="994" cy="780" r="1" fill="#dffaff" fill-opacity="0.47"/><circle cx="131" cy="398" r="1" fill="#dffaff" fill-opacity="0.11"/><circle cx="1893" cy="1017" r="1" fill="#dffaff" fill-opacity="0.11"/><circle cx="1667" cy="960" r="1" fill="#dffaff" fill-opacity="0.10"/><circle cx="83" cy="698" r="1" fill="#dffaff" fill-opacity="0.17"/><circle cx="917" cy="350" r="1" fill="#dffaff" fill-opacity="0.23"/><circle cx="1157" cy="460" r="1" fill="#dffaff" fill-opacity="0.38"/><circle cx="234" cy="115" r="1" fill="#dffaff" fill-opacity="0.54"/><circle cx="1798" cy="582" r="1" fill="#dffaff" fill-opacity="0.28"/><circle cx="616" cy="79" r="1" fill="#dffaff" fill-opacity="0.51"/><circle cx="325" cy="189" r="1.5" fill="#dffaff" fill-opacity="0.18"/><circle cx="1314" cy="76" r="1" fill="#dffaff" fill-opacity="0.45"/><circle cx="1071" cy="730" r="1" fill="#dffaff" fill-opacity="0.12"/><circle cx="1578" cy="166" r="1" fill="#dffaff" fill-opacity="0.49"/><circle cx="888" cy="115" r="1" fill="#dffaff" fill-opacity="0.39"/><circle cx="1148" cy="204" r="1" fill="#dffaff" fill-opacity="0.12"/><circle cx="1499" cy="709" r="1" fill="#dffaff" fill-opacity="0.53"/><circle cx="880" cy="34" r="1" fill="#dffaff" fill-opacity="0.47"/><circle cx="1473" cy="937" r="1" fill="#dffaff" fill-opacity="0.55"/><circle cx="1805" cy="462" r="2" fill="#dffaff" fill-opacity="0.36"/><circle cx="1099" cy="467" r="1" fill="#dffaff" fill-opacity="0.33"/><circle cx="1712" cy="415" r="2" fill="#dffaff" fill-opacity="0.47"/><circle cx="1894" cy="681" r="1" fill="#dffaff" fill-opacity="0.30"/><circle cx="1709" cy="84" r="1.5" fill="#dffaff" fill-opacity="0.46"/><circle cx="517" cy="850" r="2" fill="#dffaff" fill-opacity="0.23"/><circle cx="223" cy="908" r="1" fill="#dffaff" fill-opacity="0.15"/><circle cx="1851" cy="765" r="1" fill="#dffaff" fill-opacity="0.29"/><circle cx="1063" cy="682" r="1.5" fill="#dffaff" fill-opacity="0.44"/><circle cx="1809" cy="973" r="1" fill="#dffaff" fill-opacity="0.46"/><circle cx="607" cy="136" r="1.5" fill="#dffaff" fill-opacity="0.48"/><circle cx="1824" cy="849" r="1" fill="#dffaff" fill-opacity="0.14"/><circle cx="610" cy="405" r="1.5" fill="#dffaff" fill-opacity="0.13"/><circle cx="1842" cy="563" r="1" fill="#dffaff" fill-opacity="0.08"/><circle cx="181" cy="506" r="2" fill="#dffaff" fill-opacity="0.43"/><circle cx="1446" cy="109" r="1" fill="#dffaff" fill-opacity="0.20"/><circle cx="1681" cy="81" r="2" fill="#dffaff" fill-opacity="0.18"/><circle cx="533" cy="555" r="1.5" fill="#dffaff" fill-opacity="0.30"/></g>
<g fill="none" stroke="#76eaff" stroke-opacity=".24" stroke-width="2"><path d="M1040 230h470v390h-470zM1075 275h115v110h-115zM1215 275h115v110h-115zM1355 275h115v110h-115zM1075 410h185v150h-185zM1285 410h185v150h-185z"/></g>
<g font-family="Arial, Helvetica, sans-serif" letter-spacing="8" fill="#dffaff">
 <text x="90" y="885" font-size="38" font-weight="700" fill-opacity=".3">ORG WAREHOUSE</text>
 <text x="94" y="930" font-size="16" fill="#76eaff" fill-opacity=".32">CARGO & MATERIAL CONTROL</text>
</g>
<path d="M90 965h560" stroke="#ffbd61" stroke-opacity=".25" stroke-width="3"/>
</svg>