<svg xmlns="http://www.w3.org/2000/svg" viewBox="0 0 1920 1080" role="img" aria-label="WHERE TO BUY background">
<defs>
 <linearGradient id="bg" x1="0" y1="0" x2="1" y2="1"><stop stop-color="#02070c"/><stop offset=".48" stop-color="#071827"/><stop offset="1" stop-color="#02060a"/></linearGradient>
 <radialGradient id="glow"><stop stop-color="#21b9d8" stop-opacity=".22"/><stop offset="1" stop-color="#21b9d8" stop-opacity="0"/></radialGradient>
 <pattern id="grid" width="72" height="72" patternUnits="userSpaceOnUse"><path d="M72 0H0V72" fill="none" stroke="#7cecff" stroke-opacity=".035"/></pattern>
</defs>
<rect width="1920" height="1080" fill="url(#bg)"/>
<rect width="1920" height="1080" fill="url(#grid)"/>
<ellipse cx="1320" cy="430" rx="620" ry="520" fill="url(#glow)"/>
<g><circle cx="1351" cy="254" r="1" fill="#dffaff" fill-opacity="0.47"/><circle cx="1849" cy="568" r="1" fill="#dffaff" fill-opacity="0.50"/><circle cx="896" cy="1044" r="1" fill="#dffaff" fill-opacity="0.22"/><circle cx="573" cy="878" r="2" fill="#dffaff" fill-opacity="0.49"/><circle cx="193" cy="182" r="1.5" fill="#dffaff" fill-opacity="0.29"/><circle cx="1750" cy="673" r="2" fill="#dffaff" fill-opacity="0.27"/><circle cx="137" cy="821" r="1" fill="#dffaff" fill-opacity="0.44"/><circle cx="1411" cy="402" r="1" fill="#dffaff" fill-opacity="0.48"/><circle cx="391" cy="732" r="1.5" fill="#dffaff" fill-opacity="0.28"/><circle cx="1603" cy="689" r="1" fill="#dffaff" fill-opacity="0.46"/><circle cx="342" cy="63" r="1" fill="#dffaff" fill-opacity="0.18"/><circle cx="313" cy="266" r="1.5" fill="#dffaff" fill-opacity="0.18"/><circle cx="843" cy="455" r="1" fill="#dffaff" fill-opacity="0.34"/><circle cx="375" cy="15" r="1" fill="#dffaff" fill-opacity="0.27"/><circle cx="1800" cy="447" r="1" fill="#dffaff" fill-opacity="0.15"/><circle cx="748" cy="1024" r="1.5" fill="#dffaff" fill-opacity="0.49"/><circle cx="1680" cy="877" r="1" fill="#dffaff" fill-opacity="0.18"/><circle cx="1643" cy="788" r="2" fill="#dffaff" fill-opacity="0.10"/><circle cx="315" cy="632" r="2" fill="#dffaff" fill-opacity="0.42"/><circle cx="350" cy="223" r="1" fill="#dffaff" fill-opacity="0.42"/><circle cx="467" cy="513" r="1" fill="#dffaff" fill-opacity="0.42"/><circle cx="906" cy="1057" r="1" fill="#dffaff" fill-opacity="0.38"/><circle cx="951" cy="421" r="1" fill="#dffaff" fill-opacity="0.36"/><circle cx="1782" cy="84" r="1.5" fill="#dffaff" fill-opacity="0.25"/><circle cx="1643" cy="314" r="1" fill="#dffaff" fill-opacity="0.45"/><circle cx="100" cy="789" r="1" fill="#dffaff" fill-opacity="0.53"/><circle cx="1585" cy="1075" r="1" fill="#dffaff" fill-opacity="0.53"/><circle cx="1718" cy="618" r="1" fill="#dffaff" fill-opacity="0.20"/><circle cx="1271" cy="19" r="1" fill="#dffaff" fill-opacity="0.16"/><circle cx="978" cy="623" r="2" fill="#dffaff" fill-opacity="0.43"/><circle cx="918" cy="760" r="1" fill="#dffaff" fill-opacity="0.45"/><circle cx="465" cy="597" r="2" fill="#dffaff" fill-opacity="0.35"/><circle cx="540" cy="391" r="1" fill="#dffaff" fill-opacity="0.26"/><circle cx="1430" cy="775" r="1.5" fill="#dffaff" fill-opacity="0.29"/><circle cx="1330" cy="138" r="2" fill="#dffaff" fill-opacity="0.54"/><circle cx="977" cy="489" r="2" fill="#dffaff" fill-opacity="0.17"/><circle cx="1771" cy="255" r="1" fill="#dffaff" fill-opacity="0.48"/><circle cx="168" cy="761" r="2" fill="#dffaff" fill-opacity="0.50"/><circle cx="1215" cy="98" r="1" fill="#dffaff" fill-opacity="0.40"/><circle cx="273" cy="414" r="1" fill="#dffaff" fill-opacity="0.44"/><circle cx="1605" cy="338" r="2" fill="#dffaff" fill-opacity="0.30"/><circle cx="375" cy="81" r="1" fill="#dffaff" fill-opacity="0.50"/><circle cx="1142" cy="144" r="1" fill="#dffaff" fill-opacity="0.41"/><circle cx="1388" cy="317" r="1" fill="#dffaff" fill-opacity="0.40"/><circle cx="705" cy="967" r="1.5" fill="#dffaff" fill-opacity="0.48"/><circle cx="1913" cy="572" r="1.5" fill="#dffaff" fill-opacity="0.23"/><circle cx="124" cy="399" r="1.5" fill="#dffaff" fill-opacity="0.10"/><circle cx="433" cy="7" r="1" fill="#dffaff" fill-opacity="0.51"/><circle cx="1813" cy="827" r="1" fill="#dffaff" fill-opacity="0.35"/><circle cx="413" cy="236" r="1.5" fill="#dffaff" fill-opacity="0.53"/><circle cx="1216" cy="835" r="1" fill="#dffaff" fill-opacity="0.52"/><circle cx="295" cy="713" r="1" fill="#dffaff" fill-opacity="0.52"/><circle cx="1256" cy="864" r="1" fill="#dffaff" fill-opacity="0.55"/><circle cx="476" cy="729" r="1.5" fill="#dffaff" fill-opacity="0.44"/><circle cx="1459" cy="879" r="1" fill="#dffaff" fill-opacity="0.36"/><circle cx="257" cy="896" r="1" fill="#dffaff" fill-opacity="0.51"/><circle cx="422" cy="571" r="2" fill="#dffaff" fill-opacity="0.31"/><circle cx="278" cy="954" r="1.5" fill="#dffaff" fill-opacity="0.22"/><circle cx="1189" cy="390" r="1" fill="#dffaff" fill-opacity="0.49"/><circle cx="671" cy="577" r="1" fill="#dffaff" fill-opacity="0.44"/><circle cx="277" cy="743" r="1" fill="#dffaff" fill-opacity="0.43"/><circle cx="1081" cy="116" r="1" fill="#dffaff" fill-opacity="0.27"/><circle cx="198" cy="901" r="1.5" fill="#dffaff" fill-opacity="0.54"/><circle cx="1619" cy="609" r="1" fill="#dffaff" fill-opacity="0.40"/><circle cx="361" cy="572" r="2" fill="#dffaff" fill-opacity="0.29"/><circle cx="453" cy="437" r="1" fill="#dffaff" fill-opacity="0.55"/><circle cx="1434" cy="1006" r="1" fill="#dffaff" fill-opacity="0.16"/><circle cx="524" cy="838" r="1" fill="#dffaff" fill-opacity="0.36"/><circle cx="956" cy="186" r="2" fill="#dffaff" fill-opacity="0.54"/><circle cx="601" cy="275" r="1.5" fill="#dffaff" fill-opacity="0.24"/><circle cx="264" cy="937" r="1" fill="#dffaff" fill-opacity="0.50"/><circle cx="1200" cy="540" r="1.5" fill="#dffaff" fill-opacity="0.36"/><circle cx="1668" cy="1074" r="1" fill="#dffaff" fill-opacity="0.21"/><circle cx="1690" cy="415" r="1" fill="#dffaff" fill-opacity="0.18"/><circle cx="1412" cy="117" r="1" fill="#dffaff" fill-opacity="0.39"/><circle cx="1654" cy="71" r="1" fill="#dffaff" fill-opacity="0.08"/><circle cx="1775" cy="31" r="1.5" fill="#dffaff" fill-opacity="0.15"/><circle cx="1714" cy="67" r="1" fill="#dffaff" fill-opacity="0.17"/><circle cx="1734" cy="1072" r="1" fill="#dffaff" fill-opacity="0.14"/><circle cx="1554" cy="84" r="2" fill="#dffaff" fill-opacity="0.17"/><circle cx="1365" cy="288" r="1.5" fill="#dffaff" fill-opacity="0.41"/><circle cx="632" cy="768" r="1" fill="#dffaff" fill-opacity="0.28"/><circle cx="1904" cy="891" r="1.5" fill="#dffaff" fill-opacity="0.34"/><circle cx="1452" cy="635" r="1" fill="#dffaff" fill-opacity="0.35"/><circle cx="97" cy="852" r="1" fill="#dffaff" fill-opacity="0.11"/><circle cx="1461" cy="1049" r="1" fill="#dffaff" fill-opacity="0.14"/><circle cx="1030" cy="508" r="2" fill="#dffaff" fill-opacity="0.13"/><circle cx="578" cy="725" r="1.5" fill="#dffaff" fill-opacity="0.43"/><circle cx="1525" cy="838" r="2" fill="#dffaff" fill-opacity="0.46"/><circle cx="625" cy="478" r="2" fill="#dffaff" fill-opacity="0.31"/><circle cx="1032" cy="881" r="1" fill="#dffaff" fill-opacity="0.32"/><circle cx="1240" cy="365" r="1.5" fill="#dffaff" fill-opacity="0.44"/><circle cx="783" cy="379" r="2" fill="#dffaff" fill-opacity="0.32"/><circle cx="1577" cy="607" r="2" fill="#dffaff" fill-opacity="0.28"/><circle cx="725" cy="443" r="1.5" fill="#dffaff" fill-opacity="0.53"/><circle cx="527" cy="907" r="2" fill="#dffaff" fill-opacity="0.25"/><circle cx="1758" cy="880" r="1.5" fill="#dffaff" fill-opacity="0.48"/><circle cx="1833" cy="957" r="1.5" fill="#dffaff" fill-opacity="0.17"/><circle cx="543" cy="190" r="2" fill="#dffaff" fill-opacity="0.46"/><circle cx="1091" cy="206" r="1.5" fill="#dffaff" fill-opacity="0.54"/><circle cx="1283" cy="683" r="1.5" fill="#dffaff" fill-opacity="0.17"/><circle cx="1734" cy="274" r="1" fill="#dffaff" fill-opacity="0.13"/><circle cx="749" cy="453" r="1.5" fill="#dffaff" fill-opacity="0.25"/><circle cx="1475" cy="638" r="1" fill="#dffaff" fill-opacity="0.35"/><circle cx="393" cy="559" r="1" fill="#dffaff" fill-opacity="0.10"/><circle cx="1344" cy="824" r="1" fill="#dffaff" fill-opacity="0.43"/><circle cx="521" cy="258" r="2" fill="#dffaff" fill-opacity="0.34"/><circle cx="1510" cy="727" r="1.5" fill="#dffaff" fill-opacity="0.54"/><circle cx="1918" cy="451" r="1" fill="#dffaff" fill-opacity="0.31"/><circle cx="252" cy="224" r="1.5" fill="#dffaff" fill-opacity="0.40"/><circle cx="894" cy="872" r="1" fill="#dffaff" fill-opacity="0.46"/><circle cx="1886" cy="648" r="1.5" fill="#dffaff" fill-opacity="0.27"/><circle cx="227" cy="846" r="2" fill="#dffaff" fill-opacity="0.16"/><circle cx="1154" cy="377" r="2" fill="#dffaff" fill-opacity="0.09"/><circle cx="79" cy="999" r="1.5" fill="#dffaff" fill-opacity="0.27"/><circle cx="1358" cy="804" r="1.5" fill="#dffaff" fill-opacity="0.36"/><circle cx="708" cy="745" r="1" fill="#dffaff" fill-opacity="0.10"/><circle cx="1611" cy="97" r="1" fill="#dffaff" fill-opacity="0.50"/><circle cx="442" cy="33" r="1" fill="#dffaff" fill-opacity="0.55"/><circle cx="1591" cy="386" r="1.5" fill="#dffaff" fill-opacity="0.28"/></g>
<g fill="none" stroke="#76eaff" stroke-opacity=".24" stroke-width="2"><circle cx="1280" cy="420" r="235"/><circle cx="1280" cy="420" r="135"/><path d="M1280 220c-78 0-142 63-142 142 0 105 142 258 142 258s142-153 142-258c0-79-64-142-142-142z"/><circle cx="1280" cy="360" r="54"/></g>
<g font-family="Arial, Helvetica, sans-serif" letter-spacing="8" fill="#dffaff">
 <text x="90" y="885" font-size="38" font-weight="700" fill-opacity=".3">WHERE TO BUY</text>
 <text x="94" y="930" font-size="16" fill="#76eaff" fill-opacity=".32">VERIFIED SOURCE NETWORK</text>
</g>
<path d="M90 965h560" stroke="#ffbd61" stroke-opacity=".25" stroke-width="3"/>
</svg>