<svg xmlns="http://www.w3.org/2000/svg" viewBox="0 0 1920 1080" role="img" aria-label="WIKELO TRACKER background">
<defs>
 <linearGradient id="bg" x1="0" y1="0" x2="1" y2="1"><stop stop-color="#02070c"/><stop offset=".48" stop-color="#071827"/><stop offset="1" stop-color="#02060a"/></linearGradient>
 <radialGradient id="glow"><stop stop-color="#21b9d8" stop-opacity=".22"/><stop offset="1" stop-color="#21b9d8" stop-opacity="0"/></radialGradient>
 <pattern id="grid" width="72" height="72" patternUnits="userSpaceOnUse"><path d="M72 0H0V72" fill="none" stroke="#7cecff" stroke-opacity=".035"/></pattern>
</defs>
<rect width="1920" height="1080" fill="url(#bg)"/>
<rect width="1920" height="1080" fill="url(#grid)"/>
<ellipse cx="1320" cy="430" rx="620" ry="520" fill="url(#glow)"/>
<g><circle cx="565" cy="430" r="1.5" fill="#dffaff" fill-opacity="0.55"/><circle cx="1473" cy="268" r="1" fill="#dffaff" fill-opacity="0.50"/><circle cx="650" cy="848" r="1" fill="#dffaff" fill-opacity="0.15"/><circle cx="1807" cy="60" r="1.5" fill="#dffaff" fill-opacity="0.45"/><circle cx="104" cy="428" r="1" fill="#dffaff" fill-opacity="0.21"/><circle cx="800" cy="897" r="1" fill="#dffaff" fill-opacity="0.46"/><circle cx="395" cy="844" r="1.5" fill="#dffaff" fill-opacity="0.34"/><circle cx="383" cy="244" r="2" fill="#dffaff" fill-opacity="0.51"/><circle cx="1614" cy="993" r="2" fill="#dffaff" fill-opacity="0.35"/><circle cx="424" cy="408" r="1" fill="#dffaff" fill-opacity="0.12"/><circle cx="772" cy="836" r="2" fill="#dffaff" fill-opacity="0.48"/><circle cx="1581" cy="382" r="1" fill="#dffaff" fill-opacity="0.27"/><circle cx="1041" cy="474" r="1.5" fill="#dffaff" fill-opacity="0.33"/><circle cx="1906" cy="368" r="1" fill="#dffaff" fill-opacity="0.41"/><circle cx="1395" cy="840" r="1" fill="#dffaff" fill-opacity="0.41"/><circle cx="1161" cy="504" r="1" fill="#dffaff" fill-opacity="0.20"/><circle cx="1733" cy="570" r="1" fill="#dffaff" fill-opacity="0.19"/><circle cx="1548" cy="722" r="1" fill="#dffaff" fill-opacity="0.33"/><circle cx="1441" cy="156" r="2" fill="#dffaff" fill-opacity="0.28"/><circle cx="1905" cy="415" r="1" fill="#dffaff" fill-opacity="0.38"/><circle cx="694" cy="682" r="2" fill="#dffaff" fill-opacity="0.43"/><circle cx="1241" cy="55" r="1" fill="#dffaff" fill-opacity="0.25"/><circle cx="773" cy="423" r="2" fill="#dffaff" fill-opacity="0.26"/><circle cx="71" cy="152" r="2" fill="#dffaff" fill-opacity="0.35"/><circle cx="282" cy="695" r="1.5" fill="#dffaff" fill-opacity="0.34"/><circle cx="980" cy="615" r="2" fill="#dffaff" fill-opacity="0.12"/><circle cx="760" cy="382" r="1" fill="#dffaff" fill-opacity="0.16"/><circle cx="672" cy="25" r="1" fill="#dffaff" fill-opacity="0.12"/><circle cx="170" cy="509" r="1" fill="#dffaff" fill-opacity="0.17"/><circle cx="243" cy="235" r="1.5" fill="#dffaff" fill-opacity="0.45"/><circle cx="692" cy="870" r="1.5" fill="#dffaff" fill-opacity="0.35"/><circle cx="1072" cy="534" r="1.5" fill="#dffaff" fill-opacity="0.28"/><circle cx="1679" cy="135" r="1.5" fill="#dffaff" fill-opacity="0.30"/><circle cx="1759" cy="1071" r="2" fill="#dffaff" fill-opacity="0.35"/><circle cx="1574" cy="87" r="1" fill="#dffaff" fill-opacity="0.38"/><circle cx="1160" cy="761" r="1" fill="#dffaff" fill-opacity="0.35"/><circle cx="984" cy="517" r="1" fill="#dffaff" fill-opacity="0.20"/><circle cx="662" cy="1075" r="2" fill="#dffaff" fill-opacity="0.45"/><circle cx="994" cy="215" r="1" fill="#dffaff" fill-opacity="0.19"/><circle cx="1239" cy="811" r="2" fill="#dffaff" fill-opacity="0.52"/><circle cx="771" cy="1010" r="1" fill="#dffaff" fill-opacity="0.48"/><circle cx="651" cy="1045" r="2" fill="#dffaff" fill-opacity="0.46"/><circle cx="1210" cy="694" r="1" fill="#dffaff" fill-opacity="0.44"/><circle cx="1151" cy="884" r="1" fill="#dffaff" fill-opacity="0.31"/><circle cx="1376" cy="493" r="1" fill="#dffaff" fill-opacity="0.45"/><circle cx="740" cy="945" r="1.5" fill="#dffaff" fill-opacity="0.15"/><circle cx="913" cy="576" r="1.5" fill="#dffaff" fill-opacity="0.45"/><circle cx="855" cy="1028" r="2" fill="#dffaff" fill-opacity="0.51"/><circle cx="1891" cy="693" r="1" fill="#dffaff" fill-opacity="0.28"/><circle cx="132" cy="460" r="1.5" fill="#dffaff" fill-opacity="0.47"/><circle cx="1694" cy="1014" r="1" fill="#dffaff" fill-opacity="0.15"/><circle cx="874" cy="1044" r="1" fill="#dffaff" fill-opacity="0.24"/><circle cx="525" cy="1045" r="1" fill="#dffaff" fill-opacity="0.34"/><circle cx="1799" cy="41" r="2" fill="#dffaff" fill-opacity="0.35"/><circle cx="1130" cy="934" r="1" fill="#dffaff" fill-opacity="0.22"/><circle cx="1854" cy="1058" r="1" fill="#dffaff" fill-opacity="0.13"/><circle cx="1875" cy="423" r="1" fill="#dffaff" fill-opacity="0.12"/><circle cx="1046" cy="44" r="1.5" fill="#dffaff" fill-opacity="0.22"/><circle cx="1870" cy="418" r="2" fill="#dffaff" fill-opacity="0.18"/><circle cx="22" cy="23" r="2" fill="#dffaff" fill-opacity="0.34"/><circle cx="919" cy="378" r="1" fill="#dffaff" fill-opacity="0.33"/><circle cx="518" cy="588" r="1" fill="#dffaff" fill-opacity="0.49"/><circle cx="443" cy="776" r="1.5" fill="#dffaff" fill-opacity="0.31"/><circle cx="844" cy="528" r="1" fill="#dffaff" fill-opacity="0.36"/><circle cx="150" cy="935" r="1" fill="#dffaff" fill-opacity="0.47"/><circle cx="605" cy="949" r="1.5" fill="#dffaff" fill-opacity="0.21"/><circle cx="958" cy="729" r="1" fill="#dffaff" fill-opacity="0.41"/><circle cx="939" cy="365" r="1" fill="#dffaff" fill-opacity="0.55"/><circle cx="1293" cy="939" r="1" fill="#dffaff" fill-opacity="0.16"/><circle cx="1666" cy="763" r="1" fill="#dffaff" fill-opacity="0.36"/><circle cx="930" cy="839" r="1" fill="#dffaff" fill-opacity="0.22"/><circle cx="1505" cy="733" r="1" fill="#dffaff" fill-opacity="0.12"/><circle cx="502" cy="359" r="1" fill="#dffaff" fill-opacity="0.11"/><circle cx="323" cy="711" r="1" fill="#dffaff" fill-opacity="0.34"/><circle cx="867" cy="970" r="2" fill="#dffaff" fill-opacity="0.23"/><circle cx="1189" cy="285" r="1.5" fill="#dffaff" fill-opacity="0.50"/><circle cx="1911" cy="99" r="1" fill="#dffaff" fill-opacity="0.37"/><circle cx="403" cy="635" r="1" fill="#dffaff" fill-opacity="0.33"/><circle cx="1335" cy="620" r="1" fill="#dffaff" fill-opacity="0.45"/><circle cx="1231" cy="737" r="1" fill="#dffaff" fill-opacity="0.35"/><circle cx="864" cy="583" r="1.5" fill="#dffaff" fill-opacity="0.15"/><circle cx="149" cy="817" r="1" fill="#dffaff" fill-opacity="0.52"/><circle cx="917" cy="147" r="1" fill="#dffaff" fill-opacity="0.37"/><circle cx="454" cy="263" r="2" fill="#dffaff" fill-opacity="0.49"/><circle cx="1254" cy="296" r="1" fill="#dffaff" fill-opacity="0.41"/><circle cx="1632" cy="887" r="1.5" fill="#dffaff" fill-opacity="0.08"/><circle cx="1882" cy="691" r="1" fill="#dffaff" fill-opacity="0.10"/><circle cx="1413" cy="376" r="2" fill="#dffaff" fill-opacity="0.38"/><circle cx="603" cy="293" r="1" fill="#dffaff" fill-opacity="0.53"/><circle cx="613" cy="606" r="2" fill="#dffaff" fill-opacity="0.35"/><circle cx="195" cy="767" r="1" fill="#dffaff" fill-opacity="0.46"/><circle cx="70" cy="466" r="1" fill="#dffaff" fill-opacity="0.15"/><circle cx="137" cy="844" r="1" fill="#dffaff" fill-opacity="0.12"/><circle cx="1290" cy="615" r="1.5" fill="#dffaff" fill-opacity="0.27"/><circle cx="169" cy="383" r="1" fill="#dffaff" fill-opacity="0.26"/><circle cx="1471" cy="73" r="1" fill="#dffaff" fill-opacity="0.26"/><circle cx="1064" cy="1034" r="1" fill="#dffaff" fill-opacity="0.26"/><circle cx="1496" cy="110" r="2" fill="#dffaff" fill-opacity="0.27"/><circle cx="269" cy="997" r="1" fill="#dffaff" fill-opacity="0.38"/><circle cx="1003" cy="1020" r="1" fill="#dffaff" fill-opacity="0.33"/><circle cx="246" cy="481" r="1" fill="#dffaff" fill-opacity="0.20"/><circle cx="9" cy="767" r="2" fill="#dffaff" fill-opacity="0.39"/><circle cx="95" cy="804" r="2" fill="#dffaff" fill-opacity="0.47"/><circle cx="1007" cy="52" r="1" fill="#dffaff" fill-opacity="0.27"/><circle cx="528" cy="152" r="2" fill="#dffaff" fill-opacity="0.34"/><circle cx="530" cy="318" r="1" fill="#dffaff" fill-opacity="0.27"/><circle cx="508" cy="20" r="1" fill="#dffaff" fill-opacity="0.10"/><circle cx="1829" cy="292" r="2" fill="#dffaff" fill-opacity="0.26"/><circle cx="120" cy="261" r="1" fill="#dffaff" fill-opacity="0.44"/><circle cx="1449" cy="720" r="1" fill="#dffaff" fill-opacity="0.22"/><circle cx="155" cy="601" r="2" fill="#dffaff" fill-opacity="0.50"/><circle cx="507" cy="183" r="1" fill="#dffaff" fill-opacity="0.38"/><circle cx="312" cy="715" r="1.5" fill="#dffaff" fill-opacity="0.35"/><circle cx="1406" cy="716" r="1" fill="#dffaff" fill-opacity="0.18"/><circle cx="1555" cy="629" r="1" fill="#dffaff" fill-opacity="0.35"/><circle cx="1317" cy="330" r="1" fill="#dffaff" fill-opacity="0.30"/><circle cx="202" cy="809" r="1" fill="#dffaff" fill-opacity="0.37"/><circle cx="1148" cy="303" r="1.5" fill="#dffaff" fill-opacity="0.14"/><circle cx="1414" cy="76" r="2" fill="#dffaff" fill-opacity="0.22"/><circle cx="889" cy="73" r="2" fill="#dffaff" fill-opacity="0.26"/></g>
<g fill="none" stroke="#76eaff" stroke-opacity=".24" stroke-width="2"><circle cx="1280" cy="420" r="235"/><circle cx="1280" cy="420" r="175"/><path d="M1150 420h260M1280 290v260"/><path d="M1210 350l70-40 70 40v80l-70 40-70-40z" stroke="#ffbd61" stroke-opacity=".45"/></g>
<g font-family="Arial, Helvetica, sans-serif" letter-spacing="8" fill="#dffaff">
 <text x="90" y="885" font-size="38" font-weight="700" fill-opacity=".3">WIKELO TRACKER</text>
 <text x="94" y="930" font-size="16" fill="#76eaff" fill-opacity=".32">REWARD CHAIN</text>
</g>
<path d="M90 965h560" stroke="#ffbd61" stroke-opacity=".25" stroke-width="3"/>
</svg>